<?xml version="1.0" standalone="no"?>
<!DOCTYPE svg PUBLIC "-//W3C//DTD SVG 1.1//EN" "http://www.w3.org/Graphics/SVG/1.1/DTD/svg11.dtd" >
<svg>
<metadata>
Created by FontForge 20090622 at Fri Oct 25 10:07:37 2019
 By deploy user
Copyright 2012 The B612 Project Authors (https://github.com/polarsys/b612)
</metadata>
<defs>
<font id="B612Mono-Regular" horiz-adv-x="1300" >
  <font-face 
    font-family="B612 Mono"
    font-weight="400"
    font-stretch="normal"
    units-per-em="2000"
    panose-1="2 11 6 9 5 0 0 2 0 4"
    ascent="1600"
    descent="-400"
    x-height="1100"
    cap-height="1500"
    bbox="-364 -710 2702 1924"
    underline-thickness="100"
    underline-position="-200"
    unicode-range="U+0020-U+FB06"
  />
<missing-glyph 
d="M100 1500h1100v-1500h-1100v1500zM200 100h900v1300h-900v-1300z" />
    <glyph glyph-name=".notdef" 
d="M100 1500h1100v-1500h-1100v1500zM200 100h900v1300h-900v-1300z" />
    <glyph glyph-name="space" unicode=" " 
 />
    <glyph glyph-name="exclam" unicode="!" 
d="M605 1500v-1050l-210 -21v1071h210zM378 106q0 25 9.5 47t26 38.5t38.5 26t47 9.5t47 -9.5t38.5 -26t26 -38.5t9.5 -47t-9.5 -47.5t-25.5 -39t-38 -26.5t-47 -10q-26 0 -48 10t-38.5 26.5t-26 39t-9.5 47.5z" />
    <glyph glyph-name="quotedbl" unicode="&#x22;" 
d="M525 1500v-100q0 -19 -2 -43t-5.5 -51t-7.5 -55l-8 -55l-21 -129h-87l-22 129q-5 27 -9 55t-7 55t-4.5 51t-1.5 43v100h175zM826 1500v-100q0 -19 -2 -43t-5.5 -51t-7.5 -55l-8 -55l-21 -129h-87l-22 129q-5 27 -9 55t-7 55t-4.5 51t-1.5 43v100h175z" />
    <glyph glyph-name="numbersign" unicode="#" 
d="M1028 950l-50 -400h272l-20 -150h-269l-50 -400l-201 -20l54 420h-273l-48 -400l-200 -20l51 420h-194v150h211l51 400h-262l20 150h259l24 185v215l226 20l-53 -420h273l48 400l201 20l-51 -420h203v-150h-222zM830 950h-271l-49 -400h271z" />
    <glyph glyph-name="dollar" unicode="$" 
d="M992 1300q-17 14 -43 28.5t-58 26.5t-69 21t-76 12v-525q69 -32 136.5 -69t121 -87t86.5 -117t33 -158q0 -93 -28 -167.5t-78 -129.5t-119.5 -90t-151.5 -50v-195h-146v183q-58 1 -115 11.5t-108.5 26.5t-95.5 36.5t-76 42.5l118 141l46 -29t60 -30.5t76 -24t95 -9.5v573
l-137 71t-121 83t-86 104.5t-33 136.5q0 105 31.5 178t83.5 120t120 71t142 32v183l146 20v-203q106 -6 188.5 -36t151.5 -81zM933 400q0 45 -17 82.5t-46 69t-69 58.5t-85 52v-504q49 9 89 28t68.5 48.5t44 70.5t15.5 95zM413 1147q0 -41 17 -74t46 -60.5t69 -51t85 -45.5
v467q-41 -7 -79.5 -22.5t-69.5 -43.5t-49.5 -70t-18.5 -100z" />
    <glyph glyph-name="percent" unicode="%" 
d="M395 0h-166l676 1500h166zM359 800q-70 0 -119.5 27.5t-80.5 76t-45 115t-14 143.5q0 76 13 141.5t43.5 112.5t80 74t122.5 27q70 0 119 -27t80 -74t45 -112.5t14 -141.5q0 -77 -13.5 -143.5t-43.5 -115t-79.5 -76t-121.5 -27.5zM468 1210q0 35 -3 67t-14 56t-33 38.5
t-60 14.5q-37 0 -58 -13t-31.5 -35t-13.5 -51.5t-3 -62.5v-101q0 -36 3 -68.5t14 -57t33.5 -39t60.5 -14.5q36 0 57 13t31.5 35t13.5 51.5t3 61.5v105zM942 -17q-70 0 -119.5 27.5t-80.5 76t-45 115t-14 143.5q0 76 13 141.5t43.5 112.5t80 74t122.5 27q70 0 119 -27t80 -74
t45 -112.5t14 -141.5q0 -77 -13.5 -143.5t-43.5 -115t-79.5 -76t-121.5 -27.5zM1051 393q0 35 -3 67t-14 56t-33 38.5t-60 14.5q-37 0 -58 -13t-31.5 -35t-13.5 -51.5t-3 -62.5v-101q0 -36 3 -68.5t14 -57t33.5 -39t60.5 -14.5q36 0 57 13t31.5 35t13.5 51.5t3 61.5v105z
" />
    <glyph glyph-name="ampersand" unicode="&#x26;" 
d="M1176 721q0 -79 -7.5 -158.5t-29 -154.5t-59 -143t-97.5 -124h92l120 -161h-222l-76 97q-75 -50 -163.5 -72t-184.5 -22q-103 0 -186 37.5t-141.5 101.5t-90 148t-31.5 177q0 95 25.5 168.5t65.5 127t87 87.5t91 51q-19 28 -38.5 64.5t-35 75.5t-25.5 79t-10 76
q0 72 19.5 134t62.5 108t111 72.5t164 26.5q66 0 118.5 -17.5t94 -44t73 -58t54.5 -59.5l-80 -138q-15 26 -38 54t-55.5 51.5t-76 38.5t-98.5 15q-48 0 -80.5 -19t-52.5 -47t-28.5 -60t-8.5 -58q0 -29 10 -63q4 -15 15.5 -38t33 -60.5l55.5 -93l83.5 -135l116 -186.5
l153.5 -247q24 34 38.5 71t23 79t11.5 90.5t3 107.5zM425 700q-63 -29 -99.5 -88t-36.5 -155q0 -72 26 -126t66.5 -90t91 -53.5t100.5 -17.5q43 0 76 5t58 13.5t44.5 20t35.5 25.5l-362 566v-100z" />
    <glyph glyph-name="quotesingle" unicode="'" 
d="M225 1500h175v-100q0 -75 -35.5 -160t-105.5 -173h-59q9 50 14.5 94t7.5 84.5t2.5 78.5t0.5 76v100z" />
    <glyph glyph-name="parenleft" unicode="(" 
d="M500 1180q0 89 9 166t39.5 133.5t90 88.5t161.5 32q19 0 40 -1.5t39.5 -5t34.5 -8t25 -10.5l-69 -126l-14 2q-7 1 -16 2t-20 1q-44 0 -68.5 -21t-36 -57t-13.5 -83t-2 -99v-1208q0 -52 2 -99t13.5 -83t36 -57t68.5 -21q11 0 20 0.5t16 1.5l14 3l69 -126q-9 -6 -25 -10.5
t-34.5 -8t-39.5 -5t-40 -1.5q-102 0 -161.5 32t-90 88.5t-39.5 133.5t-9 166v1180z" />
    <glyph glyph-name="parenright" unicode=")" 
d="M899 0q0 -89 -9 -166t-39.5 -133.5t-90 -88.5t-161.5 -32q-20 0 -40.5 1.5t-39 5t-34.5 8t-25 10.5l69 126l14 -3q7 -1 16 -1.5t20 -0.5q44 0 68.5 21t36 57t13.5 83t2 99v1208q0 52 -2 99t-13.5 83t-36 57t-68.5 21q-11 0 -20 -1t-16 -2l-14 -2l-69 126q9 6 25 10.5
t34.5 8t39 5t40.5 1.5q102 0 161.5 -32t90 -88.5t39.5 -133.5t9 -166v-1180z" />
    <glyph glyph-name="asterisk" unicode="*" 
d="M831 994l140 -192l-99 -90l-149 206l-24 72l-24 -72l-140 -192l-116 67l148 203l65 45l-81 4l-223 73l27 131l238 -77l66 -52l-22 82v234l133 14v-252l-26 -80l66 50l225 72l54 -122l-242 -78l-79 -3z" />
    <glyph glyph-name="plus" unicode="+" 
d="M200 700h373v421h155v-421h372v-155h-372v-423h-155v423h-373v155z" />
    <glyph glyph-name="comma" unicode="," 
d="M152 127q0 29 11.5 55.5t32 45.5t47.5 31t57 12q29 0 55.5 -10.5t47 -30.5t33 -50.5t12.5 -69.5q0 -53 -6.5 -102.5t-27 -100.5t-58.5 -104t-100 -110l-52 23q23 44 41 91q15 39 27.5 85.5t12.5 90.5q-25 1 -49 11t-43 27.5t-30 44.5t-11 61z" />
    <glyph glyph-name="hyphen" unicode="-" 
d="M400 600h500v-155h-500v155z" />
    <glyph glyph-name="period" unicode="." 
d="M136 150q0 34 13 64t35.5 52.5t52 35.5t63.5 13t64 -13t52.5 -35.5t35.5 -52.5t13 -64t-13 -64.5t-35 -53t-51.5 -36t-63.5 -13.5t-64.5 13.5t-53 36t-35.5 53t-13 64.5z" />
    <glyph glyph-name="slash" unicode="/" 
d="M385 -100h-210l710 1700h200z" />
    <glyph glyph-name="zero" unicode="0" 
d="M651 -17q-85 0 -156 32.5t-127.5 88.5t-99 131t-71 160.5t-42.5 176.5t-14 178q0 90 12 182t38 177t66.5 159.5t97 129.5t130 87t166.5 32q85 0 156 -32.5t127.5 -88.5t99 -131t71 -160.5t42.5 -176.5t14 -178q0 -90 -12 -182t-38 -177t-66.5 -159.5t-97 -129.5
t-130.5 -87t-166 -32zM348 793q0 -58 4 -127.5t16 -140t33.5 -136.5t56 -117.5t84 -82.5t117.5 -31q61 0 106.5 23.5t78.5 64t54 94t33.5 114.5t17.5 126t5 127q0 58 -4 127.5t-16 139.5t-33.5 136.5t-56 117.5t-84 82t-117.5 31q-61 0 -106.5 -23.5t-78.5 -63.5t-54 -94
t-33.5 -115t-17.5 -125.5t-5 -126.5z" />
    <glyph glyph-name="one" unicode="1" 
d="M238 0v160h345v966l58 227l-136 -186l-212 -188l-108 121l458 420l150 -20v-1340h345v-160h-900z" />
    <glyph glyph-name="two" unicode="2" 
d="M183 0v168q46 73 100 144l109.5 137.5l108.5 127l98 111.5q52 60 100.5 110.5t85.5 99.5t59 101.5t22 115.5q0 48 -18 90.5t-50.5 74t-77.5 50t-99 18.5q-61 0 -105.5 -16.5t-78 -43.5t-58 -60.5t-45.5 -67.5l-141 60q26 65 66.5 119.5t95.5 94t125 61.5t156 22
q101 0 180 -36t133.5 -94.5t83 -132.5t28.5 -150q0 -77 -28.5 -146.5t-71 -132t-91.5 -117.5l-90 -103l-104 -120l-99.5 -115.5l-88.5 -109t-71 -100.5h700v-160h-934z" />
    <glyph glyph-name="three" unicode="3" 
d="M227 1340l15 160h780v-140q-12 -40 -40.5 -83.5t-67 -88t-84 -87.5t-91.5 -82l-132 -74q10 2 25.5 2.5t29.5 0.5q97 0 180.5 -24t145 -72.5t97 -123t35.5 -175.5q0 -97 -36 -176t-98.5 -140.5t-146.5 -106t-179.5 -73.5t-197.5 -43t-200 -14v160q83 3 163 15t152 33.5
t133 52.5t105.5 72.5t69.5 94t25 115.5q0 72 -30.5 120t-83.5 76t-124.5 39.5t-153.5 11.5q-32 0 -69.5 -1.5t-67.5 -3.5v155l89 68l97 79.5l95.5 84t84.5 81t64 72t34 55.5l-152 -40h-466z" />
    <glyph glyph-name="four" unicode="4" 
d="M1136 300h-180v-300h-210v300h-595v171l484 1049l189 -20l-415 -900l-93 -140h430v407l210 -17v-390h195z" />
    <glyph glyph-name="five" unicode="5" 
d="M456 982q7 4 24.5 13t43.5 18t59.5 15.5t74.5 6.5q104 0 185.5 -32.5t138 -89t86 -132.5t29.5 -162q0 -101 -36 -186.5t-98.5 -154t-146 -120.5t-178 -87.5t-194.5 -53t-196 -17.5v160q75 2 152 18t148.5 44t134 67t109 87t73.5 104t27 118q0 51 -16.5 99t-49 85.5
t-81.5 60.5t-114 23q-51 0 -92 -6.5t-73 -16.5t-55.5 -21.5t-38.5 -21.5h-124v700h753v-160h-545v-358z" />
    <glyph glyph-name="six" unicode="6" 
d="M959 1344q-7 2 -20.5 2.5t-24.5 0.5q-72 0 -140 -22.5t-128 -63.5t-110.5 -98t-89 -125.5t-63.5 -146.5t-33 -161l83 117q25 16 58.5 30.5t70.5 25.5t75 17.5t72 6.5q87 0 167.5 -24t143 -74t100 -128.5t37.5 -187.5q0 -108 -36.5 -204.5t-102.5 -169t-158 -114.5
t-204 -42q-98 0 -173.5 31.5t-131.5 83.5t-93.5 119t-61 137.5t-33.5 139.5t-10 126q0 119 24.5 232t71 212.5t113.5 183t152.5 143t188 93t220.5 33.5q15 0 33 -0.5t28 -2.5zM359 597q0 -28 0.5 -51t2.5 -45t6 -44.5t11 -49.5q14 -57 38.5 -103.5t59 -80t80 -52
t102.5 -18.5q79 0 134.5 30t90.5 79.5t51.5 112.5t16.5 128q0 63 -18.5 111t-52.5 79.5t-81.5 47.5t-105.5 16q-54 0 -105 -13t-95.5 -35t-79 -51t-55.5 -61z" />
    <glyph glyph-name="seven" unicode="7" 
d="M177 1500h943v-130q0 -43 -32.5 -110.5t-82.5 -151.5l-109.5 -180.5t-113 -198t-93.5 -203.5t-51 -197q-5 -41 -7.5 -84.5t-4 -86.5t-1.5 -84v-74h-205q0 30 0.5 80.5t2.5 106.5t7 111t13 94q23 107 65.5 210.5t93 199t103.5 180.5l96 154.5t70.5 121.5t27.5 82h-722v160
z" />
    <glyph glyph-name="eight" unicode="8" 
d="M631 1517q91 0 169 -25t134.5 -72t88.5 -114t32 -151q0 -59 -17.5 -105t-47.5 -82.5t-69.5 -66t-83.5 -55.5q74 -33 132.5 -75.5t99 -96t62 -119.5t21.5 -145q0 -111 -44 -191.5t-116.5 -133t-165 -77.5t-189.5 -25q-95 0 -183 28.5t-155.5 84t-108.5 138t-41 190.5
q0 80 23 145t63 117t95 92.5t119 71.5q-47 29 -87.5 60t-71 66.5t-48 76.5t-17.5 91q0 97 38.5 167.5t98.5 116t131.5 67.5t137.5 22zM620 760q-63 -27 -113.5 -59.5t-86 -74t-55 -94t-19.5 -118.5q0 -60 24.5 -109t65 -84.5t93.5 -54.5t109 -19q64 0 121.5 17.5t101 51.5
t68.5 84t25 115q0 67 -29.5 119.5t-77 94t-107 73.5t-120.5 58zM661 923q92 41 146.5 99t54.5 141q0 50 -20.5 86t-51.5 59t-68.5 33.5t-71.5 10.5q-45 0 -87 -13.5t-74 -38.5t-51.5 -59t-19.5 -74q0 -46 19.5 -81.5t53 -64t77.5 -52.5t93 -46z" />
    <glyph glyph-name="nine" unicode="9" 
d="M869 663q-59 -46 -118.5 -68t-134.5 -22q-98 0 -183 32.5t-148 92.5t-99 144.5t-36 188.5q0 108 34.5 197t98 153.5t154 100t202.5 35.5q100 0 176.5 -31t132.5 -82t93.5 -117t60 -137t32 -141t9.5 -129q0 -116 -23.5 -226.5t-69 -208.5t-111.5 -180.5t-150.5 -143.5
t-186.5 -97t-220 -41l-31 167q120 6 225.5 57t186 135.5t130 197t56.5 240.5zM937 953q-3 75 -21.5 145.5t-54.5 126t-89 89t-125 33.5q-68 0 -122 -22t-92 -61t-58.5 -94t-20.5 -121q0 -65 16.5 -121t50 -97t85 -64.5t120.5 -23.5q53 0 101.5 17t89 45.5t71.5 66.5t49 81z
" />
    <glyph glyph-name="colon" unicode=":" 
d="M152 133q0 31 12 58t32 47t46.5 31.5t57.5 11.5t58 -11.5t47 -31.5t31.5 -47t11.5 -58t-11.5 -58.5t-31.5 -47.5t-46.5 -32t-56.5 -12q-31 0 -58.5 12t-47.5 32t-32 47.5t-12 58.5zM152 647q0 31 12 58t32 47t46.5 31.5t57.5 11.5t58 -11.5t47 -31.5t31.5 -47t11.5 -58
t-11.5 -58.5t-31.5 -47.5t-46.5 -32t-56.5 -12q-31 0 -58.5 12t-47.5 32t-32 47.5t-12 58.5z" />
    <glyph glyph-name="semicolon" unicode=";" 
d="M152 641q0 31 12 58t32 47t46.5 31.5t57.5 11.5t58 -11.5t47 -31.5t31.5 -47t11.5 -58t-11.5 -58.5t-31.5 -47.5t-46.5 -32t-56.5 -12q-31 0 -58.5 12t-47.5 32t-32 47.5t-12 58.5zM152 127q0 29 11.5 55.5t32 45.5t47.5 31t57 12q29 0 55.5 -10.5t47 -30.5t33 -50.5
t12.5 -69.5q0 -53 -6.5 -102.5t-27 -100.5t-58.5 -104t-100 -110l-52 23q23 44 41 91q15 39 27.5 85.5t12.5 90.5q-25 1 -49 11t-43 27.5t-30 44.5t-11 61z" />
    <glyph glyph-name="less" unicode="&#x3c;" 
d="M1100 1211v-175l-687 -366l-78 -20l77 -20l688 -364v-175l-900 457v209z" />
    <glyph glyph-name="equal" unicode="=" 
d="M200 700h800v-140h-800v140zM200 400h800v-140h-800v140z" />
    <glyph glyph-name="greater" unicode="&#x3e;" 
d="M1100 757v-209l-900 -457v175l688 364l77 20l-78 20l-687 366v175z" />
    <glyph glyph-name="question" unicode="?" 
d="M1000 1144q0 -63 -17 -113t-44.5 -91t-63 -76t-73 -68.5t-73 -68.5t-63 -75.5t-44.5 -90t-17 -111.5l-210 -21q0 89 17 157t44.5 120.5t63 93t73 74l73 63.5t63 62t44.5 69t17 84q0 52 -20 90t-54.5 62t-81 35.5t-99.5 11.5q-38 0 -78.5 -11t-79 -32t-74 -51t-63.5 -67
l-133 110q49 66 106.5 108.5t117 66.5t118 33t111.5 9q85 0 164 -22.5t140.5 -68t98.5 -116t37 -166.5zM378 106q0 25 9.5 47t26 38.5t38.5 26t47 9.5t47 -9.5t38.5 -26t26 -38.5t9.5 -47t-9.5 -47.5t-25.5 -39t-38 -26.5t-47 -10q-26 0 -48 10t-38.5 26.5t-26 39t-9.5 47.5
z" />
    <glyph glyph-name="at" unicode="@" 
d="M651 1486q94 0 170 -33t135 -92.5t101.5 -143t69.5 -184t40 -216t13 -239.5q0 -120 -8 -230.5t-33 -195.5t-73 -135.5t-127 -50.5q-33 0 -65 10t-58.5 28.5t-45.5 44.5t-27 59l-38 -100q-27 -25 -73 -25t-88.5 23t-75.5 67.5t-52.5 110.5t-19.5 153q0 90 19.5 157.5
t53 112t77.5 66.5t94 22q33 0 53 -6t31 -14q12 -9 18 -20v35q0 55 -1.5 94.5t-9.5 65t-25 38t-49 12.5t-62 -7t-53 -16t-37 -16l-13 -7v127q17 15 42 27q21 11 52.5 19.5t76.5 8.5q85 0 131 -22.5t67.5 -67.5t25 -112.5t3.5 -157.5v-502q0 -31 11.5 -52.5t44.5 -21.5
q20 0 34 24.5t23.5 62.5t15 85t8 91.5t3 81.5t0.5 56q0 171 -17.5 322t-61 263.5t-117.5 178t-187 65.5q-52 0 -99.5 -28.5t-89 -79.5t-75 -121t-57.5 -153t-37 -175.5t-13 -188.5q0 -103 8.5 -205.5t27 -195.5t47.5 -173t71.5 -138.5t98 -92t126.5 -33.5q30 0 58.5 7.5
t52.5 19.5t43 26t31 28l49 -149q-54 -45 -112 -66.5t-126 -21.5q-98 0 -175 35t-136 98t-101 150.5t-68.5 193t-38.5 225.5t-12 248q0 131 14.5 252t44 226.5t74 191.5t103.5 147.5t132.5 95t162.5 33.5zM742 522q-1 3 -7 7q-5 3 -17 5.5t-35 2.5q-30 0 -54.5 -11t-42.5 -35
t-28 -62t-10 -92q0 -44 6 -80.5t18.5 -62.5t31 -40.5t43.5 -14.5q23 0 41 20t30 44q14 28 24 64v255z" />
    <glyph glyph-name="A" unicode="A" 
d="M32 0l472 1300l35 200l178 20l548 -1520h-200l-148 450h-535l-166 -450h-184zM645 1400l-45 -320l-169 -480h437l-178 480z" />
    <glyph glyph-name="B" unicode="B" 
d="M210 0v1290l-30 200q60 8 123.5 14t128.5 6q116 0 221 -14.5t184.5 -52.5t126.5 -104.5t47 -169.5q0 -109 -47 -188t-134 -121l-154 -44l147 -14q61 -18 115 -46.5t93.5 -69.5t62.5 -97t23 -129q0 -85 -22.5 -152t-61.5 -118t-91 -87.5t-111.5 -59t-123.5 -33t-127 -10.5
h-370zM395 160h110q99 0 176.5 14.5t131 48t81.5 89t28 138.5q0 75 -26 128t-73.5 87t-114.5 49.5t-148 15.5h-165v-570zM395 1147v-262h105q61 3 120.5 19t106 47.5t75 80t28.5 116.5q0 66 -30.5 109.5t-78.5 68.5t-107.5 35t-116.5 10q-34 0 -70.5 -2.5t-67.5 -8.5z" />
    <glyph glyph-name="C" unicode="C" 
d="M1147 104q-41 -33 -83 -56t-88 -37.5t-97 -21t-110 -6.5q-96 0 -183 28.5t-161.5 80t-134.5 123.5t-102 159.5t-65 187.5t-23 208q0 151 43 286.5t128 238t210.5 162.5t290.5 60q115 0 207.5 -36.5t164.5 -105.5l-90 -107q-24 16 -51 30.5t-59.5 25.5t-71 17.5t-84.5 6.5
q-122 0 -212.5 -46t-150.5 -124.5t-89.5 -183t-29.5 -221.5q0 -73 15 -147t43.5 -143t70.5 -129t96.5 -105t120.5 -70.5t143 -25.5q45 0 79 4t64.5 13t61.5 23.5t70 36.5z" />
    <glyph glyph-name="D" unicode="D" 
d="M175 1500q31 3 71 5t82 3.5t83 2t74 0.5q159 0 294.5 -39t234.5 -124t155 -218t56 -320q0 -146 -28 -262.5t-77.5 -206.5t-119 -154.5t-153 -106t-177.5 -61t-194 -19.5h-271v1290zM395 1150v-990h20q129 0 224 30t161.5 79.5t108.5 114t65.5 133.5t32 137t8.5 126
q0 85 -8 161t-30 140t-60 115t-98 87t-144.5 55.5t-198.5 19.5q-16 0 -34 -1t-34 -3l-38 -4z" />
    <glyph glyph-name="E" unicode="E" 
d="M1135 160l-20 -160h-920l15 200v1090l-30 210h920v-160h-725l20 -190v-265h635v-145h-635v-400l-10 -180h750z" />
    <glyph glyph-name="F" unicode="F" 
d="M395 0h-190v1290l-30 210h945l-20 -160h-725l20 -190v-265h620v-145h-620v-740z" />
    <glyph glyph-name="G" unicode="G" 
d="M1190 197q-41 -45 -92 -84.5t-112 -68t-133 -45t-155 -16.5q-144 0 -251.5 62.5t-178 169.5t-105.5 250t-35 305q0 101 13.5 195.5t42.5 177.5t75.5 151.5t112.5 118t152.5 77t196.5 27.5q115 0 217.5 -36.5t174.5 -105.5l-90 -107q-48 32 -120 56t-166 24
q-81 0 -142 -21t-105.5 -59t-73.5 -90.5t-46.5 -116.5t-24.5 -137t-7 -151q0 -69 7.5 -141.5t24.5 -141.5t46 -130t71.5 -107t101 -73t135.5 -27q45 0 89 10t83 26t69.5 35.5t48.5 38.5v349l-314 20v130h490v-565z" />
    <glyph glyph-name="H" unicode="H" 
d="M946 0v725h-568v-725h-190v1290l-29 210l219 20v-635h568v615l190 20v-1520h-190z" />
    <glyph glyph-name="I" unicode="I" 
d="M200 1500h900v-160h-358v-1180h378l-20 -160h-900v160h356v1180h-376z" />
    <glyph glyph-name="J" unicode="J" 
d="M390 1500h700v-1070q0 -97 -24 -176t-76 -142t-136 -96t-206 -33q-78 0 -139.5 18.5t-110.5 48t-87.5 64.5t-70.5 68l102 118q10 -10 37 -32.5t66 -45t88 -39.5t105 -17q129 0 200.5 73t71.5 231v678l20 192h-520z" />
    <glyph glyph-name="K" unicode="K" 
d="M205 0v1290l-30 210l221 20v-664l546 644h222l-531 -635l-169 -63l174 -58l553 -744h-237l-558 746v-746h-191z" />
    <glyph glyph-name="L" unicode="L" 
d="M383 160h730l-20 -160h-905l20 200v1090l-30 210l215 20v-1180z" />
    <glyph glyph-name="M" unicode="M" 
d="M973 0v901l59 498l-5 1l-154 -479l-173 -421h-100l-176 420l-164 480l-6 -1l74 -498v-901h-180v1290l-28 210l214 20l246 -570l71 -250l69 250l226 550l207 20v-1520h-180z" />
    <glyph glyph-name="N" unicode="N" 
d="M945 0l-495 948l-159 413l-6 -1l65 -440v-920h-180v1290l-30 210l201 20l496 -963l166 -417l6 1l-79 439v920l180 20v-1520h-165z" />
    <glyph glyph-name="O" unicode="O" 
d="M650 -17q-90 0 -165.5 27.5t-137 78t-107.5 120.5t-77.5 155.5t-47 183t-15.5 202.5t15 202.5t45.5 183t76 155.5t106.5 120.5t138 78t169 27.5q90 0 165.5 -27.5t137 -78t107.5 -120.5t77.5 -155.5t47 -183t15.5 -202.5t-15 -202.5t-45.5 -183t-76 -155.5t-106.5 -120.5
t-138 -78t-169 -27.5zM992 719q0 70 -4.5 143t-18 142.5t-37.5 131t-62.5 107t-94 72.5t-131.5 27q-72 0 -125 -24t-90 -65.5t-61 -97t-37 -117.5t-18 -127t-5 -126q0 -71 4.5 -145t18 -143.5t37.5 -131t63 -107.5t94 -73t131 -27q71 0 123.5 24.5t90 67t61.5 98t37.5 118
t18.5 127.5t5 126z" />
    <glyph glyph-name="P" unicode="P" 
d="M443 0h-190v1290l-35 200q30 5 70.5 9t85.5 7t91 4.5t85 1.5q170 0 293.5 -30.5t203.5 -85t118.5 -130.5t38.5 -167q0 -135 -48 -226t-143 -146.5t-238 -79t-332 -23.5v-624zM443 1147v-382q152 0 260 17t177 55.5t101 101.5t32 156q0 67 -38.5 118.5t-99.5 86t-135 52.5
t-145 18q-17 0 -40.5 -0.5t-47.5 -2t-46.5 -3.5t-37.5 -5z" />
    <glyph glyph-name="Q" unicode="Q" 
d="M916 314q19 32 35 71.5t26.5 91.5t16.5 119.5t6 154.5q0 70 -6.5 141t-22.5 137.5t-42 124.5t-66 100.5t-94 67.5t-125 25q-68 0 -119.5 -24.5t-89.5 -66.5t-64 -98t-42 -118.5t-22.5 -128t-6.5 -126.5q0 -80 5 -157t19.5 -146t41 -127t70 -100.5t106.5 -66.5t151 -25
q10 0 18 2t25 7l-45.5 79.5t-39.5 58t-44 35t-58 11.5l51 144q49 0 88.5 -20.5t75.5 -61.5t72 -101.5l80 -139.5v137zM756 0q-33 -8 -70.5 -11t-85.5 -3q-124 0 -217.5 63t-156.5 169t-94.5 244t-31.5 288q0 105 15 202.5t45.5 183t76 155.5t106.5 120.5t138 78t169 27.5
q135 0 238 -56t172 -154t104.5 -233t35.5 -292q0 -96 -11 -191.5t-34.5 -181.5t-61 -159.5t-91.5 -125.5l-17 -16.5l-17 -15.5q19 -32 34 -50t34 -27.5t46 -12t69 -2.5l-51 -145q-50 0 -91.5 8t-80 34t-75.5 75t-79 130l-18 35v-137z" />
    <glyph glyph-name="R" unicode="R" 
d="M392 614v-614h-183v1290l-35 200q67 8 147.5 15t167.5 7q126 0 233 -26.5t185 -78.5t122 -129.5t44 -178.5q0 -105 -36 -185t-98 -136.5t-147 -92t-182 -52.5l142 -40l403 -593h-223l-403 595q-11 14 -25 16.5t-22 2.5h-90zM392 1147v-382h118q91 0 161 25.5t118 69
t73 101t25 122.5q0 57 -16 101t-44 76t-65 54.5t-78.5 35.5t-85 19t-84.5 6q-42 0 -75.5 -2.5t-66.5 -8.5z" />
    <glyph glyph-name="S" unicode="S" 
d="M193 94l91 150q20 -13 52.5 -29.5t72.5 -31.5t85 -25t91 -10q62 0 124.5 15.5t113 48t82 82.5t31.5 119q0 65 -30 114t-79 88t-112 71l-128.5 64t-128.5 66.5t-112 78.5t-79 100t-30 131q0 97 41 170t107 122t150 74t170 25q213 0 393 -120l-97 -123q-68 40 -130.5 59
t-139.5 19q-54 0 -108.5 -11t-98 -35.5t-71 -64t-27.5 -96.5q0 -56 30.5 -97t80 -73.5t112.5 -61l129.5 -59t129.5 -67t112.5 -86t80 -116t30.5 -156.5q0 -112 -45.5 -195.5t-120 -139t-170.5 -83.5t-196 -28q-64 0 -119 7.5t-104.5 21.5t-94.5 34.5t-88 47.5z" />
    <glyph glyph-name="T" unicode="T" 
d="M555 0v1340h-425v160h1035v-160h-420v-1340h-190z" />
    <glyph glyph-name="U" unicode="U" 
d="M1115 1500v-977q0 -136 -32.5 -237.5t-94 -168.5t-150.5 -100.5t-203 -33.5q-122 0 -207.5 42.5t-139.5 120t-78.5 186.5t-24.5 241v717l-30 210l220 20v-966q0 -95 18.5 -169.5t53.5 -126t85 -78.5t113 -27q147 0 213.5 87.5t66.5 263.5v996h190z" />
    <glyph glyph-name="V" unicode="V" 
d="M605 500l58 -360l38 314l310 1046h184l-387 -1320l-26 -200l-228 20l-442 1500l190 20z" />
    <glyph glyph-name="W" unicode="W" 
d="M484 700l96 400h140l103 -400l71 -500h4l32 460l153 840h177l-272 -1500h-181l-96 450l-59 500h-4l-58 -500l-98 -450h-178l-276 1500l174 20l168 -860l31 -460h4z" />
    <glyph glyph-name="X" unicode="X" 
d="M1009 0l-277 519l-77 181l-48 -160l-308 -540h-198l463 799l-406 701l212 20l261 -464l80 -196l35 160l252 480h200l-399 -724l430 -776h-220z" />
    <glyph glyph-name="Y" unicode="Y" 
d="M691 935l288 565h192l-435 -854v-646h-210v645l-436 855l204 20l288 -566l79 -249z" />
    <glyph glyph-name="Z" unicode="Z" 
d="M1101 160l20 -160h-940l-20 50l565 1150l184 180l-265 -40h-395l-20 160h826l15 -22l-571 -1178l-178 -180l265 40h514z" />
    <glyph glyph-name="bracketleft" unicode="[" 
d="M422 1320l-22 200h572v-150h-372l20 -200v-1240l-20 -200h372v-150h-572l22 200v1540z" />
    <glyph glyph-name="backslash" unicode="\" 
d="M175 1600h200l710 -1700h-210z" />
    <glyph glyph-name="bracketright" unicode="]" 
d="M978 -220l22 -200h-572v150h372l-20 200v1240l20 200h-372v150h572l-22 -200v-1540z" />
    <glyph glyph-name="asciicircum" unicode="^" 
d="M1179 912h-201l-281 327l-45 111l-44 -109l-270 -327h-216l458 586l129 17z" />
    <glyph glyph-name="underscore" unicode="_" 
d="M100 -300h1100v-155h-1100v155z" />
    <glyph glyph-name="grave" unicode="`" 
d="M860 1200h-150l-225 300l204 20z" />
    <glyph glyph-name="a" unicode="a" 
d="M1110 0h-200v162l-94 -112q-17 -13 -43.5 -25t-56.5 -21.5t-61 -15t-59 -5.5q-75 0 -151 23.5t-137 69t-99.5 113t-38.5 155.5q0 93 39.5 160.5t103.5 111.5t146 65t166 21q95 0 165 -10.5t120 -29.5v43q0 59 -14.5 106t-45.5 79.5t-79.5 49.5t-115.5 17
q-63 0 -108.5 -7.5t-84.5 -16.5q-23 -5 -44 -11l-41 -12l-72 134q42 19 100 36q48 14 109.5 25.5t150.5 11.5q115 0 196 -31t132 -87t74 -134.5t23 -174.5v-510zM910 525l-60 8q-14 1 -37 3t-50 3l-53 2q-26 1 -45 1q-56 0 -110 -10t-96.5 -33t-69 -60.5t-26.5 -93.5
q0 -45 20 -82t53.5 -64t77 -41.5t90.5 -14.5q93 0 167 35.5t139 95.5v251z" />
    <glyph glyph-name="b" unicode="b" 
d="M390 171q19 -6 44 -11t53.5 -9t58 -6t58.5 -2q61 0 110.5 20t88.5 53.5t68 79t47.5 96t27.5 104.5t9 105q0 100 -26 168t-67 110t-90.5 60t-96.5 18q-79 0 -150.5 -30.5t-134.5 -81.5v-674zM210 1420l-20 180l200 20v-646l85 91q51 24 106.5 38t112.5 14q82 0 164 -34
t146.5 -100.5t105 -163.5t40.5 -223q0 -138 -45.5 -251t-122 -193.5t-177 -124.5t-210.5 -44q-63 0 -122.5 4.5t-110.5 12t-90.5 17t-61.5 18.5v1385z" />
    <glyph glyph-name="c" unicode="c" 
d="M1007 878q-39 35 -108 57t-175 22q-84 0 -150.5 -31.5t-113 -85.5t-71 -125.5t-24.5 -150.5q0 -82 23.5 -156.5t70 -131.5t115.5 -90.5t161 -33.5q52 0 100 12t87 28.5t66.5 33t39.5 26.5l72 -141q-15 -13 -45 -34.5t-76.5 -42.5t-110 -36t-147.5 -15q-125 0 -226.5 49.5
t-173.5 132t-111.5 189.5t-39.5 223q0 104 38.5 201.5t110.5 172.5t175 120.5t232 45.5q122 0 219.5 -28.5t160.5 -97.5z" />
    <glyph glyph-name="d" unicode="d" 
d="M746 940q-92 0 -167 -34.5t-128.5 -93.5t-82.5 -139t-29 -171q0 -89 25.5 -156t67 -112t93.5 -67.5t105 -22.5q47 0 89 16t78 40t65 52.5t49 53.5v634h-165zM911 0v162l-86 -113q-36 -24 -96 -45t-138 -21q-90 0 -170 32.5t-140 99t-95 169t-35 242.5q0 120 46.5 224.5
t126.5 182.5t188.5 122.5t232.5 44.5h166v520l180 -20v-1420l20 -180h-200z" />
    <glyph glyph-name="e" unicode="e" 
d="M1034 129q-31 -32 -68 -59t-82 -46.5t-99.5 -30t-121.5 -10.5q-133 0 -230 47t-160 126t-93 181t-30 213q0 71 14.5 140.5t42 132.5t69 117t96 93t121 61.5t145.5 22.5q108 0 195 -35t148 -98t94 -151.5t33 -194.5q0 -31 -2 -68t-6 -70h-760q0 -77 24 -142.5t65.5 -113
t98 -74.5t122.5 -27q64 0 109.5 9.5t77 23.5t52.5 30t36 30zM932 650v44q0 57 -22.5 105t-61 83.5t-89 55.5t-106.5 20q-67 0 -117.5 -21.5t-86.5 -55t-58 -73.5t-32 -76l-59 -114l185 32h447z" />
    <glyph glyph-name="f" unicode="f" 
d="M148 1100h252v155q0 85 34 152t92 113.5t136 71.5t166 25q45 0 91 -8t88.5 -20.5t78.5 -28.5t59 -31l-85 -118q-12 7 -36.5 15t-53 15t-58.5 11.5t-52 4.5q-43 0 -91.5 -11.5t-89 -37t-67.5 -66t-27 -97.5v-145h448l-20 -160h-423v-940h-190v940h-252v160z" />
    <glyph glyph-name="g" unicode="g" 
d="M910 135l-87 -110q-9 -6 -25.5 -13t-40.5 -13.5t-56 -11t-71 -4.5q-61 0 -120 20t-112.5 57t-98.5 88.5t-78.5 114t-52 134t-18.5 148.5q0 117 38 221t107 182t166 123.5t215 45.5q37 0 72.5 -3t66.5 -14l95 -142v162l180 -20v-1146q0 -98 -32 -184t-93 -149.5
t-150 -100.5t-203 -37q-79 0 -138.5 20t-101.5 44q-24 14 -45 30t-38 35l98 110q14 -11 30.5 -21t34.5 -19q31 -15 72 -27t89 -12q62 0 116 25.5t94.5 69.5t63.5 103.5t23 127.5v166zM910 834q-26 33 -63 61q-31 23 -75 42.5t-101 19.5q-60 0 -108 -19t-84.5 -51t-63 -74.5
t-43 -90t-24.5 -96t-8 -93.5q0 -85 26.5 -156.5t69.5 -123t98 -80.5t112 -29q51 0 91 11t72 29.5t56.5 42t44.5 48.5v559z" />
    <glyph glyph-name="h" unicode="h" 
d="M391 0h-180v1400l-20 200l200 20v-670l89 115q39 22 112 37t188 15q151 0 230.5 -99.5t79.5 -287.5v-730h-190v709q0 67 -11.5 114t-32.5 77t-52 43.5t-70 13.5q-60 0 -114.5 -12t-99.5 -30.5t-78.5 -40.5t-50.5 -41v-833z" />
    <glyph glyph-name="i" unicode="i" 
d="M711 393q0 -52 6.5 -96t21.5 -76t40 -50t62 -18q49 0 95.5 8t83.5 18.5t61.5 19.5t30.5 11l39 -154q-6 -3 -32 -15t-68 -24.5t-98 -23t-122 -10.5q-98 0 -158.5 32t-94.5 88.5t-45.5 133.5t-11.5 166v517l40 60l-140 -40h-201l-20 160h511v-707zM515 1500h202v-200h-202
v200z" />
    <glyph glyph-name="j" unicode="j" 
d="M695 1500h202v-200h-202v200zM741 980l-140 -40h-201l-20 160h511v-1197q0 -89 -11.5 -166t-45.5 -133.5t-94.5 -88.5t-158.5 -32q-66 0 -122 10.5t-98 23t-68 24.5t-32 15l39 154q6 -2 30.5 -11t61.5 -19.5t83 -18.5t96 -8q37 0 62 18t40 50t21.5 76t6.5 96v1027z" />
    <glyph glyph-name="k" unicode="k" 
d="M211 0v1420l-20 180l200 20v-930l390 410h229l-380 -410l-178 -63l178 -60l491 -567h-236l-494 557v-557h-180z" />
    <glyph glyph-name="l" unicode="l" 
d="M510 1420l40 60l-140 -40h-201l-20 160h501v-1224q0 -66 10 -110.5t27 -72t41 -39t52 -11.5q40 0 73.5 6t60 15t46 19t31.5 17l69 -121q-8 -7 -33 -23t-63.5 -32t-90 -28.5t-113.5 -12.5q-90 0 -147 33t-88.5 90t-43 132.5t-11.5 161.5v1020z" />
    <glyph glyph-name="m" unicode="m" 
d="M264 0h-178v1100l178 20v-183l32.5 62.5l17 33l6.5 12.5l2 3q9 9 25.5 21t40.5 22.5t55 18t70 7.5q56 0 92 -14.5t59 -40t36 -61.5t24 -78l63 120q10 9 32.5 22t52 24.5t62.5 19.5t65 8q76 0 120.5 -25.5t67 -73.5t29 -116t6.5 -152v-750h-178v740q0 54 -1.5 94.5t-12 68
t-33 41t-63.5 13.5q-20 0 -49 -12.5t-57.5 -32t-53 -44t-34.5 -49.5q0 -6 0.5 -19.5l1 -28t0.5 -27.5v-744h-179v720q0 54 -2 98t-12.5 74.5t-34 47.5t-66.5 17q-16 0 -41 -9t-51.5 -26.5t-51 -42t-40.5 -55.5v-824z" />
    <glyph glyph-name="n" unicode="n" 
d="M391 0h-180v1100l180 20v-193l61 117q18 12 42.5 25t59.5 23.5t83 17.5t113 7q79 0 142.5 -25.5t107 -73.5t67 -116t23.5 -152v-750h-180v750q0 54 -17.5 93t-48.5 64.5t-72 37.5t-87 12q-48 0 -92.5 -12t-82.5 -30.5t-68.5 -40t-50.5 -40.5v-834z" />
    <glyph glyph-name="o" unicode="o" 
d="M649 -17q-111 0 -203.5 43.5t-159.5 120t-104.5 180.5t-37.5 226q0 121 36 224.5t102 179t159.5 118t207.5 42.5q111 0 202 -42.5t156.5 -118t101.5 -179t36 -224.5q0 -122 -34.5 -226t-99 -180.5t-156.5 -120t-206 -43.5zM955 526q0 81 -17 159t-54 139.5t-96 99.5
t-143 38q-80 0 -139 -33t-97 -88t-56.5 -125t-18.5 -144q0 -81 18.5 -159t57 -139t99 -98.5t144.5 -37.5q79 0 136.5 33t94 87.5t54 124t17.5 143.5z" />
    <glyph glyph-name="p" unicode="p" 
d="M390 160h164q92 0 167 30.5t128 85.5t82 132t29 170q0 98 -27 169.5t-69 118t-93.5 69t-100.5 22.5t-91.5 -12.5t-78 -31.5t-63.5 -42t-47 -44v-667zM210 -500v1600l180 20v-176l95 127q29 17 82.5 31.5t131.5 14.5q83 0 164 -39t144.5 -111t103 -174t39.5 -228
q0 -123 -47.5 -226.5t-131 -179t-195.5 -117.5t-241 -42h-145v-500h-180z" />
    <glyph glyph-name="q" unicode="q" 
d="M911 935q-19 4 -44.5 8t-54 7t-58.5 5t-57 2q-92 0 -158 -39t-109 -101t-63.5 -139.5t-20.5 -153.5q0 -100 26.5 -172t67.5 -118.5t90.5 -68.5t95.5 -22q39 0 77 10.5t74 28t69.5 40.5t64.5 48v665zM911 136l-105 -107q-51 -24 -101 -35t-98 -11q-55 0 -110 16.5t-106 49
t-94.5 79t-76 107t-51 133t-18.5 156.5q0 138 44.5 248t120.5 186.5t175.5 117.5t209.5 41q63 0 124.5 -5.5t113.5 -13.5t92 -17t60 -16v-1565h-180v636z" />
    <glyph glyph-name="r" unicode="r" 
d="M391 895l91 158q28 21 64 34t74 19.5t76.5 8.5t73.5 2q75 0 128 -6.5t89.5 -16.5t58.5 -20.5t34 -18.5l50 -285l-150 -20l-50 178q-8 3 -25 6t-39 6t-46.5 5t-46.5 2q-68 0 -126 -15.5t-106 -42.5t-85.5 -63t-64.5 -76v-750h-180v1100l180 20v-225z" />
    <glyph glyph-name="s" unicode="s" 
d="M962 899q-19 9 -45.5 20.5t-59.5 21t-72.5 16t-84.5 6.5q-61 0 -119 -6t-103 -22t-72.5 -43t-27.5 -70q0 -36 27 -61.5t70.5 -44t98.5 -32t111 -25.5l108 -23.5t90 -25.5q44 -17 82.5 -43t67.5 -60.5t45.5 -76t16.5 -89.5q0 -65 -25 -116.5t-67.5 -91t-98.5 -68
t-118.5 -47t-127 -27t-123.5 -8.5q-34 0 -84.5 6.5t-103 18t-99.5 27.5t-73 34l66 142q24 -12 63 -24t82 -22t83.5 -16t67.5 -6q31 0 69.5 3.5t79 12t79 23t68.5 36.5t48.5 52t18.5 70q0 39 -26 66t-69 46t-96.5 32.5t-109.5 25.5t-108 24.5t-91 31.5q-57 27 -94.5 58.5
t-60 66.5t-31.5 73t-9 78q0 71 40.5 123t108.5 85.5t156 50t184 16.5q52 0 101.5 -6t93 -16t77.5 -22.5t54 -25.5z" />
    <glyph glyph-name="t" unicode="t" 
d="M571 376q0 -66 7.5 -110.5t22 -72t36 -39t49.5 -11.5q47 0 93 11t86 25.5t71 29t48 21.5l69 -121q-9 -8 -43.5 -28.5t-87 -42.5t-118.5 -38.5t-138 -16.5q-90 0 -144.5 33t-83.5 90t-38 132.5t-9 161.5v540h-291v160h291v209l175 111v-320h484l-20 -160h-459v-564z" />
    <glyph glyph-name="u" unicode="u" 
d="M931 1100l180 20v-1120h-180v180l-61 -107q-9 -11 -29 -26t-50 -29.5t-69 -24.5t-87 -10q-121 0 -202.5 37.5t-130.5 99.5t-70 143t-21 167v670l180 20v-690q0 -65 13 -117t44.5 -89t84 -56.5t130.5 -19.5q58 0 103 16.5t78.5 40t55 49.5t31.5 46v800z" />
    <glyph glyph-name="v" unicode="v" 
d="M1109 1120l-371 -1140l-206 20l-357 1100l183 20l239 -739l53 -232l50 232l234 719z" />
    <glyph glyph-name="w" unicode="w" 
d="M836 400l61 -250l11 330l130 620l162 20l-218 -1120h-147l-132 348l-56 402l-54 -400l-131 -350h-147l-215 1100l162 20l123 -640l21 -330l165 735h153z" />
    <glyph glyph-name="x" unicode="x" 
d="M962 0l-279 392l-45 118l-45 -118l-288 -392h-199l422 588l-368 512l211 20l255 -349l39 -111l38 111l236 329l211 20l-375 -537l412 -583h-225z" />
    <glyph glyph-name="y" unicode="y" 
d="M712 364l269 736l180 20l-404 -1137q-30 -84 -64.5 -167t-78 -149t-98 -106.5t-124.5 -40.5q-56 0 -103 22t-89 58l73 117q6 -6 15.5 -14t21 -15.5t25 -12.5t27.5 -5q36 0 65.5 25.5t55 66.5t47 91l41.5 100l-407 1147l190 20l264 -756l52 -232z" />
    <glyph glyph-name="z" unicode="z" 
d="M1100 160l20 -160h-919l-20 50l503 776l192 154l-245 -40h-363l-20 160h784l20 -49l-489 -771l-191 -160l165 40h563z" />
    <glyph glyph-name="braceleft" unicode="{" 
d="M228 625h122q49 7 78.5 27t45.5 52t21 76t5 100v239q0 85 15.5 158t53.5 126t101.5 83.5t159.5 30.5q46 0 78.5 -3t58 -9t46 -14.5t41.5 -18.5l-63 -123q-19 11 -51.5 19t-57.5 8h-13q-54 -4 -87.5 -22.5t-51.5 -51t-24 -79t-6 -104.5v-239q0 -104 -24 -190t-83 -140
q30 -27 50 -62.5t33 -78t18.5 -90.5t5.5 -99v-240q0 -59 6 -105t24 -78.5t51.5 -51t87.5 -22.5h13q25 0 57.5 8t51.5 19l63 -123q-21 -10 -41.5 -18.5t-46 -15t-58 -10t-78.5 -3.5q-96 0 -159.5 30.5t-101.5 84.5t-53.5 127t-15.5 158v240q0 55 -5 99.5t-21 76.5t-45.5 52
t-78.5 27h-122v150z" />
    <glyph glyph-name="bar" unicode="|" 
d="M700 1520v-1920h-200v1900z" />
    <glyph glyph-name="braceright" unicode="}" 
d="M1072 625v-150h-122q-49 -7 -78.5 -27t-45.5 -52t-21 -76.5t-5 -99.5v-240q0 -85 -15.5 -158t-53.5 -127t-101.5 -84.5t-159.5 -30.5q-46 0 -78.5 3.5t-58 10t-46 15t-41.5 18.5l63 123q19 -11 51.5 -19t57.5 -8h13q54 4 87.5 22.5t51.5 51t24 78.5t6 105v240
q0 51 5.5 99t18.5 90.5t33 78t50 62.5q-59 54 -83 140t-24 190v239q0 58 -6 104.5t-24 79t-51.5 51t-87.5 22.5h-13q-25 0 -57.5 -8t-51.5 -19l-63 123q21 10 41.5 18.5t46 14.5t58 9t78.5 3q96 0 159.5 -30.5t101.5 -83.5t53.5 -126t15.5 -158v-239q0 -56 5 -100t21 -76
t45.5 -52t78.5 -27h122z" />
    <glyph glyph-name="asciitilde" unicode="~" 
d="M133 484q11 56 42.5 113.5t76.5 103.5t101 75t118 29q45 0 81 -13.5t65.5 -33t55.5 -43t53 -43t56 -33t65 -13.5t65 15t50 38.5t35.5 53t22.5 59.5l146 -16q-10 -62 -39.5 -125t-74.5 -114t-104 -83t-126 -32q-36 0 -68 13.5t-61.5 33t-58 43t-58 43t-61.5 33t-68 13.5
q-31 0 -57.5 -11t-47.5 -29.5t-36 -42.5t-24 -50z" />
    <glyph glyph-name="nonbreakingspace" unicode="&#xa0;" 
 />
    <glyph glyph-name="exclamdown" unicode="&#xa1;" 
d="M395 -400v1071l210 -21v-1050h-210zM378 994q0 25 9.5 47.5t26 39t38.5 26.5t48 10q25 0 47 -10t38 -26.5t25.5 -39t9.5 -47.5t-9.5 -47t-26 -38.5t-38.5 -26t-47 -9.5t-47 9.5t-38.5 26t-26 38.5t-9.5 47z" />
    <glyph glyph-name="cent" unicode="&#xa2;" 
d="M873 1320v-207q54 -8 97 -25q73 -28 136 -97l-99 -113q-39 34 -93 57l-27 9.5t-27 6.5v-798q24 2 45 6t40 11q54 18 83 38l72 -141q-28 -19 -60.5 -34.5t-70.5 -26.5q-22 -7 -46 -12t-50 -7v-187h-146v188q-18 0 -44.5 3.5t-54.5 9.5t-54 14t-42 16q-71 36 -123.5 93.5
t-88 129.5t-53 154.5t-17.5 168.5q0 79 17 153.5t52 139t88 116t124 85.5q16 8 42 15.5t54.5 13t55 9t44.5 3.5v188zM611 925q-44 -23 -75.5 -60t-51.5 -84t-29.5 -102t-9.5 -115q0 -62 8.5 -119.5t28 -106.5t51.5 -88t78 -65q17 -9 50 -18t78 -9v794q-45 0 -78 -8.5
t-50 -18.5z" />
    <glyph glyph-name="sterling" unicode="&#xa3;" 
d="M350 850h161l45 315q11 76 33 141t59.5 111.5t92 73t131.5 26.5q51 0 93.5 -6.5t78.5 -23.5q37 -17 62 -31.5t39 -27.5l-90 -101q-69 45 -136 45q-49 0 -81.5 -15.5t-53 -45.5t-32 -73t-18.5 -97l-41 -291h207l-20 -150h-208q-56 -437 -84 -476l-88 -120l162 43h438v-147
h-946l20 147h138q35 0 74 50q40 50 104 503h-140v150z" />
    <glyph glyph-name="yen" unicode="&#xa5;" 
d="M100 550h395v95l-28 55h-367v150h290l-331 650l204 20l288 -566l79 -249l30 230l288 565h192l-331 -650h291v-150h-368l-27 -54v-96h395v-150h-395v-400h-210v400h-395v150z" />
    <glyph glyph-name="section" unicode="&#xa7;" 
d="M872 1351q-48 26 -100 34t-109 8q-49 0 -93 -11t-77.5 -35t-53 -61t-19.5 -89q0 -50 23.5 -89t62.5 -72.5t88 -64l101 -63t101 -70t88 -84t62.5 -105t23.5 -134.5q0 -94 -35.5 -156.5t-98.5 -101.5q-20 -13 -42.5 -23t-47.5 -18l32 -24q36 -27 67.5 -58t54.5 -65.5
t36.5 -74t13.5 -82.5q0 -77 -27 -138.5t-78 -104.5t-125.5 -66t-168.5 -23q-83 0 -151.5 15.5t-135.5 56.5l60 97q48 -26 100 -34t109 -8q49 0 93 11t77.5 35t53 61t19.5 89q0 50 -23.5 89t-62.5 72.5t-88 64l-101 63t-101 70t-88 84t-62.5 105t-23.5 134.5q0 94 36 156.5
t97 100.5q42 26 90 41l-31 24q-36 28 -67.5 59t-54.5 65.5t-36.5 73.5t-13.5 83q0 77 27 138t78 103.5t125 65t169 22.5q82 0 151 -14t136 -55zM485 767q-37 -30 -58 -75t-21 -105q0 -38 13.5 -72t36.5 -65t54.5 -59.5t67.5 -54.5l62 -45q41 17 71 41q37 31 58 76t21 105
q0 37 -13.5 71.5t-36.5 65.5t-54.5 59t-67.5 54l-63 45q-37 -14 -70 -41z" />
    <glyph glyph-name="dieresis" unicode="&#xa8;" 
d="M300 1500h200v-200h-200v200zM700 1500h200v-200h-200v200z" />
    <glyph glyph-name="copyright" unicode="&#xa9;" 
d="M650 1517q97 0 182.5 -37t149.5 -101t101 -149.5t37 -182.5q0 -98 -37 -183.5t-101 -149t-149.5 -100.5t-182.5 -37t-182.5 37t-149.5 100.5t-101 149t-37 183.5q0 97 37 182.5t101 149.5t149.5 101t182.5 37zM650 663q78 0 147.5 30.5t122 82.5t83.5 122t31 149t-30 149
t-82.5 122.5t-122.5 82.5t-149 30q-80 0 -149.5 -30t-122 -82.5t-82.5 -122.5t-30 -149q0 -78 30.5 -147.5t82.5 -122t122 -83.5t149 -31zM810 1197q-19 16 -53.5 26t-87.5 10q-42 0 -75.5 -14.5t-56.5 -38.5t-35.5 -56.5t-12.5 -67.5q0 -37 12 -70.5t35 -59t57.5 -41
t80.5 -15.5q26 0 50 5.5t43.5 13t33.5 15t20 11.5l36 -63q-8 -6 -23 -15.5t-38 -19t-55 -16.5t-74 -7q-62 0 -113 22.5t-87 59.5t-55.5 85t-19.5 101q0 46 19 90t55 78t87.5 54.5t116.5 20.5q61 0 109.5 -13t80.5 -44z" />
    <glyph glyph-name="ordfeminine" unicode="&#xaa;" 
d="M200 800h400v-100h-400v100zM600 959h-100v81l-47 -56q-9 -7 -22 -13t-28 -10.5t-30.5 -7.5t-29.5 -3q-38 0 -76 12t-68.5 34.5t-49.5 56.5t-19 78q0 46 19.5 80t51.5 56t73 32.5t83 10.5q48 0 83 -5.5t60 -14.5v21q0 30 -7.5 53.5t-23 39.5t-39.5 24.5t-58 8.5
q-31 0 -54 -3.5t-42 -8.5q-12 -2 -22.5 -5l-20.5 -6l-36 67q21 9 50 18q24 7 55 12.5t75 5.5q58 0 98.5 -15.5t66 -43.5t37 -67t11.5 -87v-255zM500 1221l-30 4q-7 1 -18.5 2t-25 1.5l-26.5 1t-23 0.5q-28 0 -55 -5t-48 -16.5t-34.5 -30.5t-13.5 -47q0 -22 10 -40.5t27 -32
t38.5 -21t45.5 -7.5q46 0 83 18t70 48v125z" />
    <glyph glyph-name="guillemotleft" unicode="&#xab;" 
d="M570 1026l50 -125l-325 -291l-138 -60l137 -60l328 -289l-54 -135l-468 412v139zM1070 1026l50 -125l-325 -291l-138 -60l137 -60l328 -289l-54 -135l-468 412v139z" />
    <glyph glyph-name="logicalnot" unicode="&#xac;" 
d="M1217 800l-17 -211v-309h-200v169l16 191h-904v160h1105z" />
    <glyph glyph-name="registered" unicode="&#xae;" 
d="M650 1517q97 0 182.5 -37t149.5 -101t101 -149.5t37 -182.5q0 -98 -37 -183.5t-101 -149t-149.5 -100.5t-182.5 -37t-182.5 37t-149.5 100.5t-101 149t-37 183.5q0 97 37 182.5t101 149.5t149.5 101t182.5 37zM650 663q78 0 147.5 30.5t122 82.5t83.5 122t31 149t-30 149
t-82.5 122.5t-122.5 82.5t-149 30q-80 0 -149.5 -30t-122 -82.5t-82.5 -122.5t-30 -149q0 -78 30.5 -147.5t82.5 -122t122 -83.5t149 -31zM574 1017v-217h-74v422l-12 70q11 2 27.5 3.5t34.5 2.5t36 1.5t33 0.5q90 0 135.5 -30t45.5 -102q0 -37 -8.5 -62t-26 -41
t-43.5 -25.5t-60 -15.5l50 -15l157 -209h-79l-157 210q-3 5 -8 6t-8 1h-43zM574 1171v-101h53q63 0 85 23.5t22 68.5q0 30 -8.5 48t-23 27.5t-33.5 12t-41 2.5q-15 0 -32 -1t-29 -3z" />
    <glyph glyph-name="macron" unicode="&#xaf;" 
d="M300 1500h700v-150h-700v150z" />
    <glyph glyph-name="degree" unicode="&#xb0;" 
d="M500 1517q56 0 105 -21t85.5 -58t57.5 -86t21 -105t-21 -105t-57.5 -85.5t-85.5 -58t-105 -21.5t-105 21.5t-85.5 58t-57.5 85.5t-21 105t21 105t57.5 86t85.5 58t105 21zM500 1088q33 0 62 12.5t50.5 34t34 50.5t12.5 62t-12.5 62t-34 50.5t-50.5 34t-62 12.5t-62 -12.5
t-50.5 -34t-34 -50.5t-12.5 -62t12.5 -62t34 -50.5t50.5 -34t62 -12.5z" />
    <glyph glyph-name="plusminus" unicode="&#xb1;" 
d="M200 862h373v337h155v-337h372v-124h-372v-338h-155v338h-373v124zM200 290h900v-140h-900v140z" />
    <glyph glyph-name="acute" unicode="&#xb4;" 
d="M600 1500l230 20l-240 -320h-150z" />
    <glyph glyph-name="mu" unicode="&#xb5;" 
d="M1242 36q-9 -9 -28 -18t-43 -17t-51 -13t-52 -5q-92 0 -156 43t-87 129l-25 -69q-42 -46 -113.5 -74.5t-168.5 -28.5q-19 0 -44 1.5t-51 6t-49.5 13t-38.5 21.5l45 -191v-334h-180v1600l180 18v-770q0 -41 11 -79.5t34.5 -68.5t59 -48.5t84.5 -18.5q32 0 63 9.5t60 24.5
t56 34.5t52 39.5v859l178 18v-766q0 -60 7.5 -102t21 -68t33.5 -37.5t46 -11.5q24 0 47 4.5t44 12.5z" />
    <glyph glyph-name="paragraph" unicode="&#xb6;" 
d="M630 647q-74 4 -127 19t-96 36q-72 35 -115 81.5t-66.5 100t-31 112t-7.5 116.5q0 105 42 177t107.5 117.5t143.5 67.5t150 26h472v-1900h-169v1748h-134v-1748h-169v1047z" />
    <glyph glyph-name="periodcentered" unicode="&#xb7;" 
d="M136 650q0 34 13 64t35.5 52.5t52 35.5t63.5 13t64 -13t52.5 -35.5t35.5 -52.5t13 -64t-13 -64.5t-35 -53t-51.5 -36t-63.5 -13.5t-64.5 13.5t-53 36t-35.5 53t-13 64.5z" />
    <glyph glyph-name="cedilla" unicode="&#xb8;" 
d="M824 0q23 -27 41 -59q16 -27 29 -63t13 -76q0 -44 -18.5 -82t-49.5 -66.5t-71.5 -44.5t-84.5 -16q-50 0 -96.5 13.5t-83.5 30.5q-43 19 -81 45l71 100q26 -18 54 -31q24 -11 53.5 -20.5t58.5 -9.5q37 0 66 24t29 66q0 33 -16.5 66.5t-36.5 60.5q-24 32 -53 62h176z" />
    <glyph glyph-name="ordmasculine" unicode="&#xba;" 
d="M230 800h400v-100h-400v100zM424 950q-55 0 -101.5 22t-80 60t-52 90t-18.5 113t18 112.5t51 89.5t79.5 59t103.5 21q56 0 101.5 -21t78 -59t50.5 -89.5t18 -112.5t-17 -113t-49.5 -90t-78.5 -60t-103 -22zM577 1222q0 40 -8.5 79t-27 70t-48 50t-71.5 19
q-40 0 -69.5 -16.5t-48.5 -44t-28 -62.5t-9 -72q0 -41 9 -80t28.5 -69.5t49.5 -49t72 -18.5q40 0 68.5 16.5t47 43.5t27 62t8.5 72z" />
    <glyph glyph-name="guillemotright" unicode="&#xbb;" 
d="M700 617v-139l-468 -412l-54 135l328 289l137 60l-138 60l-325 291l50 125zM1200 617v-139l-468 -412l-54 135l328 289l137 60l-138 60l-325 291l50 125z" />
    <glyph glyph-name="questiondown" unicode="&#xbf;" 
d="M207 -44q0 63 17 113t44.5 91t63 76t73 68.5t73 68.5t63 75.5t44.5 90t17 111.5l210 21q0 -89 -17 -157t-44.5 -120.5t-63 -93t-73 -74l-73 -63.5t-63 -62t-44.5 -69t-17 -84q0 -52 20 -90t54.5 -62t81 -35.5t99.5 -11.5q38 0 78.5 11t79 32t74 51t63.5 67l133 -110
q-49 -66 -106.5 -108.5t-117 -66.5t-118 -33t-111.5 -9q-85 0 -164 22.5t-140.5 68t-98.5 116t-37 166.5zM829 994q0 -25 -9.5 -47t-26 -38.5t-38.5 -26t-47 -9.5t-47 9.5t-38.5 26t-26 38.5t-9.5 47t9.5 47.5t25.5 39t38 26.5t47 10q26 0 48 -10t38.5 -26.5t26 -39
t9.5 -47.5z" />
    <glyph glyph-name="Agrave" unicode="&#xc0;" 
d="M32 0l472 1300l35 200l178 20l548 -1520h-200l-148 450h-535l-166 -450h-184zM645 1400l-45 -320l-169 -480h437l-178 480zM716 1600h-150l-225 300l204 20z" />
    <glyph glyph-name="Aacute" unicode="&#xc1;" 
d="M32 0l472 1300l35 200l178 20l548 -1520h-200l-148 450h-535l-166 -450h-184zM645 1400l-45 -320l-169 -480h437l-178 480zM700 1900l230 20l-240 -320h-150z" />
    <glyph glyph-name="Acircumflex" unicode="&#xc2;" 
d="M32 0l472 1300l35 200l178 20l548 -1520h-200l-148 450h-535l-166 -450h-184zM645 1400l-45 -320l-169 -480h437l-178 480zM920 1620h-150l-100 152l-30 88l-30 -87l-101 -153h-150l176 280l200 20z" />
    <glyph glyph-name="Atilde" unicode="&#xc3;" 
d="M32 0l472 1300l35 200l178 20l548 -1520h-200l-148 450h-535l-166 -450h-184zM645 1400l-45 -320l-169 -480h437l-178 480zM324 1655q4 40 19.5 78t40 67t55.5 46.5t67 17.5q39 0 73 -14t65 -31t61 -31t61 -14q21 0 37 10.5t27 26t18 34.5t10 37l96 -4q-3 -44 -19.5 -85
t-42 -72.5t-60 -50.5t-73.5 -19q-32 0 -63 14t-63 30.5t-65 30.5t-68 14q-18 0 -32.5 -8t-26 -21t-19.5 -28.5t-12 -30.5z" />
    <glyph glyph-name="Adieresis" unicode="&#xc4;" 
d="M32 0l472 1300l35 200l178 20l548 -1520h-200l-148 450h-535l-166 -450h-184zM645 1400l-45 -320l-169 -480h437l-178 480zM339 1800h200v-200h-200v200zM739 1800h200v-200h-200v200z" />
    <glyph glyph-name="Aring" unicode="&#xc5;" 
d="M640 1879q49 0 92 -18.5t75.5 -51t51 -75.5t18.5 -92t-18.5 -93t-50.5 -77q-25 -27 -58 -44l515 -1428h-200l-148 450h-535l-166 -450h-184l472 1300l23 131q-30 17 -54 41q-33 33 -52 77t-19 93t19 92t51 75.5t75.5 51t92.5 18.5zM645 1400l-45 -320l-169 -480h437
l-178 480zM641 1518q25 0 47 10t38 26.5t25.5 39t9.5 47.5t-9.5 47t-26 38.5t-38.5 26t-47 9.5t-47 -9.5t-38.5 -26t-26 -38.5t-9.5 -47t9.5 -47.5t26 -39t39 -26.5t47.5 -10z" />
    <glyph glyph-name="AE" unicode="&#xc6;" 
d="M1335 160l-20 -160h-636l16 200v250h-295l-154 -450h-217l450 1300l44 200h777v-160h-418l22 -191v-264h325v-145h-325v-400l-10 -180h441zM695 599v507l-41 234l-53 -241l-160 -500h254z" />
    <glyph glyph-name="Ccedilla" unicode="&#xc7;" 
d="M1137 104q-41 -33 -83 -56t-88 -37.5t-97 -20.5q-19 -3 -40 -4q17 -21 30 -45q16 -27 29 -63t13 -76q0 -44 -18.5 -82t-49.5 -66.5t-71.5 -44.5t-84.5 -16q-50 0 -96.5 13.5t-83.5 30.5q-43 19 -81 45l71 100q26 -18 54 -31q24 -11 53.5 -20.5t58.5 -9.5q37 0 66 24
t29 66q0 33 -16.5 66.5t-36.5 60.5q-21 28 -46 55q-38 7 -73 18q-87 29 -161.5 80.5t-134.5 123.5t-102 159.5t-65 187.5t-23 208q0 151 43 286.5t128 238t210.5 162.5t290.5 60q115 0 207.5 -36.5t164.5 -105.5l-90 -107q-24 16 -51 30.5t-59.5 25.5t-71 17.5t-84.5 6.5
q-122 0 -212.5 -46t-150.5 -124.5t-89.5 -183t-29.5 -221.5q0 -73 15 -147t43.5 -143t70.5 -129t96.5 -105t120.5 -70.5t143 -25.5q45 0 79 4t64.5 13t61.5 23.5t70 36.5z" />
    <glyph glyph-name="Egrave" unicode="&#xc8;" 
d="M1135 160l-20 -160h-920l15 200v1090l-30 210h920v-160h-725l20 -190v-265h635v-145h-635v-400l-10 -180h750zM760 1600h-150l-225 300l204 20z" />
    <glyph glyph-name="Eacute" unicode="&#xc9;" 
d="M1135 160l-20 -160h-920l15 200v1090l-30 210h920v-160h-725l20 -190v-265h635v-145h-635v-400l-10 -180h750zM650 1900l230 20l-240 -320h-150z" />
    <glyph glyph-name="Ecircumflex" unicode="&#xca;" 
d="M1135 160l-20 -160h-920l15 200v1090l-30 210h920v-160h-725l20 -190v-265h635v-145h-635v-400l-10 -180h750zM930 1620h-150l-100 152l-30 88l-30 -87l-101 -153h-150l176 280l200 20z" />
    <glyph glyph-name="Edieresis" unicode="&#xcb;" 
d="M1135 160l-20 -160h-920l15 200v1090l-30 210h920v-160h-725l20 -190v-265h635v-145h-635v-400l-10 -180h750zM350 1800h200v-200h-200v200zM750 1800h200v-200h-200v200z" />
    <glyph glyph-name="Igrave" unicode="&#xcc;" 
d="M206 1500h900v-160h-358v-1180h378l-20 -160h-900v160h356v1180h-376zM738 1600h-150l-225 300l204 20z" />
    <glyph glyph-name="Iacute" unicode="&#xcd;" 
d="M206 1500h900v-160h-358v-1180h378l-20 -160h-900v160h356v1180h-376zM615 1900l230 20l-240 -320h-150z" />
    <glyph glyph-name="Icircumflex" unicode="&#xce;" 
d="M206 1500h900v-160h-358v-1180h378l-20 -160h-900v160h356v1180h-376zM941 1624h-150l-100 152l-30 88l-30 -87l-101 -153h-150l176 280l200 20z" />
    <glyph glyph-name="Idieresis" unicode="&#xcf;" 
d="M206 1500h900v-160h-358v-1180h378l-20 -160h-900v160h356v1180h-376zM357 1900h200v-200h-200v200zM757 1900h200v-200h-200v200z" />
    <glyph glyph-name="Ntilde" unicode="&#xd1;" 
d="M945 0l-495 948l-159 413l-6 -1l65 -440v-920h-180v1290l-30 210l201 20l496 -963l166 -417l6 1l-79 439v920l180 20v-1520h-165zM387 1655q4 40 19.5 78t40 67t55.5 46.5t67 17.5q39 0 73 -14t65 -31t61 -31t61 -14q21 0 37 10.5t27 26t18 34.5t10 37l96 -4
q-3 -44 -19.5 -85t-42 -72.5t-60 -50.5t-73.5 -19q-32 0 -63 14t-63 30.5t-65 30.5t-68 14q-18 0 -32.5 -8t-26 -21t-19.5 -28.5t-12 -30.5z" />
    <glyph glyph-name="Ograve" unicode="&#xd2;" 
d="M624 -17q-90 0 -165.5 27.5t-137 78t-107.5 120.5t-77.5 155.5t-47 183t-15.5 202.5t15 202.5t45.5 183t76 155.5t106.5 120.5t138 78t169 27.5q90 0 165.5 -27.5t137 -78t107.5 -120.5t77.5 -155.5t47 -183t15.5 -202.5t-15 -202.5t-45.5 -183t-76 -155.5t-106.5 -120.5
t-138 -78t-169 -27.5zM966 719q0 70 -4.5 143t-18 142.5t-37.5 131t-62.5 107t-94 72.5t-131.5 27q-72 0 -125 -24t-90 -65.5t-61 -97t-37 -117.5t-18 -127t-5 -126q0 -71 4.5 -145t18 -143.5t37.5 -131t63 -107.5t94 -73t131 -27q71 0 123.5 24.5t90 67t61.5 98t37.5 118
t18.5 127.5t5 126zM760 1600h-150l-225 300l204 20z" />
    <glyph glyph-name="Oacute" unicode="&#xd3;" 
d="M624 -17q-90 0 -165.5 27.5t-137 78t-107.5 120.5t-77.5 155.5t-47 183t-15.5 202.5t15 202.5t45.5 183t76 155.5t106.5 120.5t138 78t169 27.5q90 0 165.5 -27.5t137 -78t107.5 -120.5t77.5 -155.5t47 -183t15.5 -202.5t-15 -202.5t-45.5 -183t-76 -155.5t-106.5 -120.5
t-138 -78t-169 -27.5zM966 719q0 70 -4.5 143t-18 142.5t-37.5 131t-62.5 107t-94 72.5t-131.5 27q-72 0 -125 -24t-90 -65.5t-61 -97t-37 -117.5t-18 -127t-5 -126q0 -71 4.5 -145t18 -143.5t37.5 -131t63 -107.5t94 -73t131 -27q71 0 123.5 24.5t90 67t61.5 98t37.5 118
t18.5 127.5t5 126zM600 1900l230 20l-240 -320h-150z" />
    <glyph glyph-name="Ocircumflex" unicode="&#xd4;" 
d="M623 -17q-90 0 -165.5 27.5t-137 78t-107.5 120.5t-77.5 155.5t-47 183t-15.5 202.5t15 202.5t45.5 183t76 155.5t106.5 120.5t138 78t169 27.5q90 0 165.5 -27.5t137 -78t107.5 -120.5t77.5 -155.5t47 -183t15.5 -202.5t-15 -202.5t-45.5 -183t-76 -155.5t-106.5 -120.5
t-138 -78t-169 -27.5zM965 719q0 70 -4.5 143t-18 142.5t-37.5 131t-62.5 107t-94 72.5t-131.5 27q-72 0 -125 -24t-90 -65.5t-61 -97t-37 -117.5t-18 -127t-5 -126q0 -71 4.5 -145t18 -143.5t37.5 -131t63 -107.5t94 -73t131 -27q71 0 123.5 24.5t90 67t61.5 98t37.5 118
t18.5 127.5t5 126zM880 1620h-150l-100 152l-30 88l-30 -87l-101 -153h-150l176 280l200 20z" />
    <glyph glyph-name="Otilde" unicode="&#xd5;" 
d="M624 -17q-90 0 -165.5 27.5t-137 78t-107.5 120.5t-77.5 155.5t-47 183t-15.5 202.5t15 202.5t45.5 183t76 155.5t106.5 120.5t138 78t169 27.5q90 0 165.5 -27.5t137 -78t107.5 -120.5t77.5 -155.5t47 -183t15.5 -202.5t-15 -202.5t-45.5 -183t-76 -155.5t-106.5 -120.5
t-138 -78t-169 -27.5zM966 719q0 70 -4.5 143t-18 142.5t-37.5 131t-62.5 107t-94 72.5t-131.5 27q-72 0 -125 -24t-90 -65.5t-61 -97t-37 -117.5t-18 -127t-5 -126q0 -71 4.5 -145t18 -143.5t37.5 -131t63 -107.5t94 -73t131 -27q71 0 123.5 24.5t90 67t61.5 98t37.5 118
t18.5 127.5t5 126zM287 1655q4 40 19.5 78t40 67t55.5 46.5t67 17.5q39 0 73 -14t65 -31t61 -31t61 -14q21 0 37 10.5t27 26t18 34.5t10 37l96 -4q-3 -44 -19.5 -85t-42 -72.5t-60 -50.5t-73.5 -19q-32 0 -63 14t-63 30.5t-65 30.5t-68 14q-18 0 -32.5 -8t-26 -21
t-19.5 -28.5t-12 -30.5z" />
    <glyph glyph-name="Odieresis" unicode="&#xd6;" 
d="M624 -17q-90 0 -165.5 27.5t-137 78t-107.5 120.5t-77.5 155.5t-47 183t-15.5 202.5t15 202.5t45.5 183t76 155.5t106.5 120.5t138 78t169 27.5q90 0 165.5 -27.5t137 -78t107.5 -120.5t77.5 -155.5t47 -183t15.5 -202.5t-15 -202.5t-45.5 -183t-76 -155.5t-106.5 -120.5
t-138 -78t-169 -27.5zM966 719q0 70 -4.5 143t-18 142.5t-37.5 131t-62.5 107t-94 72.5t-131.5 27q-72 0 -125 -24t-90 -65.5t-61 -97t-37 -117.5t-18 -127t-5 -126q0 -71 4.5 -145t18 -143.5t37.5 -131t63 -107.5t94 -73t131 -27q71 0 123.5 24.5t90 67t61.5 98t37.5 118
t18.5 127.5t5 126zM300 1800h200v-200h-200v200zM700 1800h200v-200h-200v200z" />
    <glyph glyph-name="Oslash" unicode="&#xd8;" 
d="M650 -17q-90 0 -166 27q-42 15 -79 38l-74 -148h-210l140 278q-11 15 -21 31q-46 70 -77.5 155.5t-47 183t-15.5 202.5t15 202.5t45.5 183t76 155.5t106.5 120.5t138 78t169 27.5q90 0 165 -28q47 -17 88 -42l77 153h200l-140 -281l20 -28q46 -70 77.5 -155.5t47 -183
t15.5 -202.5t-15 -202.5t-45.5 -183t-76 -155.5t-106.5 -120.5t-138 -78t-169 -27.5zM775 1315q-55 27 -131 27q-72 0 -125 -24t-90 -65.5t-61 -97t-37 -117.5t-18 -127t-5 -126q0 -71 4.5 -145t17.5 -144q12 -62 33 -118l459 909q-22 16 -47 28zM992 719q0 70 -4.5 143
t-18.5 142q-11 60 -30 113l-454 -909q19 -13 40 -23q55 -27 131 -27q71 0 123.5 24.5t90 67t61.5 98t37.5 118t18.5 127.5t5 126z" />
    <glyph glyph-name="Ugrave" unicode="&#xd9;" 
d="M1115 1500v-977q0 -136 -32.5 -237.5t-94 -168.5t-150.5 -100.5t-203 -33.5q-122 0 -207.5 42.5t-139.5 120t-78.5 186.5t-24.5 241v717l-30 210l220 20v-966q0 -95 18.5 -169.5t53.5 -126t85 -78.5t113 -27q147 0 213.5 87.5t66.5 263.5v996h190zM760 1600h-150
l-225 300l204 20z" />
    <glyph glyph-name="Uacute" unicode="&#xda;" 
d="M1115 1500v-977q0 -136 -32.5 -237.5t-94 -168.5t-150.5 -100.5t-203 -33.5q-122 0 -207.5 42.5t-139.5 120t-78.5 186.5t-24.5 241v717l-30 210l220 20v-966q0 -95 18.5 -169.5t53.5 -126t85 -78.5t113 -27q147 0 213.5 87.5t66.5 263.5v996h190zM700 1900l230 20
l-240 -320h-150z" />
    <glyph glyph-name="Ucircumflex" unicode="&#xdb;" 
d="M1115 1500v-977q0 -136 -32.5 -237.5t-94 -168.5t-150.5 -100.5t-203 -33.5q-122 0 -207.5 42.5t-139.5 120t-78.5 186.5t-24.5 241v717l-30 210l220 20v-966q0 -95 18.5 -169.5t53.5 -126t85 -78.5t113 -27q147 0 213.5 87.5t66.5 263.5v996h190zM930 1620h-150
l-100 152l-30 88l-30 -87l-101 -153h-150l176 280l200 20z" />
    <glyph glyph-name="Udieresis" unicode="&#xdc;" 
d="M1115 1500v-977q0 -136 -32.5 -237.5t-94 -168.5t-150.5 -100.5t-203 -33.5q-122 0 -207.5 42.5t-139.5 120t-78.5 186.5t-24.5 241v717l-30 210l220 20v-966q0 -95 18.5 -169.5t53.5 -126t85 -78.5t113 -27q147 0 213.5 87.5t66.5 263.5v996h190zM350 1800h200v-200
h-200v200zM750 1800h200v-200h-200v200z" />
    <glyph glyph-name="germandbls" unicode="&#xdf;" 
d="M790 1148q0 46 -13.5 86t-38.5 70t-60 47.5t-78 17.5q-32 0 -54.5 -4t-40.5 -12.5t-33.5 -20.5t-31.5 -28q-27 -27 -33.5 -63t-6.5 -81v-1177l-208 17v1111q0 194 116 301q28 26 58 46t65.5 33t77 19.5t94.5 6.5q51 0 90.5 -7t72.5 -21t60.5 -35t54.5 -49
q22 -23 40.5 -47.5t31.5 -52.5t20.5 -61t7.5 -75q0 -109 -52 -188t-139 -121l-154 -44l147 -14q61 -18 115.5 -46.5t95.5 -69.5t64.5 -97t23.5 -129q0 -128 -45 -215.5t-117.5 -142t-164 -78.5t-185.5 -24l-60 160q99 0 169.5 14.5t115.5 48t66 89t21 138.5q0 150 -84.5 215
t-247.5 65l-70 155q64 0 120.5 14.5t98.5 46t66.5 81.5t24.5 121z" />
    <glyph glyph-name="agrave" unicode="&#xe0;" 
d="M1110 0h-200v162l-94 -112q-17 -13 -43.5 -25t-56.5 -21.5t-61 -15t-59 -5.5q-75 0 -151 23.5t-137 69t-99.5 113t-38.5 155.5q0 93 39.5 160.5t103.5 111.5t146 65t166 21q95 0 165 -10.5t120 -29.5v43q0 59 -14.5 106t-45.5 79.5t-79.5 49.5t-115.5 17
q-63 0 -108.5 -7.5t-84.5 -16.5q-23 -5 -44 -11l-41 -12l-72 134q42 19 100 36q48 14 109.5 25.5t150.5 11.5q115 0 196 -31t132 -87t74 -134.5t23 -174.5v-510zM910 525l-60 8q-14 1 -37 3t-50 3l-53 2q-26 1 -45 1q-56 0 -110 -10t-96.5 -33t-69 -60.5t-26.5 -93.5
q0 -45 20 -82t53.5 -64t77 -41.5t90.5 -14.5q93 0 167 35.5t139 95.5v251zM860 1200h-150l-225 300l204 20z" />
    <glyph glyph-name="aacute" unicode="&#xe1;" 
d="M1110 0h-200v162l-94 -112q-17 -13 -43.5 -25t-56.5 -21.5t-61 -15t-59 -5.5q-75 0 -151 23.5t-137 69t-99.5 113t-38.5 155.5q0 93 39.5 160.5t103.5 111.5t146 65t166 21q95 0 165 -10.5t120 -29.5v43q0 59 -14.5 106t-45.5 79.5t-79.5 49.5t-115.5 17
q-63 0 -108.5 -7.5t-84.5 -16.5q-23 -5 -44 -11l-41 -12l-72 134q42 19 100 36q48 14 109.5 25.5t150.5 11.5q115 0 196 -31t132 -87t74 -134.5t23 -174.5v-510zM910 525l-60 8q-14 1 -37 3t-50 3l-53 2q-26 1 -45 1q-56 0 -110 -10t-96.5 -33t-69 -60.5t-26.5 -93.5
q0 -45 20 -82t53.5 -64t77 -41.5t90.5 -14.5q93 0 167 35.5t139 95.5v251zM750 1500l230 20l-240 -320h-150z" />
    <glyph glyph-name="acircumflex" unicode="&#xe2;" 
d="M1110 0h-200v162l-94 -112q-17 -13 -43.5 -25t-56.5 -21.5t-61 -15t-59 -5.5q-75 0 -151 23.5t-137 69t-99.5 113t-38.5 155.5q0 93 39.5 160.5t103.5 111.5t146 65t166 21q95 0 165 -10.5t120 -29.5v43q0 59 -14.5 106t-45.5 79.5t-79.5 49.5t-115.5 17
q-63 0 -108.5 -7.5t-84.5 -16.5q-23 -5 -44 -11l-41 -12l-72 134q42 19 100 36q48 14 109.5 25.5t150.5 11.5q115 0 196 -31t132 -87t74 -134.5t23 -174.5v-510zM910 525l-60 8q-14 1 -37 3t-50 3l-53 2q-26 1 -45 1q-56 0 -110 -10t-96.5 -33t-69 -60.5t-26.5 -93.5
q0 -45 20 -82t53.5 -64t77 -41.5t90.5 -14.5q93 0 167 35.5t139 95.5v251zM980 1220h-150l-100 152l-30 88l-30 -87l-101 -153h-150l176 280l200 20z" />
    <glyph glyph-name="atilde" unicode="&#xe3;" 
d="M1110 0h-200v162l-94 -112q-17 -13 -43.5 -25t-56.5 -21.5t-61 -15t-59 -5.5q-75 0 -151 23.5t-137 69t-99.5 113t-38.5 155.5q0 93 39.5 160.5t103.5 111.5t146 65t166 21q95 0 165 -10.5t120 -29.5v43q0 59 -14.5 106t-45.5 79.5t-79.5 49.5t-115.5 17
q-63 0 -108.5 -7.5t-84.5 -16.5q-23 -5 -44 -11l-41 -12l-72 134q42 19 100 36q48 14 109.5 25.5t150.5 11.5q115 0 196 -31t132 -87t74 -134.5t23 -174.5v-510zM910 525l-60 8q-14 1 -37 3t-50 3l-53 2q-26 1 -45 1q-56 0 -110 -10t-96.5 -33t-69 -60.5t-26.5 -93.5
q0 -45 20 -82t53.5 -64t77 -41.5t90.5 -14.5q93 0 167 35.5t139 95.5v251zM387 1275q4 40 19.5 78t40 67t55.5 46.5t67 17.5q39 0 73 -14t65 -31t61 -31t61 -14q21 0 37 10.5t27 26t18 34.5t10 37l96 -4q-3 -44 -19.5 -85t-42 -72.5t-60 -50.5t-73.5 -19q-32 0 -63 14
t-63 30.5t-65 30.5t-68 14q-18 0 -32.5 -8t-26 -21t-19.5 -28.5t-12 -30.5z" />
    <glyph glyph-name="adieresis" unicode="&#xe4;" 
d="M1110 0h-200v162l-94 -112q-17 -13 -43.5 -25t-56.5 -21.5t-61 -15t-59 -5.5q-75 0 -151 23.5t-137 69t-99.5 113t-38.5 155.5q0 93 39.5 160.5t103.5 111.5t146 65t166 21q95 0 165 -10.5t120 -29.5v43q0 59 -14.5 106t-45.5 79.5t-79.5 49.5t-115.5 17
q-63 0 -108.5 -7.5t-84.5 -16.5q-23 -5 -44 -11l-41 -12l-72 134q42 19 100 36q48 14 109.5 25.5t150.5 11.5q115 0 196 -31t132 -87t74 -134.5t23 -174.5v-510zM910 525l-60 8q-14 1 -37 3t-50 3l-53 2q-26 1 -45 1q-56 0 -110 -10t-96.5 -33t-69 -60.5t-26.5 -93.5
q0 -45 20 -82t53.5 -64t77 -41.5t90.5 -14.5q93 0 167 35.5t139 95.5v251zM400 1500h200v-200h-200v200zM800 1500h200v-200h-200v200z" />
    <glyph glyph-name="aring" unicode="&#xe5;" 
d="M1110 0h-200v162l-94 -112q-17 -13 -43.5 -25t-56.5 -21.5t-61 -15t-59 -5.5q-75 0 -151 23.5t-137 69t-99.5 113t-38.5 155.5q0 93 39.5 160.5t103.5 111.5t146 65t166 21q95 0 165 -10.5t120 -29.5v43q0 59 -14.5 106t-45.5 79.5t-79.5 49.5t-115.5 17
q-63 0 -108.5 -7.5t-84.5 -16.5q-23 -5 -44 -11l-41 -12l-72 134q42 19 100 36q48 14 109.5 25.5t150.5 11.5q115 0 196 -31t132 -87t74 -134.5t23 -174.5v-510zM910 525l-60 8q-14 1 -37 3t-50 3l-53 2q-26 1 -45 1q-56 0 -110 -10t-96.5 -33t-69 -60.5t-26.5 -93.5
q0 -45 20 -82t53.5 -64t77 -41.5t90.5 -14.5q93 0 167 35.5t139 95.5v251zM700 1634q49 0 92 -18.5t75.5 -51t51 -75.5t18.5 -92t-18.5 -93t-50 -77t-74.5 -52t-92 -19t-92.5 19t-76.5 52t-52 77t-19 93t19 92t51 75.5t75.5 51t92.5 18.5zM701 1273q25 0 47 10t38 26.5
t25.5 39t9.5 47.5t-9.5 47t-26 38.5t-38.5 26t-47 9.5t-47 -9.5t-38.5 -26t-26 -38.5t-9.5 -47t9.5 -47.5t26 -39t39 -26.5t47.5 -10z" />
    <glyph glyph-name="ae" unicode="&#xe6;" 
d="M1245 650q0 -19 -1.5 -40.5t-4.5 -42.5t-6.5 -39t-7.5 -28h-480q0 -75 11 -140t33.5 -113.5t56.5 -76t79 -27.5q38 0 69 9.5t54 22.5t38 27t21 23l129 -96q-25 -30 -51.5 -56.5t-62.5 -46.5t-84 -31.5t-115 -11.5q-53 0 -98 16.5t-80.5 44.5t-60 65.5t-37.5 79.5
q-16 -42 -37.5 -79.5t-52.5 -65.5t-74 -44.5t-102 -16.5q-75 0 -135.5 23.5t-103 69t-65 113t-22.5 155.5q0 93 22 161.5t61.5 114t96 68t125.5 22.5q57 0 88 -6t46 -14q17 -9 21 -19v34q0 59 -2 106t-13.5 79.5t-37 49.5t-72.5 17q-33 0 -64.5 -7.5t-57.5 -16.5
q-30 -11 -56 -23l-72 134q42 20 91 36q42 14 98 25.5t121 11.5q42 0 75 -12.5t57 -34t40.5 -49.5t25.5 -59q9 31 30 59t53 49.5t76 34t98 12.5q108 0 174.5 -30t103.5 -89t49.5 -146.5t12.5 -201.5zM515 533q-9 4 -21 8q-11 3 -28 6t-40 3q-93 0 -142 -46.5t-49 -158.5
q0 -45 8.5 -82t27 -64t48 -41.5t70.5 -14.5q38 0 63 20t39 45q17 29 24 66v259zM1067 730q0 46 -7.5 87.5t-25.5 72.5t-48 49t-75 18q-49 0 -81 -19.5t-51 -51t-27 -72t-8 -82.5l-69 -109l122 27h270v80z" />
    <glyph glyph-name="ccedilla" unicode="&#xe7;" 
d="M1006 878q-39 35 -108 57t-175 22q-84 0 -150.5 -31.5t-113 -85.5t-71 -125.5t-24.5 -150.5q0 -82 23.5 -156.5t70 -131.5t115.5 -90.5t161 -33.5q52 0 100 12t87 28.5t66.5 33t39.5 26.5l72 -141q-15 -13 -45 -34.5t-76.5 -42.5t-110.5 -36q-23 -5 -48 -8q17 -23 32 -49
q16 -27 29 -63t13 -76q0 -44 -18.5 -82t-49.5 -66.5t-71.5 -44.5t-84.5 -16q-50 0 -96.5 13.5t-83.5 30.5q-43 19 -81 45l71 100q26 -18 54 -31q24 -11 53.5 -20.5t58.5 -9.5q37 0 66 24t29 66q0 33 -16.5 66.5t-36.5 60.5q-19 26 -41 50q-82 10 -153 44q-101 50 -173 132.5
t-111.5 189.5t-39.5 223q0 104 38.5 201.5t110.5 172.5t175 120.5t232 45.5q122 0 219.5 -28.5t160.5 -97.5z" />
    <glyph glyph-name="egrave" unicode="&#xe8;" 
d="M1034 129q-31 -32 -68 -59t-82 -46.5t-99.5 -30t-121.5 -10.5q-133 0 -230 47t-160 126t-93 181t-30 213q0 71 14.5 140.5t42 132.5t69 117t96 93t121 61.5t145.5 22.5q108 0 195 -35t148 -98t94 -151.5t33 -194.5q0 -31 -2 -68t-6 -70h-760q0 -77 24 -142.5t65.5 -113
t98 -74.5t122.5 -27q64 0 109.5 9.5t77 23.5t52.5 30t36 30zM932 650v44q0 57 -22.5 105t-61 83.5t-89 55.5t-106.5 20q-67 0 -117.5 -21.5t-86.5 -55t-58 -73.5t-32 -76l-59 -114l185 32h447zM760 1200h-150l-225 300l204 20z" />
    <glyph glyph-name="eacute" unicode="&#xe9;" 
d="M1034 129q-31 -32 -68 -59t-82 -46.5t-99.5 -30t-121.5 -10.5q-133 0 -230 47t-160 126t-93 181t-30 213q0 71 14.5 140.5t42 132.5t69 117t96 93t121 61.5t145.5 22.5q108 0 195 -35t148 -98t94 -151.5t33 -194.5q0 -31 -2 -68t-6 -70h-760q0 -77 24 -142.5t65.5 -113
t98 -74.5t122.5 -27q64 0 109.5 9.5t77 23.5t52.5 30t36 30zM932 650v44q0 57 -22.5 105t-61 83.5t-89 55.5t-106.5 20q-67 0 -117.5 -21.5t-86.5 -55t-58 -73.5t-32 -76l-59 -114l185 32h447zM700 1500l230 20l-240 -320h-150z" />
    <glyph glyph-name="ecircumflex" unicode="&#xea;" 
d="M1034 129q-31 -32 -68 -59t-82 -46.5t-99.5 -30t-121.5 -10.5q-133 0 -230 47t-160 126t-93 181t-30 213q0 71 14.5 140.5t42 132.5t69 117t96 93t121 61.5t145.5 22.5q108 0 195 -35t148 -98t94 -151.5t33 -194.5q0 -31 -2 -68t-6 -70h-760q0 -77 24 -142.5t65.5 -113
t98 -74.5t122.5 -27q64 0 109.5 9.5t77 23.5t52.5 30t36 30zM932 650v44q0 57 -22.5 105t-61 83.5t-89 55.5t-106.5 20q-67 0 -117.5 -21.5t-86.5 -55t-58 -73.5t-32 -76l-59 -114l185 32h447zM890 1220h-150l-100 152l-30 88l-30 -87l-101 -153h-150l176 280l200 20z" />
    <glyph glyph-name="edieresis" unicode="&#xeb;" 
d="M1034 129q-31 -32 -68 -59t-82 -46.5t-99.5 -30t-121.5 -10.5q-133 0 -230 47t-160 126t-93 181t-30 213q0 71 14.5 140.5t42 132.5t69 117t96 93t121 61.5t145.5 22.5q108 0 195 -35t148 -98t94 -151.5t33 -194.5q0 -31 -2 -68t-6 -70h-760q0 -77 24 -142.5t65.5 -113
t98 -74.5t122.5 -27q64 0 109.5 9.5t77 23.5t52.5 30t36 30zM932 650v44q0 57 -22.5 105t-61 83.5t-89 55.5t-106.5 20q-67 0 -117.5 -21.5t-86.5 -55t-58 -73.5t-32 -76l-59 -114l185 32h447zM400 1500h200v-200h-200v200zM800 1500h200v-200h-200v200z" />
    <glyph glyph-name="igrave" unicode="&#xec;" 
d="M711 393q0 -52 6.5 -96t21.5 -76t40 -50t62 -18q49 0 95.5 8t83.5 18.5t61.5 19.5t30.5 11l39 -154q-6 -3 -32 -15t-68 -24.5t-98 -23t-122 -10.5q-98 0 -158.5 32t-94.5 88.5t-45.5 133.5t-11.5 166v567l-100 -30h-201l-20 160h511v-707zM660 1200h-150l-225 300l204 20
z" />
    <glyph glyph-name="iacute" unicode="&#xed;" 
d="M711 393q0 -52 6.5 -96t21.5 -76t40 -50t62 -18q49 0 95.5 8t83.5 18.5t61.5 19.5t30.5 11l39 -154q-6 -3 -32 -15t-68 -24.5t-98 -23t-122 -10.5q-98 0 -158.5 32t-94.5 88.5t-45.5 133.5t-11.5 166v567l-100 -30h-201l-20 160h511v-707zM720 1500l230 20l-240 -320
h-150z" />
    <glyph glyph-name="icircumflex" unicode="&#xee;" 
d="M711 393q0 -52 6.5 -96t21.5 -76t40 -50t62 -18q49 0 95.5 8t83.5 18.5t61.5 19.5t30.5 11l39 -154q-6 -3 -32 -15t-68 -24.5t-98 -23t-122 -10.5q-98 0 -158.5 32t-94.5 88.5t-45.5 133.5t-11.5 166v567l-100 -30h-201l-20 160h511v-707zM881 1220h-150l-100 152l-30 88
l-30 -87l-101 -153h-150l176 280l200 20z" />
    <glyph glyph-name="idieresis" unicode="&#xef;" 
d="M711 393q0 -52 6.5 -96t21.5 -76t40 -50t62 -18q49 0 95.5 8t83.5 18.5t61.5 19.5t30.5 11l39 -154q-6 -3 -32 -15t-68 -24.5t-98 -23t-122 -10.5q-98 0 -158.5 32t-94.5 88.5t-45.5 133.5t-11.5 166v567l-100 -30h-201l-20 160h511v-707zM700 1500h200v-200h-200v200z
M300 1500h200v-200h-200v200z" />
    <glyph glyph-name="ntilde" unicode="&#xf1;" 
d="M390 0h-180v1100l180 20v-193l61 117q18 12 42.5 25t59.5 23.5t83 17.5t113 7q79 0 142.5 -25.5t107 -73.5t67 -116t23.5 -152v-750h-180v750q0 54 -17.5 93t-48.5 64.5t-72 37.5t-87 12q-48 0 -92.5 -12t-82.5 -30.5t-68.5 -40t-50.5 -40.5v-834zM387 1275q4 40 19.5 78
t40 67t55.5 46.5t67 17.5q39 0 73 -14t65 -31t61 -31t61 -14q21 0 37 10.5t27 26t18 34.5t10 37l96 -4q-3 -44 -19.5 -85t-42 -72.5t-60 -50.5t-73.5 -19q-32 0 -63 14t-63 30.5t-65 30.5t-68 14q-18 0 -32.5 -8t-26 -21t-19.5 -28.5t-12 -30.5z" />
    <glyph glyph-name="ograve" unicode="&#xf2;" 
d="M649 -17q-111 0 -203.5 43.5t-159.5 120t-104.5 180.5t-37.5 226q0 121 36 224.5t102 179t159.5 118t207.5 42.5q111 0 202 -42.5t156.5 -118t101.5 -179t36 -224.5q0 -122 -34.5 -226t-99 -180.5t-156.5 -120t-206 -43.5zM955 526q0 81 -17 159t-54 139.5t-96 99.5
t-143 38q-80 0 -139 -33t-97 -88t-56.5 -125t-18.5 -144q0 -81 18.5 -159t57 -139t99 -98.5t144.5 -37.5q79 0 136.5 33t94 87.5t54 124t17.5 143.5zM787 1200h-150l-225 300l204 20z" />
    <glyph glyph-name="oacute" unicode="&#xf3;" 
d="M649 -17q-111 0 -203.5 43.5t-159.5 120t-104.5 180.5t-37.5 226q0 121 36 224.5t102 179t159.5 118t207.5 42.5q111 0 202 -42.5t156.5 -118t101.5 -179t36 -224.5q0 -122 -34.5 -226t-99 -180.5t-156.5 -120t-206 -43.5zM955 526q0 81 -17 159t-54 139.5t-96 99.5
t-143 38q-80 0 -139 -33t-97 -88t-56.5 -125t-18.5 -144q0 -81 18.5 -159t57 -139t99 -98.5t144.5 -37.5q79 0 136.5 33t94 87.5t54 124t17.5 143.5zM700 1500l230 20l-240 -320h-150z" />
    <glyph glyph-name="ocircumflex" unicode="&#xf4;" 
d="M649 -17q-111 0 -203.5 43.5t-159.5 120t-104.5 180.5t-37.5 226q0 121 36 224.5t102 179t159.5 118t207.5 42.5q111 0 202 -42.5t156.5 -118t101.5 -179t36 -224.5q0 -122 -34.5 -226t-99 -180.5t-156.5 -120t-206 -43.5zM955 526q0 81 -17 159t-54 139.5t-96 99.5
t-143 38q-80 0 -139 -33t-97 -88t-56.5 -125t-18.5 -144q0 -81 18.5 -159t57 -139t99 -98.5t144.5 -37.5q79 0 136.5 33t94 87.5t54 124t17.5 143.5zM930 1220h-150l-100 152l-30 88l-30 -87l-101 -153h-150l176 280l200 20z" />
    <glyph glyph-name="otilde" unicode="&#xf5;" 
d="M649 -17q-111 0 -203.5 43.5t-159.5 120t-104.5 180.5t-37.5 226q0 121 36 224.5t102 179t159.5 118t207.5 42.5q111 0 202 -42.5t156.5 -118t101.5 -179t36 -224.5q0 -122 -34.5 -226t-99 -180.5t-156.5 -120t-206 -43.5zM955 526q0 81 -17 159t-54 139.5t-96 99.5
t-143 38q-80 0 -139 -33t-97 -88t-56.5 -125t-18.5 -144q0 -81 18.5 -159t57 -139t99 -98.5t144.5 -37.5q79 0 136.5 33t94 87.5t54 124t17.5 143.5zM337 1275q4 40 19.5 78t40 67t55.5 46.5t67 17.5q39 0 73 -14t65 -31t61 -31t61 -14q21 0 37 10.5t27 26t18 34.5t10 37
l96 -4q-3 -44 -19.5 -85t-42 -72.5t-60 -50.5t-73.5 -19q-32 0 -63 14t-63 30.5t-65 30.5t-68 14q-18 0 -32.5 -8t-26 -21t-19.5 -28.5t-12 -30.5z" />
    <glyph glyph-name="odieresis" unicode="&#xf6;" 
d="M649 -17q-111 0 -203.5 43.5t-159.5 120t-104.5 180.5t-37.5 226q0 121 36 224.5t102 179t159.5 118t207.5 42.5q111 0 202 -42.5t156.5 -118t101.5 -179t36 -224.5q0 -122 -34.5 -226t-99 -180.5t-156.5 -120t-206 -43.5zM955 526q0 81 -17 159t-54 139.5t-96 99.5
t-143 38q-80 0 -139 -33t-97 -88t-56.5 -125t-18.5 -144q0 -81 18.5 -159t57 -139t99 -98.5t144.5 -37.5q79 0 136.5 33t94 87.5t54 124t17.5 143.5zM350 1500h200v-200h-200v200zM750 1500h200v-200h-200v200z" />
    <glyph glyph-name="divide" unicode="&#xf7;" 
d="M541 307q0 22 8.5 41.5t23.5 34.5t34.5 23.5t41.5 8.5t41.5 -8.5t34.5 -23.5t23.5 -34.5t8.5 -41.5t-8.5 -42t-23 -35t-34 -24t-41.5 -9q-23 0 -42.5 9t-34.5 24t-23.5 35t-8.5 42zM541 920q0 22 8.5 41.5t23.5 34.5t34.5 23.5t41.5 8.5t41.5 -8.5t34.5 -23.5t23.5 -34.5
t8.5 -41.5t-8.5 -42t-23 -35t-34 -24t-41.5 -9q-23 0 -42.5 9t-34.5 24t-23.5 35t-8.5 42zM200 700h900v-155h-900v155z" />
    <glyph glyph-name="oslash" unicode="&#xf8;" 
d="M604 -17q-103 0 -190 37l-63 -120h-190l113 212q-17 16 -33 34q-67 77 -104.5 181t-37.5 226q0 121 36 224.5t102 179t159.5 118t207.5 42.5q103 0 188 -37l69 129h180l-114 -216q18 -17 35 -37q66 -75 102 -178.5t36 -224.5q0 -122 -34.5 -226t-99 -180.5t-156.5 -120
t-206 -43.5zM600 962q-80 0 -139 -33t-97 -88t-56.5 -125t-18.5 -144q0 -81 18 -159q18 -76 55 -136l354 661q-50 24 -116 24zM910 526q0 81 -17 159t-54 139l-1 1l-349 -664q52 -23 119 -23q79 0 136.5 33t94 87.5t54 124t17.5 143.5z" />
    <glyph glyph-name="ugrave" unicode="&#xf9;" 
d="M930 1100l180 20v-1120h-180v180l-61 -107q-9 -11 -29 -26t-50 -29.5t-69 -24.5t-87 -10q-121 0 -202.5 37.5t-130.5 99.5t-70 143t-21 167v670l180 20v-690q0 -65 13 -117t44.5 -89t84 -56.5t130.5 -19.5q58 0 103 16.5t78.5 40t55 49.5t31.5 46v800zM787 1200h-150
l-225 300l204 20z" />
    <glyph glyph-name="uacute" unicode="&#xfa;" 
d="M930 1100l180 20v-1120h-180v180l-61 -107q-9 -11 -29 -26t-50 -29.5t-69 -24.5t-87 -10q-121 0 -202.5 37.5t-130.5 99.5t-70 143t-21 167v670l180 20v-690q0 -65 13 -117t44.5 -89t84 -56.5t130.5 -19.5q58 0 103 16.5t78.5 40t55 49.5t31.5 46v800zM665 1500l230 20
l-240 -320h-150z" />
    <glyph glyph-name="ucircumflex" unicode="&#xfb;" 
d="M930 1100l180 20v-1120h-180v180l-61 -107q-9 -11 -29 -26t-50 -29.5t-69 -24.5t-87 -10q-121 0 -202.5 37.5t-130.5 99.5t-70 143t-21 167v670l180 20v-690q0 -65 13 -117t44.5 -89t84 -56.5t130.5 -19.5q58 0 103 16.5t78.5 40t55 49.5t31.5 46v800zM930 1220h-150
l-100 152l-30 88l-30 -87l-101 -153h-150l176 280l200 20z" />
    <glyph glyph-name="udieresis" unicode="&#xfc;" 
d="M930 1100l180 20v-1120h-180v180l-61 -107q-9 -11 -29 -26t-50 -29.5t-69 -24.5t-87 -10q-121 0 -202.5 37.5t-130.5 99.5t-70 143t-21 167v670l180 20v-690q0 -65 13 -117t44.5 -89t84 -56.5t130.5 -19.5q58 0 103 16.5t78.5 40t55 49.5t31.5 46v800zM350 1500h200v-200
h-200v200zM750 1500h200v-200h-200v200z" />
    <glyph glyph-name="ydieresis" unicode="&#xff;" 
d="M721 364l269 736l180 20l-404 -1137q-30 -84 -64.5 -167t-78 -149t-98 -106.5t-124.5 -40.5q-56 0 -103 22t-89 58l73 117q6 -6 15.5 -14t21 -15.5t25 -12.5t27.5 -5q36 0 65.5 25.5t55 66.5t47 91l41.5 100l-407 1147l190 20l264 -756l52 -232zM379 1500h200v-200h-200
v200zM779 1500h200v-200h-200v200z" />
    <glyph glyph-name="OE" unicode="&#x152;" 
d="M555 -17q-114 0 -210.5 42.5t-166.5 134.5t-109.5 238t-39.5 352t39.5 351.5t109.5 238t166.5 135t210.5 42.5l130 -87l-10 70h625v-160h-415l20 -190v-265h325v-145h-325v-400l-10 -180h440l-20 -160h-640l10 70zM695 1305q-27 20 -65.5 31t-80.5 11q-150 0 -231 -143.5
t-81 -418.5q0 -163 21 -282t62 -197t101.5 -115.5t139.5 -37.5q41 0 70.5 7t63.5 30v1115z" />
    <glyph glyph-name="oe" unicode="&#x153;" 
d="M378 1117q51 0 91.5 -20t71.5 -51t53 -70t37 -76q10 37 36.5 76t64.5 70t86.5 51t102.5 20q108 0 174.5 -30t103.5 -89t49.5 -146.5t12.5 -201.5q0 -19 -1.5 -40.5t-4.5 -42.5t-6.5 -39t-7.5 -28h-480q0 -75 11 -140t33.5 -113.5t56.5 -76t79 -27.5q38 0 69 9.5t54 22.5
t38 27t21 23l129 -96q-25 -30 -51.5 -56.5t-62.5 -46.5t-84 -31.5t-115 -11.5q-47 0 -92 14t-83 41t-67.5 65t-46.5 86q-18 -46 -42 -83.5t-56 -64.5t-72.5 -42t-92.5 -16q-74 3 -129 28t-94.5 66t-65.5 96t-41 117t-21 129.5t-6 133.5q0 56 5 119.5t19 126t39 120.5
t63.5 102t93 70t128.5 26zM379 178q53 0 85.5 31t50.5 81t24 112.5t6 125.5q0 38 -1.5 82.5t-7.5 88t-17 84t-30 71.5t-48 49.5t-69 18.5q-53 0 -86 -34.5t-52.5 -87t-26.5 -114t-7 -116.5q0 -75 8 -145.5t28.5 -125.5t55 -88t87.5 -33zM813 650h270v80q0 46 -7.5 87.5
t-25.5 72.5t-48 49t-75 18q-41 0 -72.5 -19.5t-52.5 -51t-31.5 -72t-10.5 -82.5l-69 -109z" />
    <glyph glyph-name="Ydieresis" unicode="&#x178;" 
d="M760 935l288 565h192l-435 -854v-646h-210v645l-436 855l204 20l288 -566l79 -249zM400 1800h200v-200h-200v200zM800 1800h200v-200h-200v200z" />
    <glyph glyph-name="florin" unicode="&#x192;" 
d="M1065 828l-40 -154h-170l-42 56l-148 -751l-26.5 -105.5t-28 -97t-36.5 -83.5t-53 -65.5t-77 -43t-109 -15.5q-35 0 -62.5 4.5t-52 13t-47 20.5t-46.5 28l47 130q10 -8 23.5 -16t28.5 -14t30 -9.5t27 -3.5q50 0 80.5 24.5t49.5 62t30 83l22 87.5l143 695h-241l40 154h169
l47 -57l80 429q16 85 44 145.5t65 98.5t79.5 55.5t86.5 17.5q25 0 57 -2t65.5 -8.5t66 -19t58.5 -34.5l-25 -143q-45 29 -78 41.5t-62 12.5q-59 0 -98 -28.5t-51 -89.5l-82 -418h236z" />
    <glyph glyph-name="circumflex" unicode="&#x2c6;" 
d="M880 1220h-150l-100 152l-30 88l-30 -87l-101 -153h-150l176 280l200 20z" />
    <glyph glyph-name="caron" unicode="&#x2c7;" 
d="M695 1220l-200 20l-176 280h150l111 -133l20 -77l20 78l110 132h150z" />
    <glyph glyph-name="breve" unicode="&#x2d8;" 
d="M426 1520q4 -38 23 -68q17 -26 51 -47t97 -21q64 0 100 21t53 47q20 30 24 68h106v-13q0 -14 -2.5 -37.5t-12 -52t-27.5 -57.5t-49.5 -52.5t-78.5 -38.5t-113 -15t-112 15t-77 38.5t-48.5 52t-26.5 56.5t-11.5 52t-2.5 38v14h107z" />
    <glyph glyph-name="dotaccent" unicode="&#x2d9;" 
d="M494 1500h202v-200h-202v200z" />
    <glyph glyph-name="ring" unicode="&#x2da;" 
d="M600 1634q49 0 92 -18.5t75.5 -51t51 -75.5t18.5 -92t-18.5 -93t-50 -77t-74.5 -52t-92 -19t-92.5 19t-76.5 52t-52 77t-19 93t19 92t51 75.5t75.5 51t92.5 18.5zM601 1273q25 0 47 10t38 26.5t25.5 39t9.5 47.5t-9.5 47t-26 38.5t-38.5 26t-47 9.5t-47 -9.5t-38.5 -26
t-26 -38.5t-9.5 -47t9.5 -47.5t26 -39t39 -26.5t47.5 -10z" />
    <glyph glyph-name="ogonek" unicode="&#x2db;" 
d="M652 0q-29 -30 -53 -62q-20 -27 -36.5 -60.5t-16.5 -66.5q0 -42 29 -66t66 -24q29 0 58.5 9.5t53.5 20.5q28 13 54 31l71 -100q-38 -26 -81 -45q-37 -17 -83.5 -30.5t-96.5 -13.5q-44 0 -84.5 16t-71.5 44.5t-49.5 66.5t-18.5 82q0 40 13 76t29 63q18 32 41 59h176z" />
    <glyph glyph-name="tilde" unicode="&#x2dc;" 
d="M387 1335q4 40 19.5 78t40 67t55.5 46.5t67 17.5q39 0 73 -14t65 -31t61 -31t61 -14q21 0 37 10.5t27 26t18 34.5t10 37l96 -4q-3 -44 -19.5 -85t-42 -72.5t-60 -50.5t-73.5 -19q-32 0 -63 14t-63 30.5t-65 30.5t-68 14q-18 0 -32.5 -8t-26 -21t-19.5 -28.5t-12 -30.5z
" />
    <glyph glyph-name="hungarumlaut" unicode="&#x2dd;" 
d="M378 1500l230 20l-302 -403h-150zM741 1500l230 20l-302 -403h-150z" />
    <glyph glyph-name="pi" unicode="&#x3c0;" 
d="M980 950v-561q0 -52 2 -99t13.5 -83t36 -57t68.5 -21q11 0 23 2l23 4l23 6l80 -126q-17 -9 -52 -20.5t-97 -11.5q-102 0 -161.5 32t-90 88.5t-39.5 133.5t-9 166v547h-380l60 -163v-787h-180v694q0 52 -2 99t-13.5 83t-36 57t-68.5 21q-11 0 -23.5 -2t-22.5 -4l-23 -6
l-80 126q17 9 51.5 20.5t95.5 11.5h941l-20 -150h-119z" />
    <glyph glyph-name="endash" unicode="&#x2013;" 
d="M300 600h700v-154h-700v154z" />
    <glyph glyph-name="emdash" unicode="&#x2014;" 
d="M0 600h1300v-154h-1300v154z" />
    <glyph glyph-name="quoteleft" unicode="&#x2018;" 
d="M424 1095q0 -25 -10 -47t-27 -38.5t-39.5 -26t-47.5 -9.5t-47.5 8.5t-39.5 25.5t-27.5 42.5t-10.5 58.5q0 44 5.5 86t22.5 85t49 87.5t84 92.5l44 -20q-19 -37 -34 -76q-13 -33 -23.5 -72t-10.5 -76q21 -1 41 -9.5t36 -23.5t25.5 -37t9.5 -51z" />
    <glyph glyph-name="quoteright" unicode="&#x2019;" 
d="M700 1520l250 -20l-350 -300h-200z" />
    <glyph glyph-name="quotesinglbase" unicode="&#x201a;" 
d="M176 105q0 25 10 47t27 38.5t39.5 26t47.5 9.5t47.5 -8.5t39.5 -25.5t27.5 -42.5t10.5 -58.5q0 -44 -5.5 -86t-22.5 -85t-49 -87.5t-84 -92.5l-44 20q19 37 34 76q13 33 23.5 72t10.5 76q-21 1 -41 9.5t-36 23.5t-25.5 37t-9.5 51z" />
    <glyph glyph-name="quotedblleft" unicode="&#x201c;" 
d="M424 1095q0 -25 -10 -47t-27 -38.5t-39.5 -26t-47.5 -9.5t-47.5 8.5t-39.5 25.5t-27.5 42.5t-10.5 58.5q0 44 5.5 86t22.5 85t49 87.5t84 92.5l44 -20q-19 -37 -34 -76q-13 -33 -23.5 -72t-10.5 -76q21 -1 41 -9.5t36 -23.5t25.5 -37t9.5 -51zM824 1095q0 -25 -10 -47
t-27 -38.5t-39.5 -26t-47.5 -9.5t-47.5 8.5t-39.5 25.5t-27.5 42.5t-10.5 58.5q0 44 5.5 86t22.5 85t49 87.5t84 92.5l44 -20q-19 -37 -34 -76q-13 -33 -23.5 -72t-10.5 -76q21 -1 41 -9.5t36 -23.5t25.5 -37t9.5 -51z" />
    <glyph glyph-name="quotedblright" unicode="&#x201d;" 
d="M176 1305q0 25 10 47t27 38.5t39.5 26t47.5 9.5t47.5 -8.5t39.5 -25.5t27.5 -42.5t10.5 -58.5q0 -44 -5.5 -86t-22.5 -85t-49 -87.5t-84 -92.5l-44 20q19 37 34 76q13 33 23.5 72t10.5 76q-21 1 -41 9.5t-36 23.5t-25.5 37t-9.5 51zM576 1305q0 25 10 47t27 38.5t39.5 26
t47.5 9.5t47.5 -8.5t39.5 -25.5t27.5 -42.5t10.5 -58.5q0 -44 -5.5 -86t-22.5 -85t-49 -87.5t-84 -92.5l-44 20q19 37 34 76q13 33 23.5 72t10.5 76q-21 1 -41 9.5t-36 23.5t-25.5 37t-9.5 51z" />
    <glyph glyph-name="quotedblbase" unicode="&#x201e;" 
d="M176 105q0 25 10 47t27 38.5t39.5 26t47.5 9.5t47.5 -8.5t39.5 -25.5t27.5 -42.5t10.5 -58.5q0 -44 -5.5 -86t-22.5 -85t-49 -87.5t-84 -92.5l-44 20q19 37 34 76q13 33 23.5 72t10.5 76q-21 1 -41 9.5t-36 23.5t-25.5 37t-9.5 51zM576 105q0 25 10 47t27 38.5t39.5 26
t47.5 9.5t47.5 -8.5t39.5 -25.5t27.5 -42.5t10.5 -58.5q0 -44 -5.5 -86t-22.5 -85t-49 -87.5t-84 -92.5l-44 20q19 37 34 76q13 33 23.5 72t10.5 76q-21 1 -41 9.5t-36 23.5t-25.5 37t-9.5 51z" />
    <glyph glyph-name="dagger" unicode="&#x2020;" 
d="M200 1049h300v451l200 20v-471h320l-20 -149h-300v-1300h-200v1300h-300v149z" />
    <glyph glyph-name="daggerdbl" unicode="&#x2021;" 
d="M200 1049h300v451l200 20v-471h320l-20 -149h-300v-600h300v-150h-300v-550h-200v550h-300v150h300v600h-300v149z" />
    <glyph glyph-name="bullet" unicode="&#x2022;" 
d="M398 807q0 60 23.5 113.5t63.5 93t93.5 63t113.5 23.5t113.5 -23.5t93.5 -63t63.5 -93t23.5 -113.5t-23 -114.5t-62.5 -95.5t-92.5 -65t-113 -24t-114 24t-94.5 65t-64.5 95.5t-24 114.5z" />
    <glyph glyph-name="ellipsis" unicode="&#x2026;" 
d="M37 150q0 34 13 64t35.5 52.5t52 35.5t63.5 13t64 -13t52.5 -35.5t35.5 -52.5t13 -64t-13 -64.5t-35 -53t-51.5 -36t-63.5 -13.5t-64.5 13.5t-53 36t-35.5 53t-13 64.5zM477 150q0 34 13 64t35.5 52.5t52 35.5t63.5 13t64 -13t52.5 -35.5t35.5 -52.5t13 -64t-13 -64.5
t-35 -53t-51.5 -36t-63.5 -13.5t-64.5 13.5t-53 36t-35.5 53t-13 64.5zM917 150q0 34 13 64t35.5 52.5t52 35.5t63.5 13t64 -13t52.5 -35.5t35.5 -52.5t13 -64t-13 -64.5t-35 -53t-51.5 -36t-63.5 -13.5t-64.5 13.5t-53 36t-35.5 53t-13 64.5z" />
    <glyph glyph-name="perthousand" unicode="&#x2030;" horiz-adv-x="2600" 
d="M1542 -17q-70 0 -119.5 27.5t-80.5 76t-45 115t-14 143.5q0 76 13 141.5t43.5 112.5t80 74t122.5 27q70 0 119 -27t80 -74t45 -112.5t14 -141.5q0 -77 -13.5 -143.5t-43.5 -115t-79.5 -76t-121.5 -27.5zM1651 393q0 35 -3 67t-14 56t-33 38.5t-60 14.5q-37 0 -58 -13
t-31.5 -35t-13.5 -51.5t-3 -62.5v-101q0 -36 3 -68.5t14 -57t33.5 -39t60.5 -14.5q36 0 57 13t31.5 35t13.5 51.5t3 61.5v105zM395 0h-166l676 1500h166zM359 800q-70 0 -119.5 27.5t-80.5 76t-45 115t-14 143.5q0 76 13 141.5t43.5 112.5t80 74t122.5 27q70 0 119 -27
t80 -74t45 -112.5t14 -141.5q0 -77 -13.5 -143.5t-43.5 -115t-79.5 -76t-121.5 -27.5zM468 1210q0 35 -3 67t-14 56t-33 38.5t-60 14.5q-37 0 -58 -13t-31.5 -35t-13.5 -51.5t-3 -62.5v-101q0 -36 3 -68.5t14 -57t33.5 -39t60.5 -14.5q36 0 57 13t31.5 35t13.5 51.5t3 61.5
v105zM942 -17q-70 0 -119.5 27.5t-80.5 76t-45 115t-14 143.5q0 76 13 141.5t43.5 112.5t80 74t122.5 27q70 0 119 -27t80 -74t45 -112.5t14 -141.5q0 -77 -13.5 -143.5t-43.5 -115t-79.5 -76t-121.5 -27.5zM1051 393q0 35 -3 67t-14 56t-33 38.5t-60 14.5q-37 0 -58 -13
t-31.5 -35t-13.5 -51.5t-3 -62.5v-101q0 -36 3 -68.5t14 -57t33.5 -39t60.5 -14.5q36 0 57 13t31.5 35t13.5 51.5t3 61.5v105z" />
    <glyph glyph-name="guilsinglleft" unicode="&#x2039;" 
d="M870 1026l50 -125l-325 -291l-138 -60l137 -60l328 -289l-54 -135l-468 412v139z" />
    <glyph glyph-name="guilsinglright" unicode="&#x203a;" 
d="M900 617v-139l-468 -412l-54 135l328 289l137 60l-138 60l-325 291l50 125z" />
    <glyph glyph-name="Euro" unicode="&#x20ac;" 
d="M528 651h297l-79 -151h-239q17 -80 47 -146t71.5 -112.5t94 -72t114.5 -25.5q73 0 142.5 25t134.5 61l77 -126q-28 -25 -59 -47t-76.5 -38.5t-111.5 -26t-163 -9.5q-86 0 -162.5 38.5t-140 107.5t-111.5 163.5t-77 207.5h-164v151h147q-6 58 -6 119q0 39 3 80h-144v150
h165q24 111 69 205.5t108 163.5t142.5 108.5t173.5 39.5q123 0 222 -37.5t171 -106.5l-63 -121q-31 22 -62 40t-68 30.5t-81.5 19t-102.5 6.5q-56 0 -109 -28.5t-95 -79.5t-70 -121.5t-35 -155.5l58 37h459l-78 -150h-455q-2 -19 -2 -38v-39q0 -22 0.5 -43.5t2.5 -44.5
l-29 -89z" />
    <glyph glyph-name="trademark" unicode="&#x2122;" 
d="M200 900v533h-200v67h500v-67h-200v-533h-100zM1100 900v570l-50 -170l-130 -300h-40l-130 300l-50 170v-570h-100v600h140l120 -250l40 -150l40 150l120 250h140v-600h-100z" />
    <glyph glyph-name="Ohm" unicode="&#x2126;" 
d="M100 160h148l151 -60l-144 139q-30 29 -54.5 82t-42 123.5t-27 154.5t-9.5 176q0 165 21.5 301.5t80 234.5t161 152t263.5 54q157 0 259 -54t161.5 -152t82.5 -234.5t23 -301.5q0 -91 -10 -175t-27 -154.5t-40 -123t-50 -80.5l-150 -142l150 60h148v-160h-448v200
q70 49 113.5 104t66.5 120.5t31 144t8 175.5q0 120 -13.5 229t-49.5 192t-99 132.5t-162 49.5q-93 0 -153.5 -44t-95.5 -118t-49 -171t-14 -204q0 -112 7 -201.5t30 -162.5t66 -133t115 -113v-200h-448v160z" />
    <glyph glyph-name="partialdiff" unicode="&#x2202;" 
d="M902 634q-16 24 -42 46t-58.5 38.5t-69 26.5t-72.5 10q-75 0 -125.5 -22.5t-81.5 -65t-44 -104t-13 -140.5q0 -26 3 -56.5t10.5 -61.5t21 -60t34 -51t49 -35.5t67.5 -13.5q62 0 108.5 22t80 59t56.5 86t37.5 103.5t23.5 110.5t15 108zM1095 780q0 -81 -11 -171.5
t-35.5 -179t-63 -169.5t-94.5 -142.5t-130.5 -98t-169.5 -36.5q-104 0 -178.5 36t-121.5 95.5t-69 136.5t-22 160q0 133 31.5 224t84.5 146.5t123.5 79.5t147.5 24q66 0 117.5 -13t90.5 -32.5t67.5 -42.5t48.5 -44q0 136 -18 254.5t-59.5 205.5t-108.5 137t-164 50
q-63 0 -129.5 -9.5t-131.5 -44.5l-54 83q28 18 63.5 34t74.5 28t80.5 19t80.5 7q271 0 410.5 -185t139.5 -552z" />
    <glyph glyph-name="radical" unicode="&#x221a;" 
d="M1220 1300l-20 -150h-170l-200 20l-314 -1190l-238 20l-133 550l-77 200l185 20l111 -470l36 -240l36 240l262 1000h522z" />
    <glyph glyph-name="infinity" unicode="&#x221e;" 
d="M337 387q57 0 95 30t63.5 75t42.5 97.5l32 97.5l-43.5 95.5t-48.5 83t-66 59t-95 22.5q-47 0 -73 -21t-38 -57.5t-14.5 -86t-2.5 -105.5t6 -108.5t22 -93t45 -64.5t75 -24zM634 578v-115q-18 -104 -92.5 -163.5t-215.5 -59.5q-97 0 -157 37.5t-93 98.5t-44.5 139.5
t-11.5 161.5q0 55 3.5 109t14 103t31 90.5t54.5 72t84 48t119 17.5q64 0 111.5 -24.5t85 -68t69.5 -102t65 -125.5l9 -19v116q18 102 92.5 162.5t215.5 60.5q97 0 157 -37.5t93 -98.5t44.5 -140t11.5 -161q0 -55 -3.5 -109t-14 -103t-31 -90.5t-54.5 -72t-84 -48t-119 -17.5
q-67 0 -115 25.5t-86.5 71t-70.5 107.5zM963 970q-57 0 -95 -30t-63.5 -75t-42.5 -97.5l-32 -97.5l43 -95.5t49 -83t66 -59t95 -22.5q47 0 73 21t38 57.5t14.5 86t2.5 105.5t-6 108.5t-22 93t-45 64.5t-75 24z" />
    <glyph glyph-name="integral" unicode="&#x222b;" 
d="M600 1117q0 85 15.5 158t53.5 127t101.5 84.5t159.5 30.5q46 0 78.5 -3.5t58 -10t46 -15t41.5 -18.5l-63 -123q-19 11 -51.5 19t-57.5 8h-16q-4 0 -14 -0.5t-23 -3.5t-28 -9t-30 -16q-44 -31 -57.5 -87.5t-13.5 -140.5v-1138q0 -85 -15.5 -158t-53.5 -127t-101.5 -84.5
t-159.5 -30.5q-46 0 -110.5 10t-133.5 37l83 123q19 -11 51.5 -19t57.5 -8q4 0 15 1.5t29 3.5q37 4 66 24q46 31 59 87t13 141v1138z" />
    <glyph glyph-name="approxequal" unicode="&#x2248;" 
d="M860 500q-35 0 -66 12.5t-59.5 31.5t-55 41t-52 41t-51 31.5t-51.5 12.5q-31 0 -58.5 -7.5t-54.5 -21.5t-54.5 -34.5t-57.5 -46.5v100q20 28 43 53t52 44.5t64.5 31t80.5 11.5q52 0 96.5 -26.5t84.5 -58.5t77.5 -58.5t76.5 -26.5q61 0 113 28.5t112 81.5v-100
q-20 -28 -43 -53t-52 -44.5t-64.5 -31t-80.5 -11.5zM860 200q-35 0 -66 12.5t-59.5 31.5t-55 41t-52 41t-51 31.5t-51.5 12.5q-31 0 -58.5 -7.5t-54.5 -21.5t-54.5 -34.5t-57.5 -46.5v100q20 28 43 53t52 44.5t64.5 31t80.5 11.5q52 0 96.5 -26.5t84.5 -58.5t77.5 -58.5
t76.5 -26.5q61 0 113 28.5t112 81.5v-100q-20 -28 -43 -53t-52 -44.5t-64.5 -31t-80.5 -11.5z" />
    <glyph glyph-name="notequal" unicode="&#x2260;" 
d="M200 400h280l58 160h-338v140h388l109 300h146l-106 -300h263v-140h-312l-56 -160h368v-140h-418l-91 -260h-155l94 260h-230v140z" />
    <glyph glyph-name="lessequal" unicode="&#x2264;" 
d="M200 135h900l-20 -135h-880v135zM1100 1119v-140l-687 -293l-78 -16l77 -16l688 -291v-140l-900 365v168z" />
    <glyph glyph-name="greaterequal" unicode="&#x2265;" 
d="M200 135h900l-20 -135h-880v135zM1102 756v-168l-900 -365v140l688 291l77 16l-78 16l-687 293v140z" />
    <glyph glyph-name="filigature" unicode="&#xfb01;" 
d="M815 1411q-21 15 -57.5 30.5t-95.5 15.5q-86 0 -131.5 -48.5t-45.5 -163.5v-145h519v-1100h-190v940h-324v-940h-190v940h-150v160h150v155q0 85 18.5 152t58.5 113.5t102.5 71.5t150.5 25q45 0 85 -2t84.5 -13t96.5 -34.5t121 -67.5v-200h-202v111z" />
    <glyph glyph-name="flligature" unicode="&#xfb02;" 
d="M714 1399q-32 30 -69.5 44t-82.5 14q-86 0 -131.5 -48.5t-45.5 -163.5v-145h229v-160h-224v-940h-190v940h-150v160h150v155q0 85 18.5 153t58.5 116t102.5 74t150.5 26q45 0 80.5 -4t66 -12t57 -20t53.5 -28q53 -32 84.5 -86.5t31.5 -140.5v-340q0 -72 0.5 -139
t0.5 -139v-339q0 -66 7.5 -110.5t22 -72t36 -39t49.5 -11.5q22 0 40 2.5t31 6.5q15 4 27 9l69 -121q-8 -8 -25.5 -17.5t-41.5 -18.5t-54.5 -15t-65.5 -6q-90 0 -146 33t-87 90t-41.5 132.5t-10.5 161.5v999z" />
    <glyph glyph-name="NULL" horiz-adv-x="0" 
 />
    <glyph glyph-name="NULL" horiz-adv-x="0" 
 />
    <glyph glyph-name="currency" unicode="&#xa4;" 
d="M1062 222l-101 -101l-156 157q-46 -31 -97.5 -46.5t-105.5 -15.5t-105.5 15.5t-97.5 46.5l-156 -157l-101 101l157 156q-31 46 -46.5 97.5t-15.5 105.5t15.5 105.5t46.5 97.5l-157 156l101 102l156 -157q46 30 97.5 45.5t105.5 15.5t105.5 -15.5t97.5 -45.5l156 157
l101 -102l-156 -156q61 -95 61 -203q0 -54 -15.5 -105.5t-45.5 -97.5zM380 581q0 -45 18 -85.5t48 -70.5t70.5 -48t85.5 -18t85.5 18t70.5 48t47.5 70.5t17.5 85.5t-17.5 85.5t-47.5 70.5t-70.5 47.5t-85.5 17.5t-85.5 -17.5t-70.5 -47.5t-48 -70.5t-18 -85.5z" />
    <glyph glyph-name="brokenbar" unicode="&#xa6;" 
d="M800 1520v-820h-200v800zM800 362v-762h-200v762h200z" />
    <glyph glyph-name="sfthyphen" unicode="&#xad;" horiz-adv-x="0" 
 />
    <glyph glyph-name="twosuperior" unicode="&#xb2;" 
d="M190 720v84q23 36 50 71.5l55 69l54.5 63.5l48.5 56q26 30 50.5 55t43 49.5t29.5 51t11 57.5q0 24 -9 45.5t-25.5 37t-39 25t-49.5 9.5q-30 0 -52.5 -8.5t-39 -22t-29 -30t-22.5 -33.5l-71 30q13 32 33.5 59.5t48 47t62.5 30.5t78 11q50 0 89.5 -18t67 -47t41.5 -66
t14 -75q0 -39 -14 -73.5t-35.5 -66t-46 -59l-44.5 -51.5l-52 -59.5l-50 -58l-44.5 -54.5t-35.5 -50h350v-80h-467z" />
    <glyph glyph-name="threesuperior" unicode="&#xb3;" 
d="M212 1390l8 80h390v-70q-6 -20 -20.5 -42t-33.5 -44t-42 -43.5l-46 -41.5l-66 -37q5 1 13 1.5t15 0.5q48 0 90 -12t72.5 -36.5t48.5 -61.5t18 -88q0 -48 -18 -87.5t-49.5 -70.5t-73.5 -53t-89.5 -36.5t-98.5 -21.5t-100 -7v80q41 1 81 7t76 17t66.5 26.5t53 36t35 47
t12.5 57.5q0 36 -15.5 60t-42 38t-62 20t-76.5 6q-16 0 -35 -1t-34 -2v78q21 15 45 34l48.5 39.5t47.5 42l42 40.5t32 36t17 28l-76 -20h-233z" />
    <glyph glyph-name="onesuperior" unicode="&#xb9;" 
d="M233 720v80h172v483l29 113l-68 -93l-106 -94l-54 61l229 210l75 -10v-670h173v-80h-450z" />
    <glyph glyph-name="onequarter" unicode="&#xbc;" 
d="M504 0h-125l575 1500h116zM131 720v80h172v483l29 113l-68 -93l-106 -94l-54 61l229 210l75 -10v-670h173v-80h-450zM1242 150h-90v-150h-105v150h-298v85l242 525l95 -10l-208 -450l-46 -70h215v203l105 -8v-195h97z" />
    <glyph glyph-name="onehalf" unicode="&#xbd;" 
d="M504 0h-125l575 1500h116zM131 720v80h172v483l29 113l-68 -93l-106 -94l-54 61l229 210l75 -10v-670h173v-80h-450zM813 0v84q23 36 50 71.5l55 69l54.5 63.5l48.5 56q26 30 50.5 55t43 49.5t29.5 51t11 57.5q0 24 -9 45.5t-25.5 37t-39 25t-49.5 9.5q-30 0 -52.5 -8.5
t-39 -22t-29 -30t-22.5 -33.5l-71 30q13 32 33.5 59.5t48 47t62.5 30.5t78 11q50 0 89.5 -18t67 -47t41.5 -66t14 -75q0 -39 -14 -73.5t-35.5 -66t-46 -59l-44.5 -51.5l-52 -59.5l-50 -58l-44.5 -54.5t-35.5 -50h350v-80h-467z" />
    <glyph glyph-name="threequarters" unicode="&#xbe;" 
d="M504 0h-125l575 1500h116zM1220 150h-90v-150h-105v150h-298v85l242 525l95 -10l-208 -450l-46 -70h215v203l105 -8v-195h97zM212 1390l8 80h390v-70q-6 -20 -20.5 -42t-33.5 -44t-42 -43.5l-46 -41.5l-66 -37q5 1 13 1.5t15 0.5q48 0 90 -12t72.5 -36.5t48.5 -61.5
t18 -88q0 -48 -18 -87.5t-49.5 -70.5t-73.5 -53t-89.5 -36.5t-98.5 -21.5t-100 -7v80q41 1 81 7t76 17t66.5 26.5t53 36t35 47t12.5 57.5q0 36 -15.5 60t-42 38t-62 20t-76.5 6q-16 0 -35 -1t-34 -2v78q21 15 45 34l48.5 39.5t47.5 42l42 40.5t32 36t17 28l-76 -20h-233z
" />
    <glyph glyph-name="Eth" unicode="&#xd0;" 
d="M0 855h200v435l-30 210q31 3 74 5t88.5 3.5t90 2t77.5 0.5q159 0 294.5 -39t234.5 -124t155 -218t56 -320q0 -146 -28 -262.5t-77.5 -206.5t-119 -154.5t-153 -106t-177.5 -61t-194 -19.5h-291v700h-200v155zM410 1150v-295h190v-155h-190v-540h20q145 0 246 30
t167.5 79.5t104 114t56 133.5t22.5 137t4 126q0 85 -9 161t-32 140t-62 115.5t-99 87.5t-143 55t-194 19q-16 0 -34 -1t-34 -3l-38 -4z" />
    <glyph glyph-name="multiply" unicode="&#xd7;" 
d="M750 627l425 -424l-124 -101l-375 375l-58 99l-18 -99l-375 -375l-125 101l426 424l-426 425l125 101l375 -376l58 -98l18 98l375 376l124 -101z" />
    <glyph glyph-name="Yacute" unicode="&#xdd;" 
d="M660 935l288 565h192l-435 -854v-646h-210v645l-436 855l204 20l288 -566l79 -249zM600 1900l230 20l-240 -320h-150z" />
    <glyph glyph-name="Thorn" unicode="&#xde;" 
d="M180 1500h220v-199h200q46 0 97 -9t101 -28.5t95.5 -51t80.5 -77.5t55.5 -107t20.5 -139q0 -58 -7.5 -120t-31 -119.5t-66.5 -107.5t-115 -85q-50 -24 -113.5 -40t-156.5 -16h-160v-401h-200v1299zM400 1151v-594h189q73 0 126 25.5t87.5 70t51 105t16.5 131.5
q0 62 -21 111t-60.5 82.5t-95 51t-124.5 17.5h-169z" />
    <glyph glyph-name="eth" unicode="&#xf0;" 
d="M414 1165l212 179l-119 -21q-50 26 -98.5 39t-102.5 13q-13 0 -22.5 -1t-12.5 -2l-25 143q16 2 31 2h30q110 0 207 -30t181 -85l138 117l97 -115l-184 -155h117q52 -62 93.5 -134.5t69.5 -153.5t43 -168t15 -176q0 -54 -7 -122t-25.5 -138.5t-50.5 -137.5t-83.5 -119.5
t-123.5 -84.5t-170 -32q-108 0 -188 35t-132.5 99t-78 152.5t-25.5 196.5q0 223 102 340.5t299 117.5q34 0 62.5 -4t55 -13t52.5 -24.5t56 -38.5l83 -117q-9 62 -29 125t-50 122.5t-69 114.5t-84 102l-167 -141zM909 604q-18 26 -48.5 54t-69.5 51.5t-84 39t-91 15.5
q-69 0 -114.5 -24.5t-72.5 -67t-38 -100t-11 -124.5q0 -66 15.5 -122t46 -96.5t76 -63.5t105.5 -23q61 0 106.5 21t78.5 57t54 84.5t32 103.5t13 100.5t2 94.5z" />
    <glyph glyph-name="yacute" unicode="&#xfd;" 
d="M721 364l269 736l180 20l-404 -1137q-30 -84 -64.5 -167t-78 -149t-98 -106.5t-124.5 -40.5q-56 0 -103 22t-89 58l73 117q6 -6 15.5 -14t21 -15.5t25 -12.5t27.5 -5q36 0 65.5 25.5t55 66.5t47 91l41.5 100l-407 1147l190 20l264 -756l52 -232zM715 1500l230 20
l-240 -320h-150z" />
    <glyph glyph-name="thorn" unicode="&#xfe;" 
d="M349 1520v-517q50 43 112 71q94 43 208 43q111 0 202 -42.5t156.5 -118t101.5 -179t36 -224.5q0 -122 -34.5 -226t-99 -180.5t-156.5 -120t-206 -43.5q-111 0 -204 43q-64 31 -116 77v-503h-200v1900zM975 526q0 81 -17 159t-54 139.5t-96 99.5t-143 38q-80 0 -139 -33
t-97 -88t-56.5 -125t-18.5 -144q0 -81 18.5 -159t57 -139t99 -98.5t144.5 -37.5q79 0 136.5 33t94 87.5t54 124t17.5 143.5z" />
    <glyph glyph-name="Scaron" unicode="&#x160;" 
d="M195 94l91 150q20 -13 52.5 -29.5t72.5 -31.5t85 -25t91 -10q62 0 124.5 15.5t113 48t82 82.5t31.5 119q0 65 -30 114t-79 88t-112 71l-128.5 64t-128.5 66.5t-112 78.5t-79 100t-30 131q0 97 41 170t107 122t150 74t170 25q213 0 393 -120l-97 -123q-68 40 -130.5 59
t-139.5 19q-54 0 -108.5 -11t-98 -35.5t-71 -64t-27.5 -96.5q0 -56 30.5 -97t80 -73.5t112.5 -61l129.5 -59t129.5 -67t112.5 -86t80 -116t30.5 -156.5q0 -112 -45.5 -195.5t-120 -139t-170.5 -83.5t-196 -28q-64 0 -119 7.5t-104.5 21.5t-94.5 34.5t-88 47.5zM796 1600
l-200 20l-176 280h150l111 -133l20 -77l20 78l110 132h150z" />
    <glyph glyph-name="scaron" unicode="&#x161;" 
d="M1020 899q-19 9 -45.5 20.5t-59.5 21t-72.5 16t-84.5 6.5q-61 0 -119 -6t-103 -22t-72.5 -43t-27.5 -70q0 -36 27 -61.5t70.5 -44t98.5 -32t111 -25.5l108 -23.5t90 -25.5q44 -17 82.5 -43t67.5 -60.5t45.5 -76t16.5 -89.5q0 -65 -25 -116.5t-67.5 -91t-98.5 -68
t-118.5 -47t-127 -27t-123.5 -8.5q-34 0 -84.5 6.5t-103 18t-99.5 27.5t-73 34l66 142q24 -12 63 -24t82 -22t83.5 -16t67.5 -6q31 0 69.5 3.5t79 12t79 23t68.5 36.5t48.5 52t18.5 70q0 39 -26 66t-69 46t-96.5 32.5t-109.5 25.5t-108 24.5t-91 31.5q-57 27 -94.5 58.5
t-60 66.5t-31.5 73t-9 78q0 71 40.5 123t108.5 85.5t156 50t184 16.5q52 0 101.5 -6t93 -16t77.5 -22.5t54 -25.5zM796 1220l-200 20l-176 280h150l111 -133l20 -77l20 78l110 132h150z" />
    <glyph glyph-name="Alpha" unicode="&#x391;" 
d="M32 0l472 1300l35 200l178 20l548 -1520h-200l-148 450h-535l-166 -450h-184zM645 1400l-45 -320l-169 -480h437l-178 480z" />
    <glyph glyph-name="Beta" unicode="&#x392;" 
d="M210 0v1290l-30 200q60 8 123.5 14t128.5 6q116 0 221 -14.5t184.5 -52.5t126.5 -104.5t47 -169.5q0 -109 -47 -188t-134 -121l-154 -44l147 -14q61 -18 115 -46.5t93.5 -69.5t62.5 -97t23 -129q0 -85 -22.5 -152t-61.5 -118t-91 -87.5t-111.5 -59t-123.5 -33t-127 -10.5
h-370zM395 160h110q99 0 176.5 14.5t131 48t81.5 89t28 138.5q0 75 -26 128t-73.5 87t-114.5 49.5t-148 15.5h-165v-570zM395 1147v-262h105q61 3 120.5 19t106 47.5t75 80t28.5 116.5q0 66 -30.5 109.5t-78.5 68.5t-107.5 35t-116.5 10q-34 0 -70.5 -2.5t-67.5 -8.5z" />
    <glyph glyph-name="Gamma" unicode="&#x393;" 
d="M400 1150v-1150h-200v1300l-17 200h837v-150h-635z" />
    <glyph glyph-name="Deltagreek" unicode="&#x394;" 
d="M521 1500l217 20l483 -1520h-1172zM936 160l126 -52l-85 92l-311 1058l-30 167l-30 -167l-311 -1058l-82 -92l123 52h600z" />
    <glyph glyph-name="Epsilon" unicode="&#x395;" 
d="M1135 160l-20 -160h-920l15 200v1090l-30 210h920v-160h-725l20 -190v-265h635v-145h-635v-400l-10 -180h750z" />
    <glyph glyph-name="Zeta" unicode="&#x396;" 
d="M1061 160l20 -160h-940l-20 50l565 1150l184 180l-265 -40h-395l-20 160h826l15 -22l-571 -1178l-178 -180l265 40h514z" />
    <glyph glyph-name="Eta" unicode="&#x397;" 
d="M875 0v725h-568v-725h-190v1290l-29 210l219 20v-635h568v615l190 20v-1520h-190z" />
    <glyph glyph-name="Theta" unicode="&#x398;" horiz-adv-x="1200" 
d="M360 835h540l-20 -170h-540zM624 -17q-90 0 -165.5 27.5t-137 78t-107.5 120.5t-77.5 155.5t-47 183t-15.5 202.5t15 202.5t45.5 183t76 155.5t106.5 120.5t138 78t169 27.5q90 0 165.5 -27.5t137 -78t107.5 -120.5t77.5 -155.5t47 -183t15.5 -202.5t-15 -202.5
t-45.5 -183t-76 -155.5t-106.5 -120.5t-138 -78t-169 -27.5zM966 719q0 70 -4.5 143t-18 142.5t-37.5 131t-62.5 107t-94 72.5t-131.5 27q-72 0 -125 -24t-90 -65.5t-61 -97t-37 -117.5t-18 -127t-5 -126q0 -71 4.5 -145t18 -143.5t37.5 -131t63 -107.5t94 -73t131 -27
q71 0 123.5 24.5t90 67t61.5 98t37.5 118t18.5 127.5t5 126z" />
    <glyph glyph-name="Iota" unicode="&#x399;" 
d="M206 1500h900v-160h-358v-1180h378l-20 -160h-900v160h356v1180h-376z" />
    <glyph glyph-name="Kappa" unicode="&#x39a;" 
d="M204 0v1290l-30 210l221 20v-664l546 644h222l-531 -635l-169 -63l174 -58l553 -744h-237l-558 746v-746h-191z" />
    <glyph glyph-name="Lambda" unicode="&#x39b;" 
d="M675 1100l-36 260l-36 -260l-357 -1100h-184l423 1300l35 200l217 20l498 -1520h-200z" />
    <glyph glyph-name="Mu" unicode="&#x39c;" 
d="M973 0v901l59 498l-5 1l-154 -479l-173 -421h-100l-176 420l-164 480l-6 -1l74 -498v-901h-180v1290l-28 210l214 20l246 -570l71 -250l69 250l226 550l207 20v-1520h-180z" />
    <glyph glyph-name="Nu" unicode="&#x39d;" 
d="M945 0l-495 948l-159 413l-6 -1l65 -440v-920h-180v1290l-30 210l201 20l496 -963l166 -417l6 1l-79 439v920l180 20v-1520h-165z" />
    <glyph glyph-name="Xi" unicode="&#x39e;" 
d="M200 885h800v-174h-800v174zM100 174h1000v-174h-1000v174zM100 1500h1000v-174h-1000v174z" />
    <glyph glyph-name="Omicron" unicode="&#x39f;" 
d="M824 -17q-90 0 -165.5 27.5t-137 78t-107.5 120.5t-77.5 155.5t-47 183t-15.5 202.5t15 202.5t45.5 183t76 155.5t106.5 120.5t138 78t169 27.5q90 0 165.5 -27.5t137 -78t107.5 -120.5t77.5 -155.5t47 -183t15.5 -202.5t-15 -202.5t-45.5 -183t-76 -155.5t-106.5 -120.5
t-138 -78t-169 -27.5zM1166 719q0 70 -4.5 143t-18 142.5t-37.5 131t-62.5 107t-94 72.5t-131.5 27q-72 0 -125 -24t-90 -65.5t-61 -97t-37 -117.5t-18 -127t-5 -126q0 -71 4.5 -145t18 -143.5t37.5 -131t63 -107.5t94 -73t131 -27q71 0 123.5 24.5t90 67t61.5 98t37.5 118
t18.5 127.5t5 126z" />
    <glyph glyph-name="Rho" unicode="&#x3a1;" 
d="M443 0h-190v1290l-35 200q30 5 70.5 9t85.5 7t91 4.5t85 1.5q170 0 293.5 -30.5t203.5 -85t118.5 -130.5t38.5 -167q0 -135 -48 -226t-143 -146.5t-238 -79t-332 -23.5v-624zM443 1147v-382q152 0 260 17t177 55.5t101 101.5t32 156q0 67 -38.5 118.5t-99.5 86t-135 52.5
t-145 18q-17 0 -40.5 -0.5t-47.5 -2t-46.5 -3.5t-37.5 -5z" />
    <glyph glyph-name="Sigma" unicode="&#x3a3;" 
d="M830 700l-357 -383l-227 -192l249 45h606v-170h-1021l20 183l500 517l153 50l-153 50l-500 517l-20 183h1021v-170h-606l-249 45l227 -192l357 -383v-100z" />
    <glyph glyph-name="Tau" unicode="&#x3a4;" 
d="M555 0v1340h-425v160h1035v-160h-420v-1340h-190z" />
    <glyph glyph-name="Upsilon" unicode="&#x3a5;" 
d="M660 935l288 565h192l-435 -854v-646h-210v645l-436 855l204 20l288 -566l79 -249z" />
    <glyph glyph-name="Phi" unicode="&#x3a6;" 
d="M500 204q-71 9 -138 30q-169 51 -255 179.5t-86 336.5q0 207 86 336t255 180q70 22 138 29v205l199 20v-225q70 -7 139 -29q169 -51 256 -180t87 -336q0 -208 -86.5 -336.5t-255.5 -179.5q-67 -21 -140 -30v-204h-199v204zM699 361q149 20 226 116.5t77 272.5
q0 178 -76 273t-227 116v-778zM500 1139q-149 -20 -225 -116t-76 -273q0 -176 76.5 -272t224.5 -117v778z" />
    <glyph glyph-name="Chi" unicode="&#x3a7;" 
d="M978 0l-277 519l-77 181l-48 -160l-308 -540h-198l463 799l-406 701l212 20l261 -464l80 -196l35 160l252 480h200l-399 -724l430 -776h-220z" />
    <glyph glyph-name="Psi" unicode="&#x3a8;" 
d="M700 1520v-915q61 4 102.5 16t66.5 40t35.5 74.5t10.5 118.5v646h205v-627q0 -119 -28 -199.5t-82 -130.5t-132 -74.5t-178 -31.5v-436h-200v435q-108 9 -187 40.5t-130.5 90.5t-77 147t-25.5 209v367l-30 210l235 20v-616q0 -78 12.5 -131.5t38.5 -88t66.5 -52
t97.5 -24.5v892z" />
    <glyph glyph-name="Omegagreek" unicode="&#x3a9;" 
d="M100 160h148l151 -60l-144 139q-30 29 -54.5 82t-42 123.5t-27 154.5t-9.5 176q0 165 21.5 301.5t80 234.5t161 152t263.5 54q157 0 259 -54t161.5 -152t82.5 -234.5t23 -301.5q0 -91 -10 -175t-27 -154.5t-40 -123t-50 -80.5l-150 -142l150 60h148v-160h-448v200
q70 49 113.5 104t66.5 120.5t31 144t8 175.5q0 120 -13.5 229t-49.5 192t-99 132.5t-162 49.5q-93 0 -153.5 -44t-95.5 -118t-49 -171t-14 -204q0 -112 7 -201.5t30 -162.5t66 -133t115 -113v-200h-448v160z" />
    <glyph glyph-name="alpha" unicode="&#x3b1;" 
d="M1027 996q-78 -58 -82 -145q-2 -45 -3.5 -119t-1.5 -180q0 -108 1.5 -178t3.5 -105q3 -35 13 -62t24.5 -46.5t32 -29.5t35.5 -10q22 0 33 1.5t23 3.5l53 -116q-56 -27 -119 -27q-134 0 -201 69l-49 144l-50 -112q-27 -31 -53 -50.5t-52.5 -31t-55 -15.5t-60.5 -4
q-111 0 -190 43.5t-130 120t-75 180.5t-24 226q0 121 22.5 224.5t72.5 179t130 118t194 42.5q32 0 61 -5t56 -17t53.5 -32.5t53.5 -51.5l47 -111l49 138q19 17 44 32.5t57 29.5zM750 526q0 81 -5 159t-28 139.5t-70.5 99.5t-131.5 38q-80 0 -125.5 -33t-67.5 -88t-27 -125
t-5 -144q0 -81 5 -159t27.5 -139t69.5 -98.5t131 -37.5q79 0 124.5 33t68.5 87.5t28.5 124t5.5 143.5z" />
    <glyph glyph-name="beta" unicode="&#x3b2;" 
d="M622 -17q-69 0 -128.5 10t-93.5 22v-532l-200 17v1611q0 105 30.5 181.5t88 126.5t140 74t185.5 24q81 0 151.5 -23t123 -67.5t83 -109.5t30.5 -148q0 -109 -50 -188t-132 -121l-146 -44l140 -14q65 -23 117.5 -52t89.5 -70.5t57 -99t20 -137.5q0 -116 -41 -202.5
t-110.5 -143.5t-161 -85.5t-193.5 -28.5zM390 200q14 -10 36.5 -20t50 -18.5t57.5 -13.5t60 -5q75 0 138 16t108.5 50.5t71.5 89.5t26 134q0 75 -31 131t-83.5 92.5t-122.5 55t-147 18.5l-84 155q33 0 71 2.5t75.5 9.5t72.5 18.5t61 29.5q45 32 72.5 81.5t27.5 121.5
q0 46 -17 86t-46 70t-67 47.5t-79 17.5q-47 0 -92 -12t-80.5 -37.5t-57 -65t-21.5 -94.5v-960z" />
    <glyph glyph-name="gamma" unicode="&#x3b3;" 
d="M100 1117q37 0 78 -3t79 -19.5t72 -52.5t58 -102l211 -576l52 -232l52 232l269 736l182 20l-410 -1137v-483h-192v453l-333 916q-17 45 -37 68.5t-38 34.5q-21 13 -43 15v130z" />
    <glyph glyph-name="delta" unicode="&#x3b4;" 
d="M600 127q63 0 116 30.5t90.5 84t58.5 126.5t21 158q0 43 -7.5 89t-23 90t-38.5 83t-54.5 68.5t-71.5 47t-88 17.5q-145 0 -218 -101.5t-73 -293.5q0 -85 20 -158t57.5 -126.5t91 -84t119.5 -30.5zM960 1500l-43 -158h-352q-35 0 -64 -2.5t-50 -8.5t-33 -17.5t-12 -29.5
q0 -17 18 -35t46.5 -36t64 -35l70.5 -33l66.5 -29.5t51.5 -24.5q95 -51 166 -106t118 -122t70 -149t23 -188q0 -108 -39 -206t-106.5 -173t-158 -119.5t-192.5 -44.5q-111 0 -202 48.5t-156 127t-101 178.5t-36 202q0 68 14.5 138.5t48 134.5t89 117t136.5 86h203l-101 44
q-65 21 -115.5 43.5t-85.5 49t-53 60t-18 77.5q0 50 16 85.5t43.5 58.5t63.5 36.5t75.5 20.5t80 8.5t77.5 1.5h377z" />
    <glyph glyph-name="epsilon" unicode="&#x3b5;" 
d="M920 633l-20 -133h-254q-36 0 -70 -14.5t-59.5 -40t-41 -60t-15.5 -73.5t19 -71t53 -55.5t80.5 -36t102.5 -12.5q59 0 104 9.5t75 21.5q35 14 61 32l90 -101q-30 -32 -80 -58q-43 -22 -114 -40t-176 -18q-69 0 -141 20t-130.5 61t-96 103t-37.5 146q0 86 35 148.5
t94 102.5q-59 38 -94 99t-35 147q0 84 37.5 142t96 95t130.5 53.5t141 16.5q57 0 107.5 -8.5t88.5 -18.5q45 -11 83 -26l-56 -120q-25 5 -54 9q-25 4 -58 7t-71 3q-56 0 -102.5 -13.5t-80.5 -37t-53 -55t-19 -66.5q0 -32 15 -61t40.5 -50.5t59.5 -34t71 -12.5h274z" />
    <glyph glyph-name="zeta" unicode="&#x3b6;" 
d="M1020 1500l-20 -158l-127 -109.5t-132 -126.5t-125 -139t-105 -147t-72 -151.5t-27 -151.5q0 -52 7.5 -98t29.5 -88.5t62.5 -83.5t105.5 -83q46 -30 92 -54l88.5 -47.5t78.5 -48.5t63 -56t42 -70t15 -91q0 -50 -20.5 -96t-56 -86t-83 -73.5t-102.5 -58.5l-90 131
q32 16 60.5 35t49.5 39.5t33.5 43t12.5 46.5q0 45 -26 78t-68 61t-96 54.5t-110 58.5q-70 40 -123.5 87.5t-89.5 104t-54 123.5t-18 147q0 114 32.5 222.5t82 204t107 174t108.5 131.5l263 145l-168 -27h-360l20 158h720z" />
    <glyph glyph-name="eta" unicode="&#x3b7;" 
d="M390 0h-190v1100l190 20v-183l61 107q18 12 46 25t62.5 23.5t74.5 17.5t81 7q79 0 133.5 -25.5t88.5 -73.5t48.5 -116t14.5 -152v-1250h-190v1250q0 54 -7.5 93t-26 64.5t-49.5 37.5t-77 12q-34 0 -69 -10.5t-68.5 -27t-65 -36.5t-57.5 -39v-844z" />
    <glyph glyph-name="theta" unicode="&#x3b8;" 
d="M600 -17q-93 0 -166 32.5t-128.5 88.5t-94.5 131t-63.5 160.5t-36 176.5t-11.5 178q0 88 11.5 179t36 176t63.5 160t94.5 131t128.5 88.5t166 32.5q92 0 165.5 -32.5t129 -88.5t94.5 -131t63.5 -160t36 -176t11.5 -179q0 -87 -11.5 -178t-36 -176t-63.5 -160.5
t-94.5 -131.5t-129 -88.5t-165.5 -32.5zM282 820h636q-3 59 -12.5 121.5t-26 122t-41.5 112t-59.5 92.5t-79 63t-99.5 23q-56 0 -100 -23t-78.5 -63t-59.5 -92.5t-41.5 -112t-26 -122t-12.5 -121.5zM282 670q4 -58 13.5 -119.5t26.5 -120t42 -110t59 -90.5t78 -61.5
t99 -22.5q76 0 131.5 43t93 115t60 167t32.5 199h-635z" />
    <glyph glyph-name="iota" unicode="&#x3b9;" 
d="M500 902l-20 198l210 20v-731q0 -26 1.5 -56.5t3.5 -65.5q5 -69 32.5 -103.5t72.5 -34.5q22 0 33 1.5t17 3.5l69 -126q-17 -9 -49 -17t-70 -8q-102 0 -161.5 32t-90 88.5t-39.5 133.5t-9 166v499z" />
    <glyph glyph-name="kappa" unicode="&#x3ba;" 
d="M300 0v919l-20 181l200 20v-476l370 456l200 20l-350 -450l-154 -70l154 -70l400 -528h-200l-420 552v-554h-180z" />
    <glyph glyph-name="lambda" unicode="&#x3bb;" 
d="M650 968l-52 -232l-268 -736h-196l417 1147q-20 49 -44.5 99.5t-53 90.5t-59.5 65.5t-64 25.5q-24 0 -46 -10t-39 -22l-73 107q42 36 90.5 56.5t99.5 20.5q68 0 124.5 -40.5t103 -106.5t84.5 -149t68 -167l403 -1117h-174l-269 736z" />
    <glyph glyph-name="uni03BC" unicode="&#x3bc;" 
d="M200 1100l190 20v-755q0 -44 4.5 -86.5t25 -76.5t61.5 -54.5t115 -20.5q60 0 115.5 23t98.5 72v878l190 20v-1120h-190v129q-40 -47 -79 -75.5t-76.5 -43.5t-73.5 -20t-71 -5q-37 0 -74 6.5t-66 19.5l20 -161v-350h-190v1600z" />
    <glyph glyph-name="nu" unicode="&#x3bd;" 
d="M507 0l-383 1100h193l277 -805l46 -220l48 220l277 805h191l-382 -1100h-267z" />
    <glyph glyph-name="xi" unicode="&#x3be;" 
d="M500 30q-47 26 -97 65t-91.5 90t-68.5 114t-27 138q0 73 14.5 128t40 96.5t58.5 69.5t71 47l134 12l-134 57q-24 22 -45.5 49.5t-38 59t-26 67t-9.5 74.5t6.5 76.5t20.5 71t36.5 63t55.5 51.5l100 41q-64 0 -116.5 11t-90 34t-58 58t-20.5 84h195q0 -7 6.5 -21.5
t21.5 -29t39.5 -25.5t60.5 -11h483l-21 -158h-263q-23 0 -52 -6.5t-59 -20t-58.5 -33.5t-51 -47t-36 -61.5t-13.5 -76.5q0 -55 26.5 -95t64 -66t77 -38.5t66.5 -12.5h229l-25 -146q-51 0 -106.5 -2.5t-109.5 -12.5t-102.5 -29t-85.5 -51t-58.5 -80.5t-21.5 -116.5
q0 -35 11 -72.5t35 -74.5t61 -71.5t89 -64.5q47 -27 94 -50.5t89 -47t78 -49t62 -57.5t41 -71.5t15 -91.5q0 -50 -20.5 -96t-56 -86t-83 -73.5t-102.5 -58.5l-90 131q32 16 60.5 35t49.5 39.5t33.5 43t12.5 46.5q0 45 -26 78t-68 61t-96 54.5t-110 58.5z" />
    <glyph glyph-name="omicron" unicode="&#x3bf;" 
d="M649 -17q-111 0 -203.5 43.5t-159.5 120t-104.5 180.5t-37.5 226q0 121 36 224.5t102 179t159.5 118t207.5 42.5q111 0 202 -42.5t156.5 -118t101.5 -179t36 -224.5q0 -122 -34.5 -226t-99 -180.5t-156.5 -120t-206 -43.5zM955 526q0 81 -17 159t-54 139.5t-96 99.5
t-143 38q-80 0 -139 -33t-97 -88t-56.5 -125t-18.5 -144q0 -81 18.5 -159t57 -139t99 -98.5t144.5 -37.5q79 0 136.5 33t94 87.5t54 124t17.5 143.5z" />
    <glyph glyph-name="sigma1" unicode="&#x3c2;" 
d="M930 885l-25 -146q-51 0 -106.5 -2.5t-109.5 -12.5t-102.5 -29t-85.5 -51t-58.5 -80.5t-21.5 -116.5q0 -35 11 -72.5t35 -74.5t61 -71.5t89 -64.5q47 -27 94 -50.5t89 -47t78 -49t62 -57.5t41 -71.5t15 -91.5q0 -50 -20.5 -96t-56 -86t-83 -73.5t-102.5 -58.5l-90 131
q32 16 60.5 35t49.5 39.5t33.5 43t12.5 46.5q0 45 -26 78t-68 61t-96 54.5t-110 58.5q-47 26 -97 65t-91.5 90t-68.5 114t-27 138q0 57 12 112.5t39.5 105.5t72 92t109 72.5t151.5 48t200 17.5h130z" />
    <glyph glyph-name="sigma" unicode="&#x3c3;" 
d="M100 551q0 75 13 146.5t39.5 134.5t67 116t96 91t126.5 59.5t158 21.5h600v-140h-100l-167 15l105 -142q32 -69 47 -144.5t15 -157.5q0 -117 -29 -220t-90 -180.5t-155.5 -122.5t-225.5 -45t-225.5 47t-155.5 125.5t-90 181.5t-29 214zM270 551q0 -77 20 -153.5
t60.5 -137.5t103 -99t146.5 -38t146.5 38t103 99t60.5 137.5t20 153.5q0 78 -20 155t-60.5 138t-103 99t-146.5 38t-146.5 -38.5t-103 -100t-60.5 -138.5t-20 -153z" />
    <glyph glyph-name="tau" unicode="&#x3c4;" 
d="M759 942v-677q0 -38 4.5 -69t15.5 -61t30 -62.5t49 -72.5h-211q-49 35 -64.5 111.5t-15.5 191.5v639h-367l20 158h880l-20 -158h-321z" />
    <glyph glyph-name="upsilon" unicode="&#x3c5;" 
d="M599 497q0 -90 4.5 -159t23.5 -115.5t57 -70t105 -23.5q65 0 103 21t57.5 58t24.5 86.5t5 105.5v332q0 80 -22.5 133t-54 84.5t-66 44.5t-57.5 13v110q83 0 154 -24.5t123.5 -70.5t82.5 -112.5t30 -150.5q0 -112 -0.5 -178.5t-0.5 -104t-0.5 -54.5t-0.5 -31
q0 -43 -3.5 -90t-16.5 -92.5t-37.5 -86.5t-66.5 -72t-104.5 -49t-149.5 -18q-89 0 -151 19.5t-104 53t-66.5 77.5t-37 92t-16 97.5t-3.5 93.5v429q0 60 -20.5 94.5t-67.5 34.5q-49 0 -79 -34.5t-30 -94.5h-114q0 51 15 99.5t44.5 87t72.5 62t99 23.5q60 0 109 -19.5
t84.5 -55.5t55 -86t19.5 -111v-348z" />
    <glyph glyph-name="phi" unicode="&#x3c6;" 
d="M743 1120v-123q33 -4 66 -10t65 -16q160 -46 241.5 -164.5t81.5 -306.5q0 -191 -81 -307t-241 -163q-62 -19 -132 -28v-502h-192v502q-67 9 -130 27q-160 48 -240.5 164t-80.5 307q0 188 80.5 306.5t240.5 164.5q32 9 64 15.5t66 10.5v103zM743 145q140 20 212 106.5
t72 248.5t-71 249t-213 105v-709zM551 854q-140 -19 -211 -105.5t-71 -248.5q0 -161 71 -248t211 -107v709z" />
    <glyph glyph-name="chi" unicode="&#x3c7;" 
d="M691 53l-77 177l-48 -160l-265 -570h-198l420 829l-255 540q-23 41 -44 64.5t-38 35.5q-19 14 -36 18v130q37 0 76 -7t76.5 -28t72 -59.5t62.5 -101.5l237 -529l31 158l248 550h200l-395 -794l273 -571q23 -42 44 -65t38 -35q19 -14 37 -18v-134q-38 0 -74.5 5.5
t-72.5 24t-71 54.5t-70 97z" />
    <glyph glyph-name="psi" unicode="&#x3c8;" 
d="M100 800l190 20v-323q0 -72 7.5 -138.5t30 -117.5t63.5 -81.5t109 -30.5q3 -1 9 -1h39v972l192 20v-992h60q68 0 109 31t63.5 82t30 117.5t7.5 138.5v175q0 80 -3.5 142.5t-15.5 105t-35.5 65t-62.5 22.5v110q83 0 141.5 -34t95 -91t53.5 -133t17 -160v-204
q0 -40 -2.5 -93t-14.5 -110t-37 -112.5t-69.5 -99t-112 -70.5t-164.5 -27h-60v-483h-192v483h-48q-97 0 -164.5 27t-112 70.5t-69.5 99t-37 112.5t-14.5 110t-2.5 93v305z" />
    <glyph glyph-name="omega" unicode="&#x3c9;" 
d="M794 725v-243q0 -71 3 -135t17 -112.5t43.5 -77t82.5 -28.5q60 0 92.5 29.5t47.5 83t17.5 127t2.5 161.5q0 92 -12 163.5t-31 124.5t-43 89t-48.5 58.5t-47 32t-37.5 9.5v110q83 0 157 -45t130 -121t89 -177.5t33 -213.5v-103q0 -55 -3 -111.5t-15 -109t-34.5 -98.5
t-61.5 -80.5t-96.5 -54.5t-139.5 -20q-51 0 -89 10t-67 28.5t-49 43.5t-35 55q-15 -30 -35 -55t-48.5 -43.5t-67 -28.5t-88.5 -10q-82 0 -139.5 20t-96.5 54.5t-61.5 81t-34.5 99t-15 108.5t-3 111v103q0 112 31.5 213.5t85.5 177.5t126.5 121t155.5 45v-110
q-23 0 -58.5 -22.5t-69 -77.5t-57.5 -146.5t-24 -230.5q0 -88 2.5 -161.5t17.5 -127t47.5 -83t92.5 -29.5q53 0 82.5 28.5t43.5 77t17 112.5t3 135v263z" />
    <glyph glyph-name="theta1" unicode="&#x3d1;" 
d="M309 484q15 -68 31.5 -129t43 -107.5t66 -74t100.5 -27.5q72 0 121 39.5t80.5 108t48.5 160t24 196.5h-374q-78 0 -142.5 12t-110.5 48t-71.5 100.5t-25.5 169.5q0 62 12.5 126.5t37.5 124t62.5 111.5t87.5 91t112.5 61.5t137.5 22.5q88 0 154.5 -29.5t115.5 -81t82 -121
t53.5 -149t30.5 -165.5t13 -171h223l-20 -150h-206q-6 -82 -18 -163t-33.5 -155t-54.5 -138t-80.5 -110.5t-111.5 -73.5t-148 -27q-93 0 -158 33t-111 89t-77.5 131.5t-56.5 160.5zM550 1354q-75 0 -128 -33t-86.5 -87t-49 -122.5t-15.5 -139.5q0 -65 15.5 -99.5t49 -51
t86.5 -19t128 -2.5h275q-5 109 -19 209.5t-45 177t-82 122t-129 45.5z" />
    <glyph glyph-name="Upsilon1" unicode="&#x3d2;" 
d="M1181 1517v-130q-23 -2 -46 -13q-20 -10 -42.5 -30t-39.5 -55l-310 -631v-658h-192v658l-310 631q-18 35 -40 55t-42 30q-23 11 -46 13v130q37 0 70.5 -4.5t66 -22.5t64 -53.5t66.5 -96.5l190 -340l81 -249l73 249l190 340q34 61 66 96.5t64.5 53.5t65.5 22.5t71 4.5z
" />
    <glyph glyph-name="phi1" unicode="&#x3d5;" 
d="M551 -3q-200 23 -300.5 146t-100.5 352q0 93 20 165t50 125.5t65 90.5t65 61l96 -138q-21 -18 -43 -42t-41 -59t-31 -84t-12 -119q0 -80 11.5 -141t38.5 -105.5t71.5 -71.5t110.5 -37v654q0 54 19.5 90t50 57.5t69 30.5t77.5 9q93 0 164 -38t119 -104t72.5 -154.5
t24.5 -189.5q0 -230 -102.5 -353t-301.5 -145v-497h-192v497zM806 835q-27 0 -45.5 -12t-18.5 -48v-637q67 12 112 39t72.5 71t39 105.5t11.5 141.5q0 70 -7.5 132t-27 108t-52.5 73t-84 27z" />
    <glyph glyph-name="omega1" unicode="&#x3d6;" 
d="M1277 942h-161l88 -57q16 -28 31.5 -60.5t27.5 -77t19.5 -106t7.5 -146.5v-51q0 -43 -3 -94t-14 -102.5t-33 -99t-61 -84.5t-97.5 -59t-141.5 -22q-54 0 -93 10t-67 28.5t-46.5 43.5t-33.5 55q-15 -30 -33.5 -55t-46.5 -43.5t-66.5 -28.5t-92.5 -10q-83 0 -141.5 22
t-97.5 59t-61 84.5t-33 99t-14 102.5t-3 94v51q0 85 7.5 146.5t19.5 106t27.5 77t31.5 60.5l88 57h-168l20 158h1160zM794 725v-261q0 -68 2.5 -129t16 -107t43 -72.5t84.5 -26.5q53 0 84.5 30.5t48.5 81.5t22 117.5t5 138.5q0 108 -9.5 183.5t-25 127t-35.5 83t-41 51.5
h-578q-21 -20 -41 -51.5t-35 -83t-24.5 -127t-9.5 -183.5q0 -72 5 -138.5t22 -117.5t48.5 -81.5t84.5 -30.5q55 0 84.5 26.5t43 72.5t16 107t2.5 129v281z" />
    <glyph glyph-name="hyphentwo" unicode="&#x2010;" 
d="M400 600h500v-155h-500v155z" />
    <glyph glyph-name="quotationdash" unicode="&#x2015;" 
d="M0 600h1200v-155h-1200v155z" />
    <glyph glyph-name="doubleverticalline" unicode="&#x2016;" 
d="M555 1500v-1500h-155v1500h155zM855 1500v-1500h-155v1500h155z" />
    <glyph glyph-name="triangularbullet" unicode="&#x2023;" 
d="M400 956l500 -306l-500 -300v606z" />
    <glyph glyph-name="pertenthousandsign" unicode="&#x2031;" horiz-adv-x="2600" 
d="M1542 -17q-70 0 -119.5 27.5t-80.5 76t-45 115t-14 143.5q0 76 13 141.5t43.5 112.5t80 74t122.5 27q70 0 119 -27t80 -74t45 -112.5t14 -141.5q0 -77 -13.5 -143.5t-43.5 -115t-79.5 -76t-121.5 -27.5zM1651 393q0 35 -3 67t-14 56t-33 38.5t-60 14.5q-37 0 -58 -13
t-31.5 -35t-13.5 -51.5t-3 -62.5v-101q0 -36 3 -68.5t14 -57t33.5 -39t60.5 -14.5q36 0 57 13t31.5 35t13.5 51.5t3 61.5v105zM2142 -17q-70 0 -119.5 27.5t-80.5 76t-45 115t-14 143.5q0 76 13 141.5t43.5 112.5t80 74t122.5 27q70 0 119 -27t80 -74t45 -112.5t14 -141.5
q0 -77 -13.5 -143.5t-43.5 -115t-79.5 -76t-121.5 -27.5zM2251 393q0 35 -3 67t-14 56t-33 38.5t-60 14.5q-37 0 -58 -13t-31.5 -35t-13.5 -51.5t-3 -62.5v-101q0 -36 3 -68.5t14 -57t33.5 -39t60.5 -14.5q36 0 57 13t31.5 35t13.5 51.5t3 61.5v105zM395 0h-166l676 1500
h166zM359 800q-70 0 -119.5 27.5t-80.5 76t-45 115t-14 143.5q0 76 13 141.5t43.5 112.5t80 74t122.5 27q70 0 119 -27t80 -74t45 -112.5t14 -141.5q0 -77 -13.5 -143.5t-43.5 -115t-79.5 -76t-121.5 -27.5zM468 1210q0 35 -3 67t-14 56t-33 38.5t-60 14.5q-37 0 -58 -13
t-31.5 -35t-13.5 -51.5t-3 -62.5v-101q0 -36 3 -68.5t14 -57t33.5 -39t60.5 -14.5q36 0 57 13t31.5 35t13.5 51.5t3 61.5v105zM942 -17q-70 0 -119.5 27.5t-80.5 76t-45 115t-14 143.5q0 76 13 141.5t43.5 112.5t80 74t122.5 27q70 0 119 -27t80 -74t45 -112.5t14 -141.5
q0 -77 -13.5 -143.5t-43.5 -115t-79.5 -76t-121.5 -27.5zM1051 393q0 35 -3 67t-14 56t-33 38.5t-60 14.5q-37 0 -58 -13t-31.5 -35t-13.5 -51.5t-3 -62.5v-101q0 -36 3 -68.5t14 -57t33.5 -39t60.5 -14.5q36 0 57 13t31.5 35t13.5 51.5t3 61.5v105z" />
    <glyph glyph-name="prime" unicode="&#x2032;" 
d="M448 1245l-164 -360h-85l70 360v275l179 -20v-255z" />
    <glyph glyph-name="doubleprime" unicode="&#x2033;" 
d="M448 1245l-164 -360h-85l70 360v275l179 -20v-255zM748 1245l-164 -360h-85l70 360v275l179 -20v-255z" />
    <glyph glyph-name="tripleprime" unicode="&#x2034;" 
d="M448 1245l-164 -360h-85l70 360v275l179 -20v-255zM748 1245l-164 -360h-85l70 360v275l179 -20v-255zM1048 1245l-164 -360h-85l70 360v275l179 -20v-255z" />
    <glyph glyph-name="reversedprime" unicode="&#x2035;" 
d="M252 1500l179 20v-275l70 -360h-85l-164 360v255z" />
    <glyph glyph-name="asterism" unicode="&#x2042;" 
d="M715 1097l70 -96l-49 -45l-75 103l-12 36l-12 -36l-70 -96l-58 33l74 102l33 22l-41 2l-111 37l13 65l119 -38l33 -26l-11 41v117l67 7v-126l-13 -40l33 25l112 36l27 -61l-121 -39l-39 -2zM1015 497l70 -96l-49 -45l-75 103l-12 36l-12 -36l-70 -96l-58 33l74 102l33 22
l-41 2l-111 37l13 65l119 -38l33 -26l-11 41v117l67 7v-126l-13 -40l33 25l112 36l27 -61l-121 -39l-39 -2zM415 497l70 -96l-49 -45l-75 103l-12 36l-12 -36l-70 -96l-58 33l74 102l33 22l-41 2l-111 37l13 65l119 -38l33 -26l-11 41v117l67 7v-126l-13 -40l33 25l112 36
l27 -61l-121 -39l-39 -2z" />
    <glyph glyph-name="twoasterisksvertical" unicode="&#x2051;" 
d="M715 1097l70 -96l-49 -45l-75 103l-12 36l-12 -36l-70 -96l-58 33l74 102l33 22l-41 2l-111 37l13 65l119 -38l33 -26l-11 41v117l67 7v-126l-13 -40l33 25l112 36l27 -61l-121 -39l-39 -2zM715 497l70 -96l-49 -45l-75 103l-12 36l-12 -36l-70 -96l-58 33l74 102l33 22
l-41 2l-111 37l13 65l119 -38l33 -26l-11 41v117l67 7v-126l-13 -40l33 25l112 36l27 -61l-121 -39l-39 -2z" />
    <glyph glyph-name="zerosuperior" unicode="&#x2070;" 
d="M615 711q-42 0 -77.5 16.5t-64 44.5t-49.5 65.5t-35.5 80t-21.5 88t-7 89.5q0 45 6 91t19 88.5t33.5 79.5t48.5 64.5t65 43.5t83 16q43 0 78.5 -16t63.5 -44t49.5 -65.5t35.5 -80.5t21 -88.5t7 -88.5q0 -45 -6 -91t-19 -88.5t-33 -80t-48.5 -65t-65.5 -43.5t-83 -16z
M464 1116q0 -29 2 -63.5t8 -70t16.5 -68.5t28 -58.5t42 -41t58.5 -15.5q31 0 53.5 11.5t39 32t27 47t17 57t9 63t2.5 63.5q0 29 -2 64t-8 70t-17 68t-28 58.5t-42 41t-59 15.5q-30 0 -53 -11.5t-39.5 -31.5t-27 -47t-16.5 -57.5t-8.5 -63t-2.5 -63.5z" />
    <glyph glyph-name="superscriptsmalli" unicode="&#x2071;" 
d="M454 916q0 -26 3.5 -48t11 -38t20 -25t30.5 -9q25 0 48 4t41.5 9.5t31 10t15.5 5.5l19 -77q-3 -2 -16 -8t-34 -12t-49 -11.5t-61 -5.5q-49 0 -79 16t-47 44.5t-23 67t-6 82.5v259l20 30l-70 -20h-100l-10 80h255v-354zM356 1470h101v-100h-101v100z" />
    <glyph glyph-name="superscriptfour" unicode="&#x2074;" 
d="M667 870h-90v-150h-105v150h-298v85l242 525l95 -10l-208 -450l-46 -70h215v203l105 -8v-195h97z" />
    <glyph glyph-name="superscriptfive" unicode="&#x2075;" 
d="M310 1211q3 2 12 6.5t22 9t29.5 7.5t37.5 3q52 0 92.5 -16t69 -44.5t43 -66.5t14.5 -81q0 -50 -18 -93t-49 -77t-73 -60t-89 -44t-97 -26.5t-98 -8.5v80q37 1 75.5 9t74.5 22t67 33.5t54.5 43.5t37 52t13.5 59q0 25 -8.5 49t-24.5 43t-40.5 30.5t-57.5 11.5
q-25 0 -45.5 -3.5t-36.5 -8.5t-28 -10.5t-19 -10.5h-62v350h376v-80h-272v-179z" />
    <glyph glyph-name="superscriptsix" unicode="&#x2076;" 
d="M579 1392q-3 1 -10 1h-12q-36 0 -70 -11t-64 -31.5t-55.5 -49t-44.5 -63t-31.5 -73.5t-16.5 -80l41 58q13 8 29.5 15.5t35 13t37.5 8.5t36 3q44 0 84 -12t71.5 -37t50 -64t18.5 -94q0 -54 -18 -102t-51 -84.5t-79 -57.5t-102 -21q-49 0 -87 16t-66 42t-46.5 59.5
t-30.5 68.5t-17 69.5t-5 63.5q0 59 12.5 115.5t35.5 106.5t56.5 91.5t76.5 71.5t94 46.5t110 16.5h17q9 0 14 -1zM279 1018q0 -14 0.5 -25.5t1.5 -22.5t3 -22t5 -25q7 -28 19.5 -51.5t29.5 -40t40 -26t51 -9.5q40 0 67.5 15t45 40t26 56.5t8.5 63.5t-9.5 56t-26.5 39.5
t-40.5 23.5t-52.5 8q-27 0 -52.5 -6.5t-48 -17.5t-39.5 -25.5t-28 -30.5z" />
    <glyph glyph-name="superscriptseven" unicode="&#x2077;" 
d="M188 1470h472v-65q0 -22 -16.5 -55.5t-41.5 -75.5l-54.5 -90.5t-56.5 -99t-47 -101.5t-25 -99q-3 -20 -4 -42l-2 -43.5t-1 -41.5v-37h-102v40q0 25 1 53t3.5 55.5t6.5 47.5q12 53 33 105t46.5 99.5t52 90l48 77.5t35 61t13.5 41h-361v80z" />
    <glyph glyph-name="superscripteight" unicode="&#x2078;" 
d="M415 1478q46 0 85 -12.5t67 -36t44 -57t16 -75.5q0 -29 -8.5 -52t-23.5 -41.5t-35 -33t-42 -27.5q37 -17 66.5 -38t49.5 -48t31 -60t11 -72q0 -56 -22 -96t-58.5 -66.5t-82.5 -39t-95 -12.5q-47 0 -91 14.5t-78 42t-54.5 69t-20.5 95.5q0 40 11.5 72.5t31.5 58.5t47.5 46
t59.5 36q-23 14 -43.5 29.5t-35.5 33.5t-24 38.5t-9 45.5q0 48 19.5 83.5t49.5 58t65.5 33.5t68.5 11zM410 1100q-32 -14 -57 -30t-43 -37t-27.5 -47t-9.5 -59q0 -30 12 -54.5t32.5 -42.5t47 -27.5t54.5 -9.5q32 0 60.5 9t50.5 26t34.5 42t12.5 57q0 34 -15 60t-38.5 47
t-53.5 37t-60 29zM430 1181q46 21 73.5 50t27.5 70q0 25 -10.5 43t-26 29.5t-34 17t-35.5 5.5q-23 0 -44 -7t-37 -19.5t-25.5 -29.5t-9.5 -37q0 -23 9.5 -40.5t26.5 -32t39 -26.5t46 -23z" />
    <glyph glyph-name="superscriptnine" unicode="&#x2079;" 
d="M533 1051q-29 -23 -59 -34t-67 -11q-49 0 -91.5 16.5t-74 46.5t-49.5 72t-18 94q0 54 17 98.5t49 77t77 50t101 17.5q50 0 88.5 -15.5t66.5 -41t46.5 -58.5t30 -68.5t16 -70.5t4.5 -64q0 -58 -11.5 -113.5t-34.5 -104.5t-56 -90t-75 -71.5t-93 -48.5t-110 -21l-16 84
q60 3 113 28.5t93 67.5t65 98.5t28 120.5zM567 1196q-1 38 -10.5 73t-27.5 63t-44.5 44.5t-62.5 16.5q-34 0 -61 -11t-46 -30.5t-29 -47t-10 -60.5q0 -32 8 -60t25 -48.5t42.5 -32.5t60.5 -12q26 0 50.5 8.5t44.5 23t35.5 33.5t24.5 40z" />
    <glyph glyph-name="superscriptplussign" unicode="&#x207a;" 
d="M200 1070h186v210h78v-210h186v-78h-186v-211h-78v211h-186v78z" />
    <glyph glyph-name="superscriptminus" unicode="&#x207b;" 
d="M200 1070h450v-78h-450v78z" />
    <glyph glyph-name="superscriptequalssign" unicode="&#x207c;" 
d="M200 1070h400v-70h-400v70zM200 920h400v-70h-400v70z" />
    <glyph glyph-name="superscriptleftparenthesis" unicode="&#x207d;" 
d="M250 1307q0 44 4.5 82.5t19.5 67t45 44.5t81 16q9 0 19.5 -1t20 -2.5t17.5 -4t12 -5.5l-34 -63l-7 1q-4 1 -8.5 1.5t-9.5 0.5q-22 0 -34.5 -10.5t-18 -28.5t-6.5 -41.5t-1 -49.5v-604q0 -26 1 -49.5t6.5 -41.5t18 -28.5t34.5 -10.5h9q5 0 9 1l7 1l34 -63q-4 -3 -12 -5
t-17.5 -4t-20 -2.5t-19.5 -0.5q-51 0 -81 16t-45 44t-19.5 66.5t-4.5 83.5v590z" />
    <glyph glyph-name="superscriptrightparenthesis" unicode="&#x207e;" 
d="M449 717q0 -45 -4.5 -83.5t-19.5 -66.5t-45 -44t-81 -16q-10 0 -20 0.5t-19.5 2.5t-17.5 4t-12 5l34 63l7 -1q4 -1 8 -1h10q22 0 34.5 10.5t18 28.5t6.5 41.5t1 49.5v604q0 26 -1 49.5t-6.5 41.5t-18 28.5t-34.5 10.5q-5 0 -9.5 -0.5t-8.5 -1.5l-7 -1l-34 63q4 3 12 5.5
t17.5 4t19.5 2.5t20 1q51 0 81 -16t45 -44.5t19.5 -67t4.5 -82.5v-590z" />
    <glyph glyph-name="superscriptsmalln" unicode="&#x207f;" 
d="M294 720h-90v550l90 10v-97l31 59q9 6 21 12.5t29.5 11.5t41.5 8.5t57 3.5q39 0 71 -12.5t53.5 -36.5t33.5 -58t12 -76v-375h-90v375q0 27 -9 46.5t-24.5 32t-36 18.5t-43.5 6q-24 0 -46 -6t-41 -15t-34.5 -20t-25.5 -20v-417z" />
    <glyph glyph-name="subscriptzero" unicode="&#x2080;" 
d="M415 -509q-42 0 -77.5 16.5t-64 44.5t-49.5 65.5t-35.5 80t-21.5 88t-7 89.5q0 45 6 91t19 88.5t33.5 79.5t48.5 64.5t65 43.5t83 16q43 0 78.5 -16t63.5 -44t49.5 -65.5t35.5 -80.5t21 -88.5t7 -88.5q0 -45 -6 -91t-19 -88.5t-33 -80t-48.5 -65t-65.5 -43.5t-83 -16z
M264 -104q0 -29 2 -63.5t8 -70t16.5 -68.5t28 -58.5t42 -41t58.5 -15.5q31 0 53.5 11.5t39 32t27 47t17 57t9 63t2.5 63.5q0 29 -2 64t-8 70t-17 68t-28 58.5t-42 41t-59 15.5q-30 0 -53 -11.5t-39.5 -31.5t-27 -47t-16.5 -57.5t-8.5 -63t-2.5 -63.5z" />
    <glyph glyph-name="subscriptone" unicode="&#x2081;" 
d="M231 -500v80h172v483l29 113l-68 -93l-106 -94l-54 61l229 210l75 -10v-670h173v-80h-450z" />
    <glyph glyph-name="subscripttwo" unicode="&#x2082;" 
d="M190 -500v84q23 36 50 71.5l55 69l54.5 63.5l48.5 56q26 30 50.5 55t43 49.5t29.5 51t11 57.5q0 24 -9 45.5t-25.5 37t-39 25t-49.5 9.5q-30 0 -52.5 -8.5t-39 -22t-29 -30t-22.5 -33.5l-71 30q13 32 33.5 59.5t48 47t62.5 30.5t78 11q50 0 89.5 -18t67 -47t41.5 -66
t14 -75q0 -39 -14 -73.5t-35.5 -66t-46 -59l-44.5 -51.5l-52 -59.5l-50 -58l-44.5 -54.5t-35.5 -50h350v-80h-467z" />
    <glyph glyph-name="subscriptthree" unicode="&#x2083;" 
d="M212 170l8 80h390v-70q-6 -20 -20.5 -42t-33.5 -44t-42 -43.5l-46 -41.5l-66 -37q5 1 13 1.5t15 0.5q48 0 90 -12t72.5 -36.5t48.5 -61.5t18 -88q0 -48 -18 -87.5t-49.5 -70.5t-73.5 -53t-89.5 -36.5t-98.5 -21.5t-100 -7v80q41 1 81 7t76 17t66.5 26.5t53 36t35 47
t12.5 57.5q0 36 -15.5 60t-42 38t-62 20t-76.5 6q-16 0 -35 -1t-34 -2v78q21 15 45 34l48.5 39.5t47.5 42l42 40.5t32 36t17 28l-76 -20h-233z" />
    <glyph glyph-name="subscriptfour" unicode="&#x2084;" 
d="M667 -350h-90v-150h-105v150h-298v85l242 525l95 -10l-208 -450l-46 -70h215v203l105 -8v-195h97z" />
    <glyph glyph-name="subscriptfive" unicode="&#x2085;" 
d="M310 -9q3 2 12 6.5t22 9t29.5 7.5t37.5 3q52 0 92.5 -16t69 -44.5t43 -66.5t14.5 -81q0 -50 -18 -93t-49 -77t-73 -60t-89 -44t-97 -26.5t-98 -8.5v80q37 1 75.5 9t74.5 22t67 33.5t54.5 43.5t37 52t13.5 59q0 25 -8.5 49t-24.5 43t-40.5 30.5t-57.5 11.5
q-25 0 -45.5 -3.5t-36.5 -8.5t-28 -10.5t-19 -10.5h-62v350h376v-80h-272v-179z" />
    <glyph glyph-name="subscriptsix" unicode="&#x2086;" 
d="M579 172q-3 1 -10 1h-12q-36 0 -70 -11t-64 -31.5t-55.5 -49t-44.5 -63t-31.5 -73.5t-16.5 -80l41 58q13 8 29.5 15.5t35 13t37.5 8.5t36 3q44 0 84 -12t71.5 -37t50 -64t18.5 -94q0 -54 -18 -102t-51 -84.5t-79 -57.5t-102 -21q-49 0 -87 16t-66 42t-46.5 59.5
t-30.5 68.5t-17 69.5t-5 63.5q0 59 12.5 115.5t35.5 106.5t56.5 91.5t76.5 71.5t94 46.5t110 16.5h17q9 0 14 -1zM279 -202q0 -14 0.5 -25.5t1.5 -22.5t3 -22t5 -25q7 -28 19.5 -51.5t29.5 -40t40 -26t51 -9.5q40 0 67.5 15t45 40t26 56.5t8.5 63.5t-9.5 56t-26.5 39.5
t-40.5 23.5t-52.5 8q-27 0 -52.5 -6.5t-48 -17.5t-39.5 -25.5t-28 -30.5z" />
    <glyph glyph-name="subscriptseven" unicode="&#x2087;" 
d="M188 250h472v-65q0 -22 -16.5 -55.5t-41.5 -75.5l-54.5 -90.5t-56.5 -99t-47 -101.5t-25 -99q-3 -20 -4 -42l-2 -43.5t-1 -41.5v-37h-102v40q0 25 1 53t3.5 55.5t6.5 47.5q12 53 33 105t46.5 99.5t52 90l48 77.5t35 61t13.5 41h-361v80z" />
    <glyph glyph-name="subscripteight" unicode="&#x2088;" 
d="M415 258q46 0 85 -12.5t67 -36t44 -57t16 -75.5q0 -29 -8.5 -52t-23.5 -41.5t-35 -33t-42 -27.5q37 -17 66.5 -38t49.5 -48t31 -60t11 -72q0 -56 -22 -96t-58.5 -66.5t-82.5 -39t-95 -12.5q-47 0 -91 14.5t-78 42t-54.5 69t-20.5 95.5q0 40 11.5 72.5t31.5 58.5t47.5 46
t59.5 36q-23 14 -43.5 29.5t-35.5 33.5t-24 38.5t-9 45.5q0 48 19.5 83.5t49.5 58t65.5 33.5t68.5 11zM410 -120q-32 -14 -57 -30t-43 -37t-27.5 -47t-9.5 -59q0 -30 12 -54.5t32.5 -42.5t47 -27.5t54.5 -9.5q32 0 60.5 9t50.5 26t34.5 42t12.5 57q0 34 -15 60t-38.5 47
t-53.5 37t-60 29zM430 -39q46 21 73.5 50t27.5 70q0 25 -10.5 43t-26 29.5t-34 17t-35.5 5.5q-23 0 -44 -7t-37 -19.5t-25.5 -29.5t-9.5 -37q0 -23 9.5 -40.5t26.5 -32t39 -26.5t46 -23z" />
    <glyph glyph-name="subscriptnine" unicode="&#x2089;" 
d="M533 -169q-29 -23 -59 -34t-67 -11q-49 0 -91.5 16.5t-74 46.5t-49.5 72t-18 94q0 54 17 98.5t49 77t77 50t101 17.5q50 0 88.5 -15.5t66.5 -41t46.5 -58.5t30 -68.5t16 -70.5t4.5 -64q0 -58 -11.5 -113.5t-34.5 -104.5t-56 -90t-75 -71.5t-93 -48.5t-110 -21l-16 84
q60 3 113 28.5t93 67.5t65 98.5t28 120.5zM567 -24q-1 38 -10.5 73t-27.5 63t-44.5 44.5t-62.5 16.5q-34 0 -61 -11t-46 -30.5t-29 -47t-10 -60.5q0 -32 8 -60t25 -48.5t42.5 -32.5t60.5 -12q26 0 50.5 8.5t44.5 23t35.5 33.5t24.5 40z" />
    <glyph glyph-name="subscriptplussign" unicode="&#x208a;" 
d="M200 -150h186v210h78v-210h186v-78h-186v-211h-78v211h-186v78z" />
    <glyph glyph-name="subscriptminus" unicode="&#x208b;" 
d="M200 -150h450v-78h-450v78z" />
    <glyph glyph-name="subscriptequals" unicode="&#x208c;" 
d="M200 -150h400v-70h-400v70zM200 -300h400v-70h-400v70z" />
    <glyph glyph-name="subscriptleftparenthesis" unicode="&#x208d;" 
d="M250 90q0 44 4.5 82.5t19.5 67t45 44.5t81 16q9 0 19.5 -1t20 -2.5t17.5 -4t12 -5.5l-34 -63l-7 1q-4 1 -8.5 1.5t-9.5 0.5q-22 0 -34.5 -10.5t-18 -28.5t-6.5 -41.5t-1 -49.5v-604q0 -26 1 -49.5t6.5 -41.5t18 -28.5t34.5 -10.5h9q5 0 9 1l7 1l34 -63q-4 -3 -12 -5
t-17.5 -4t-20 -2.5t-19.5 -0.5q-51 0 -81 16t-45 44t-19.5 66.5t-4.5 83.5v590z" />
    <glyph glyph-name="subscriptrightparenthesis" unicode="&#x208e;" 
d="M449 -500q0 -45 -4.5 -83.5t-19.5 -66.5t-45 -44t-81 -16q-10 0 -20 0.5t-19.5 2.5t-17.5 4t-12 5l34 63l7 -1q4 -1 8 -1h10q22 0 34.5 10.5t18 28.5t6.5 41.5t1 49.5v604q0 26 -1 49.5t-6.5 41.5t-18 28.5t-34.5 10.5q-5 0 -9.5 -0.5t-8.5 -1.5l-7 -1l-34 63q4 3 12 5.5
t17.5 4t19.5 2.5t20 1q51 0 81 -16t45 -44.5t19.5 -67t4.5 -82.5v-590z" />
    <glyph glyph-name="indianrupee" unicode="&#x20b9;" 
d="M170 1350l40 150h868l-78 -150h-210l-104 25l75 -66q29 -33 42 -73t15 -85h261l-79 -151h-154l-100 16l61 -61q-26 -77 -67.5 -132t-96.5 -93t-122 -61t-143 -36l142 -40l443 -593h-223l-443 595q-11 14 -25 16.5t-22 2.5h-50v151h78q76 0 135 18t102 49.5t70.5 74.5
t39.5 93h-455l40 151h418q-11 57 -39.5 97t-68.5 66q-9 6 -20.5 12t-29.5 11.5t-44 9t-64 3.5h-192z" />
    <glyph glyph-name="centigrade" unicode="&#x2103;" 
d="M1437 104q-41 -33 -83 -56t-88 -37.5t-97 -21t-110 -6.5q-96 0 -183 28.5t-161.5 80t-134.5 123.5t-102 159.5t-65 187.5t-23 208q0 151 43 286.5t128 238t210.5 162.5t290.5 60q115 0 207.5 -36.5t164.5 -105.5l-90 -107q-24 16 -51 30.5t-59.5 25.5t-71 17.5t-84.5 6.5
q-122 0 -212.5 -46t-150.5 -124.5t-89.5 -183t-29.5 -221.5q0 -73 15 -147t43.5 -143t70.5 -129t96.5 -105t120.5 -70.5t143 -25.5q45 0 79 4t64.5 13t61.5 23.5t70 36.5zM130 1517q56 0 105 -21t85.5 -58t57.5 -86t21 -105t-21 -105t-57.5 -85.5t-85.5 -58t-105 -21.5
t-105 21.5t-85.5 58t-57.5 85.5t-21 105t21 105t57.5 86t85.5 58t105 21zM130 1088q33 0 62 12.5t50.5 34t34 50.5t12.5 62t-12.5 62t-34 50.5t-50.5 34t-62 12.5t-62 -12.5t-50.5 -34t-34 -50.5t-12.5 -62t12.5 -62t34 -50.5t50.5 -34t62 -12.5z" />
    <glyph glyph-name="fahrenheit" unicode="&#x2109;" 
d="M690 0h-190v1290l-30 210h945l-20 -160h-725l20 -190v-265h620v-145h-620v-740zM145 1517q56 0 105 -21t85.5 -58t57.5 -86t21 -105t-21 -105t-57.5 -85.5t-85.5 -58t-105 -21.5t-105 21.5t-85.5 58t-57.5 85.5t-21 105t21 105t57.5 86t85.5 58t105 21zM145 1088
q33 0 62 12.5t50.5 34t34 50.5t12.5 62t-12.5 62t-34 50.5t-50.5 34t-62 12.5t-62 -12.5t-50.5 -34t-34 -50.5t-12.5 -62t12.5 -62t34 -50.5t50.5 -34t62 -12.5z" />
    <glyph glyph-name="Ifraktur" unicode="&#x2111;" 
d="M418 1400h620l-26 -184q-39 -23 -77 -57.5t-68 -74.5t-48.5 -81t-18.5 -77q0 -44 20.5 -92.5t52 -101l67.5 -109t67.5 -117t52 -124.5t20.5 -131q0 -131 -73.5 -199.5t-214.5 -68.5q-41 0 -83 11.5t-81 28.5t-72.5 38t-57.5 41l-18 98l-150 -134l-119 90l229 197
q39 -37 81.5 -71t86 -60.5t86.5 -42t84 -15.5q22 0 42 5t35.5 15.5t25 27t9.5 40.5q0 37 -20.5 85.5t-52 104l-67.5 115.5t-67.5 119.5t-52 116.5t-20.5 107q0 26 7 63t28 79t59 87t100 87h-334q-23 -23 -31 -51t-8 -58q0 -17 4.5 -35t9.5 -32q6 -17 15 -33l-106 -60
q-59 83 -59 174q0 130 123 279z" />
    <glyph glyph-name="lsquare" unicode="&#x2113;" 
d="M300 540h100v460q0 112 15.5 207t54.5 164t104.5 107.5t165.5 38.5q56 0 104 -23t82.5 -73t54 -129.5t19.5 -191.5q0 -75 -1.5 -156t-9.5 -159t-26.5 -147.5t-51.5 -122.5t-84.5 -84t-126.5 -31h-100v-17q0 -55 5 -99.5t21 -76.5q17 -33 45 -52q32 -21 66 -25
q19 -2 30 -3t15 -1q25 0 57.5 8t51.5 19l83 -123q-21 -10 -45 -18.5t-53 -15t-65 -10t-81 -3.5q-96 0 -159.5 30.5t-101.5 84.5t-53.5 127t-15.5 158v17h-100v140zM650 540h50q29 0 49.5 19t34 51.5t21 76t11 93.5t4 103t0.5 104q0 73 -1.5 142.5t-10.5 123t-27.5 86
t-52.5 32.5q-21 0 -43.5 -16.5t-41.5 -55.5t-31 -102.5t-12 -157.5v-599z" />
    <glyph glyph-name="weierstrass" unicode="&#x2118;" 
d="M249 -358q25 0 43.5 18t30.5 46t17.5 63t5.5 70q0 36 -5.5 85.5t-14.5 100t-20.5 97t-23.5 78.5v86q-32 -54 -56.5 -119t-41.5 -134t-26 -138t-9 -131q0 -59 24.5 -90.5t75.5 -31.5zM620 1031q-62 -12 -124 -38t-112 -70t-81.5 -108t-31.5 -153q0 -42 11 -92v-122
q71 111 148.5 201t161.5 153.5t173.5 97.5t184.5 34q93 0 157.5 -32t105 -86.5t58.5 -127t18 -152.5q0 -69 -12 -139q-4 -24 -16.5 -64t-35.5 -86t-57.5 -93t-82.5 -85t-110 -62t-141 -24q-54 0 -105 18t-91.5 52.5t-65 84.5t-24.5 113q0 97 34 163.5t86 108t114 59.5
t118 18l-20 -80q-38 0 -78 -13t-73.5 -43t-55 -79.5t-21.5 -123.5q0 -32 15 -62t41 -52.5t60.5 -36t74.5 -13.5q39 0 75 20t67 54.5t56.5 79.5t43 94.5t27.5 101.5t10 99q0 55 -15.5 101.5t-44.5 80.5t-70 53t-92 19q-95 0 -173.5 -34.5t-145 -91.5t-124 -130t-111.5 -149
q30 -65 58 -134.5t49.5 -140t34 -140t12.5 -134.5q0 -61 -12.5 -125t-44 -116t-84.5 -85.5t-135 -33.5q-59 0 -98 20.5t-62.5 54.5t-33 79t-9.5 94q0 83 15.5 166t42 160.5t61 146.5t73.5 124l-31 68.5t-29 71.5t-21.5 78t-8.5 88q0 78 21.5 144.5t58 119.5t84 93.5
t100.5 68t108 41t105 13.5z" />
    <glyph glyph-name="Rfraktur" unicode="&#x211c;" 
d="M591 628l80 92l74 29q65 25 100 64t51.5 83t19 91t2.5 89q0 32 -7.5 60.5t-16.5 49.5q-11 25 -24 46q-70 0 -117.5 -12.5t-78.5 -33.5t-48 -48.5t-24.5 -58.5t-9 -63.5t-1.5 -62.5v-325zM900 1400q39 -26 75 -62.5t64 -82t44.5 -98.5t16.5 -110q0 -60 -2 -116.5
t-15.5 -105t-42 -85.5t-81.5 -57q19 -19 30 -38t17 -40t8 -45t2 -53v-217q0 -17 2.5 -35t8.5 -34.5t15 -30t22 -22.5l133 53l53 -96l-230 -142q-36 9 -70 23t-60.5 38t-43 61.5t-16.5 94.5v171q0 82 -4 146t-29 99l-206 -63v-253q0 -55 -6.5 -111.5t-28 -102t-63.5 -74.5
t-113 -29h-23l-130 134l-76 -64l-82 72l158 174l131 -130q34 19 42 44t8 53v716q0 27 4.5 58t23.5 62.5t57 60.5t105 53h-297q-23 -20 -31.5 -47t-8.5 -57q0 -20 4.5 -38.5t9.5 -33.5q6 -18 15 -33l-106 -60q-36 47 -47.5 90t-11.5 93q0 37 10 73.5t27 71t39.5 66.5t46.5 59
h652z" />
    <glyph glyph-name="angstrom" unicode="&#x212b;" 
d="M640 1878q49 0 92 -18.5t75.5 -51t51 -75.5t18.5 -92t-18.5 -93t-50.5 -77q-25 -27 -58 -44l515 -1427h-200l-148 450h-535l-166 -450h-184l472 1300l23 130q-30 17 -54 41q-33 33 -52 77t-19 93t19 92t51 75.5t75.5 51t92.5 18.5zM645 1400l-45 -320l-169 -480h437
l-178 480zM641 1517q25 0 47 10t38 26.5t25.5 39t9.5 47.5t-9.5 47t-26 38.5t-38.5 26t-47 9.5t-47 -9.5t-38.5 -26t-26 -38.5t-9.5 -47t9.5 -47.5t26 -39t39 -26.5t47.5 -10z" />
    <glyph glyph-name="scriptsmallo" unicode="&#x2134;" 
d="M467 -17q-70 0 -124 22t-90.5 61.5t-55.5 95t-19 122.5q0 74 18 147.5t52 140t82.5 124t109.5 99.5t133 66t153 24q69 0 123.5 -21t92 -60t57 -93.5t19.5 -120.5q0 -74 -18.5 -147.5t-52.5 -140.5t-83 -125.5t-110.5 -101.5t-133.5 -67.5t-153 -24.5zM848 558
q0 39 -7.5 73.5t-25.5 60t-47.5 40t-74.5 14.5q-54 0 -100.5 -19t-85 -51.5t-68.5 -76t-50.5 -92t-31.5 -99.5t-11 -98q0 -40 7.5 -74t25.5 -59t48 -39.5t74 -14.5q81 0 145 39t109 101.5t69 140t24 154.5z" />
    <glyph glyph-name="aleph" unicode="&#x2135;" 
d="M788 1100q4 -56 26.5 -90t54.5 -58t68 -43t66.5 -44t50.5 -62t20 -96q0 -63 -28 -139h-86q0 39 -7.5 67.5t-20 51t-30 40t-38.5 32.5q-12 -42 -33 -73.5t-53 -63.5q97 -57 158.5 -117.5t96 -119.5t47.5 -114t13 -103q0 -55 -11 -101t-20 -67h-105q0 64 -20.5 114.5
t-56.5 93.5t-85 81l-106 78.5l-120 86.5t-126 104v108q-29 -31 -46.5 -52t-27 -36.5t-12.5 -27t-3 -21.5q0 -39 19 -74t48 -68.5t62 -66t62 -67t48 -71.5t19 -79q0 -50 -31 -103h-382l40 140h175l-153 88q-26 39 -44 86.5t-18 106.5q0 36 9 72.5t24.5 71t37.5 66t49 57.5
q-61 62 -89.5 120.5t-28.5 127.5q0 36 7.5 76t22.5 88h89q0 -58 27.5 -110.5t71.5 -100t99 -89.5t111 -79v-97q39 35 63.5 61t37.5 47t17.5 39.5t4.5 39.5v12q-45 35 -65.5 68t-20.5 78q0 51 28 131h94z" />
    <glyph glyph-name="onethirds" unicode="&#x2153;" 
d="M504 0h-125l575 1500h116zM853 670l8 80h390v-70q-6 -20 -20.5 -42t-33.5 -44t-42 -43.5l-46 -41.5l-66 -37q5 1 13 1.5t15 0.5q48 0 90 -12t72.5 -36.5t48.5 -61.5t18 -88q0 -48 -18 -87.5t-49.5 -70.5t-73.5 -53t-89.5 -36.5t-98.5 -21.5t-100 -7v80q41 1 81 7t76 17
t66.5 26.5t53 36t35 47t12.5 57.5q0 36 -15.5 60t-42 38t-62 20t-76.5 6q-16 0 -35 -1t-34 -2v78q21 15 45 34l48.5 39.5t47.5 42l42 40.5t32 36t17 28l-76 -20h-233zM131 720v80h172v483l29 113l-68 -93l-106 -94l-54 61l229 210l75 -10v-670h173v-80h-450z" />
    <glyph glyph-name="twothirds" unicode="&#x2154;" 
d="M504 0h-125l575 1500h116zM90 720v84q23 36 50 71.5l55 69l54.5 63.5l48.5 56q26 30 50.5 55t43 49.5t29.5 51t11 57.5q0 24 -9 45.5t-25.5 37t-39 25t-49.5 9.5q-30 0 -52.5 -8.5t-39 -22t-29 -30t-22.5 -33.5l-71 30q13 32 33.5 59.5t48 47t62.5 30.5t78 11
q50 0 89.5 -18t67 -47t41.5 -66t14 -75q0 -39 -14 -73.5t-35.5 -66t-46 -59l-44.5 -51.5l-52 -59.5l-50 -58l-44.5 -54.5t-35.5 -50h350v-80h-467zM854 670l8 80h390v-70q-6 -20 -20.5 -42t-33.5 -44t-42 -43.5l-46 -41.5l-66 -37q5 1 13 1.5t15 0.5q48 0 90 -12t72.5 -36.5
t48.5 -61.5t18 -88q0 -48 -18 -87.5t-49.5 -70.5t-73.5 -53t-89.5 -36.5t-98.5 -21.5t-100 -7v80q41 1 81 7t76 17t66.5 26.5t53 36t35 47t12.5 57.5q0 36 -15.5 60t-42 38t-62 20t-76.5 6q-16 0 -35 -1t-34 -2v78q21 15 45 34l48.5 39.5t47.5 42l42 40.5t32 36t17 28
l-76 -20h-233z" />
    <glyph glyph-name="onefifth" unicode="&#x2155;" 
d="M504 0h-125l575 1500h116zM963 491q3 2 12 6.5t22 9t29.5 7.5t37.5 3q52 0 92.5 -16t69 -44.5t43 -66.5t14.5 -81q0 -50 -18 -93t-49 -77t-73 -60t-89 -44t-97 -26.5t-98 -8.5v80q37 1 75.5 9t74.5 22t67 33.5t54.5 43.5t37 52t13.5 59q0 25 -8.5 49t-24.5 43t-40.5 30.5
t-57.5 11.5q-25 0 -45.5 -3.5t-36.5 -8.5t-28 -10.5t-19 -10.5h-62v350h376v-80h-272v-179zM131 720v80h172v483l29 113l-68 -93l-106 -94l-54 61l229 210l75 -10v-670h173v-80h-450z" />
    <glyph glyph-name="twofifths" unicode="&#x2156;" 
d="M504 0h-125l575 1500h116zM90 720v84q23 36 50 71.5l55 69l54.5 63.5l48.5 56q26 30 50.5 55t43 49.5t29.5 51t11 57.5q0 24 -9 45.5t-25.5 37t-39 25t-49.5 9.5q-30 0 -52.5 -8.5t-39 -22t-29 -30t-22.5 -33.5l-71 30q13 32 33.5 59.5t48 47t62.5 30.5t78 11
q50 0 89.5 -18t67 -47t41.5 -66t14 -75q0 -39 -14 -73.5t-35.5 -66t-46 -59l-44.5 -51.5l-52 -59.5l-50 -58l-44.5 -54.5t-35.5 -50h350v-80h-467zM963 491q3 2 12 6.5t22 9t29.5 7.5t37.5 3q52 0 92.5 -16t69 -44.5t43 -66.5t14.5 -81q0 -50 -18 -93t-49 -77t-73 -60
t-89 -44t-97 -26.5t-98 -8.5v80q37 1 75.5 9t74.5 22t67 33.5t54.5 43.5t37 52t13.5 59q0 25 -8.5 49t-24.5 43t-40.5 30.5t-57.5 11.5q-25 0 -45.5 -3.5t-36.5 -8.5t-28 -10.5t-19 -10.5h-62v350h376v-80h-272v-179z" />
    <glyph glyph-name="threefifths" unicode="&#x2157;" 
d="M504 0h-125l575 1500h116zM963 491q3 2 12 6.5t22 9t29.5 7.5t37.5 3q52 0 92.5 -16t69 -44.5t43 -66.5t14.5 -81q0 -50 -18 -93t-49 -77t-73 -60t-89 -44t-97 -26.5t-98 -8.5v80q37 1 75.5 9t74.5 22t67 33.5t54.5 43.5t37 52t13.5 59q0 25 -8.5 49t-24.5 43t-40.5 30.5
t-57.5 11.5q-25 0 -45.5 -3.5t-36.5 -8.5t-28 -10.5t-19 -10.5h-62v350h376v-80h-272v-179zM162 1390l8 80h390v-70q-6 -20 -20.5 -42t-33.5 -44t-42 -43.5l-46 -41.5l-66 -37q5 1 13 1.5t15 0.5q48 0 90 -12t72.5 -36.5t48.5 -61.5t18 -88q0 -48 -18 -87.5t-49.5 -70.5
t-73.5 -53t-89.5 -36.5t-98.5 -21.5t-100 -7v80q41 1 81 7t76 17t66.5 26.5t53 36t35 47t12.5 57.5q0 36 -15.5 60t-42 38t-62 20t-76.5 6q-16 0 -35 -1t-34 -2v78q21 15 45 34l48.5 39.5t47.5 42l42 40.5t32 36t17 28l-76 -20h-233z" />
    <glyph glyph-name="fourfifths" unicode="&#x2158;" 
d="M504 0h-125l575 1500h116zM963 491q3 2 12 6.5t22 9t29.5 7.5t37.5 3q52 0 92.5 -16t69 -44.5t43 -66.5t14.5 -81q0 -50 -18 -93t-49 -77t-73 -60t-89 -44t-97 -26.5t-98 -8.5v80q37 1 75.5 9t74.5 22t67 33.5t54.5 43.5t37 52t13.5 59q0 25 -8.5 49t-24.5 43t-40.5 30.5
t-57.5 11.5q-25 0 -45.5 -3.5t-36.5 -8.5t-28 -10.5t-19 -10.5h-62v350h376v-80h-272v-179zM617 870h-90v-150h-105v150h-298v85l242 525l95 -10l-208 -450l-46 -70h215v203l105 -8v-195h97z" />
    <glyph glyph-name="onesixth" unicode="&#x2159;" 
d="M1201 672q-3 1 -10 1h-12q-36 0 -70 -11t-64 -31.5t-55.5 -49t-44.5 -63t-31.5 -73.5t-16.5 -80l41 58q13 8 29.5 15.5t35 13t37.5 8.5t36 3q44 0 84 -12t71.5 -37t50 -64t18.5 -94q0 -54 -18 -102t-51 -84.5t-79 -57.5t-102 -21q-49 0 -87 16t-66 42t-46.5 59.5
t-30.5 68.5t-17 69.5t-5 63.5q0 59 12.5 115.5t35.5 106.5t56.5 91.5t76.5 71.5t94 46.5t110 16.5h17q9 0 14 -1zM504 0h-125l575 1500h116zM131 720v80h172v483l29 113l-68 -93l-106 -94l-54 61l229 210l75 -10v-670h173v-80h-450zM901 298q0 -14 0.5 -25.5t1.5 -22.5
t3 -22t5 -25q7 -28 19.5 -51.5t29.5 -40t40 -26t51 -9.5q40 0 67.5 15t45 40t26 56.5t8.5 63.5t-9.5 56t-26.5 39.5t-40.5 23.5t-52.5 8q-27 0 -52.5 -6.5t-48 -17.5t-39.5 -25.5t-28 -30.5z" />
    <glyph glyph-name="fivesixths" unicode="&#x215a;" 
d="M1201 672q-3 1 -10 1h-12q-36 0 -70 -11t-64 -31.5t-55.5 -49t-44.5 -63t-31.5 -73.5t-16.5 -80l41 58q13 8 29.5 15.5t35 13t37.5 8.5t36 3q44 0 84 -12t71.5 -37t50 -64t18.5 -94q0 -54 -18 -102t-51 -84.5t-79 -57.5t-102 -21q-49 0 -87 16t-66 42t-46.5 59.5
t-30.5 68.5t-17 69.5t-5 63.5q0 59 12.5 115.5t35.5 106.5t56.5 91.5t76.5 71.5t94 46.5t110 16.5h17q9 0 14 -1zM504 0h-125l575 1500h116zM280 1211q3 2 12 6.5t22 9t29.5 7.5t37.5 3q52 0 92.5 -16t69 -44.5t43 -66.5t14.5 -81q0 -50 -18 -93t-49 -77t-73 -60t-89 -44
t-97 -26.5t-98 -8.5v80q37 1 75.5 9t74.5 22t67 33.5t54.5 43.5t37 52t13.5 59q0 25 -8.5 49t-24.5 43t-40.5 30.5t-57.5 11.5q-25 0 -45.5 -3.5t-36.5 -8.5t-28 -10.5t-19 -10.5h-62v350h376v-80h-272v-179zM901 298q0 -14 0.5 -25.5t1.5 -22.5t3 -22t5 -25
q7 -28 19.5 -51.5t29.5 -40t40 -26t51 -9.5q40 0 67.5 15t45 40t26 56.5t8.5 63.5t-9.5 56t-26.5 39.5t-40.5 23.5t-52.5 8q-27 0 -52.5 -6.5t-48 -17.5t-39.5 -25.5t-28 -30.5z" />
    <glyph glyph-name="oneeighth" unicode="&#x215b;" 
d="M504 0h-125l575 1500h116zM1038 758q46 0 85 -12.5t67 -36t44 -57t16 -75.5q0 -29 -8.5 -52t-23.5 -41.5t-35 -33t-42 -27.5q37 -17 66.5 -38t49.5 -48t31 -60t11 -72q0 -56 -22 -96t-58.5 -66.5t-82.5 -39t-95 -12.5q-47 0 -91 14.5t-78 42t-54.5 69t-20.5 95.5
q0 40 11.5 72.5t31.5 58.5t47.5 46t59.5 36q-23 14 -43.5 29.5t-35.5 33.5t-24 38.5t-9 45.5q0 48 19.5 83.5t49.5 58t65.5 33.5t68.5 11zM1033 380q-32 -14 -57 -30t-43 -37t-27.5 -47t-9.5 -59q0 -30 12 -54.5t32.5 -42.5t47 -27.5t54.5 -9.5q32 0 60.5 9t50.5 26t34.5 42
t12.5 57q0 34 -15 60t-38.5 47t-53.5 37t-60 29zM1053 461q46 21 73.5 50t27.5 70q0 25 -10.5 43t-26 29.5t-34 17t-35.5 5.5q-23 0 -44 -7t-37 -19.5t-25.5 -29.5t-9.5 -37q0 -23 9.5 -40.5t26.5 -32t39 -26.5t46 -23zM131 720v80h172v483l29 113l-68 -93l-106 -94l-54 61
l229 210l75 -10v-670h173v-80h-450z" />
    <glyph glyph-name="threeeighths" unicode="&#x215c;" 
d="M504 0h-125l575 1500h116zM152 1390l8 80h390v-70q-6 -20 -20.5 -42t-33.5 -44t-42 -43.5l-46 -41.5l-66 -37q5 1 13 1.5t15 0.5q48 0 90 -12t72.5 -36.5t48.5 -61.5t18 -88q0 -48 -18 -87.5t-49.5 -70.5t-73.5 -53t-89.5 -36.5t-98.5 -21.5t-100 -7v80q41 1 81 7t76 17
t66.5 26.5t53 36t35 47t12.5 57.5q0 36 -15.5 60t-42 38t-62 20t-76.5 6q-16 0 -35 -1t-34 -2v78q21 15 45 34l48.5 39.5t47.5 42l42 40.5t32 36t17 28l-76 -20h-233zM1038 758q46 0 85 -12.5t67 -36t44 -57t16 -75.5q0 -29 -8.5 -52t-23.5 -41.5t-35 -33t-42 -27.5
q37 -17 66.5 -38t49.5 -48t31 -60t11 -72q0 -56 -22 -96t-58.5 -66.5t-82.5 -39t-95 -12.5q-47 0 -91 14.5t-78 42t-54.5 69t-20.5 95.5q0 40 11.5 72.5t31.5 58.5t47.5 46t59.5 36q-23 14 -43.5 29.5t-35.5 33.5t-24 38.5t-9 45.5q0 48 19.5 83.5t49.5 58t65.5 33.5
t68.5 11zM1033 380q-32 -14 -57 -30t-43 -37t-27.5 -47t-9.5 -59q0 -30 12 -54.5t32.5 -42.5t47 -27.5t54.5 -9.5q32 0 60.5 9t50.5 26t34.5 42t12.5 57q0 34 -15 60t-38.5 47t-53.5 37t-60 29zM1053 461q46 21 73.5 50t27.5 70q0 25 -10.5 43t-26 29.5t-34 17t-35.5 5.5
q-23 0 -44 -7t-37 -19.5t-25.5 -29.5t-9.5 -37q0 -23 9.5 -40.5t26.5 -32t39 -26.5t46 -23z" />
    <glyph glyph-name="fiveeighths" unicode="&#x215d;" 
d="M504 0h-125l575 1500h116zM1038 758q46 0 85 -12.5t67 -36t44 -57t16 -75.5q0 -29 -8.5 -52t-23.5 -41.5t-35 -33t-42 -27.5q37 -17 66.5 -38t49.5 -48t31 -60t11 -72q0 -56 -22 -96t-58.5 -66.5t-82.5 -39t-95 -12.5q-47 0 -91 14.5t-78 42t-54.5 69t-20.5 95.5
q0 40 11.5 72.5t31.5 58.5t47.5 46t59.5 36q-23 14 -43.5 29.5t-35.5 33.5t-24 38.5t-9 45.5q0 48 19.5 83.5t49.5 58t65.5 33.5t68.5 11zM1033 380q-32 -14 -57 -30t-43 -37t-27.5 -47t-9.5 -59q0 -30 12 -54.5t32.5 -42.5t47 -27.5t54.5 -9.5q32 0 60.5 9t50.5 26t34.5 42
t12.5 57q0 34 -15 60t-38.5 47t-53.5 37t-60 29zM1053 461q46 21 73.5 50t27.5 70q0 25 -10.5 43t-26 29.5t-34 17t-35.5 5.5q-23 0 -44 -7t-37 -19.5t-25.5 -29.5t-9.5 -37q0 -23 9.5 -40.5t26.5 -32t39 -26.5t46 -23zM280 1211q3 2 12 6.5t22 9t29.5 7.5t37.5 3
q52 0 92.5 -16t69 -44.5t43 -66.5t14.5 -81q0 -50 -18 -93t-49 -77t-73 -60t-89 -44t-97 -26.5t-98 -8.5v80q37 1 75.5 9t74.5 22t67 33.5t54.5 43.5t37 52t13.5 59q0 25 -8.5 49t-24.5 43t-40.5 30.5t-57.5 11.5q-25 0 -45.5 -3.5t-36.5 -8.5t-28 -10.5t-19 -10.5h-62v350
h376v-80h-272v-179z" />
    <glyph glyph-name="seveneighths" unicode="&#x215e;" 
d="M1038 758q46 0 85 -12.5t67 -36t44 -57t16 -75.5q0 -29 -8.5 -52t-23.5 -41.5t-35 -33t-42 -27.5q37 -17 66.5 -38t49.5 -48t31 -60t11 -72q0 -56 -22 -96t-58.5 -66.5t-82.5 -39t-95 -12.5q-47 0 -91 14.5t-78 42t-54.5 69t-20.5 95.5q0 40 11.5 72.5t31.5 58.5t47.5 46
t59.5 36q-23 14 -43.5 29.5t-35.5 33.5t-24 38.5t-9 45.5q0 48 19.5 83.5t49.5 58t65.5 33.5t68.5 11zM504 0h-125l575 1500h116zM188 1470h472v-65q0 -22 -16.5 -55.5t-41.5 -75.5l-54.5 -90.5t-56.5 -99t-47 -101.5t-25 -99q-3 -20 -4 -42l-2 -43.5t-1 -41.5v-37h-102v40
q0 25 1 53t3.5 55.5t6.5 47.5q12 53 33 105t46.5 99.5t52 90l48 77.5t35 61t13.5 41h-361v80zM1033 380q-32 -14 -57 -30t-43 -37t-27.5 -47t-9.5 -59q0 -30 12 -54.5t32.5 -42.5t47 -27.5t54.5 -9.5q32 0 60.5 9t50.5 26t34.5 42t12.5 57q0 34 -15 60t-38.5 47t-53.5 37
t-60 29zM1053 461q46 21 73.5 50t27.5 70q0 25 -10.5 43t-26 29.5t-34 17t-35.5 5.5q-23 0 -44 -7t-37 -19.5t-25.5 -29.5t-9.5 -37q0 -23 9.5 -40.5t26.5 -32t39 -26.5t46 -23z" />
    <glyph glyph-name="fractionnumeratorone" unicode="&#x215f;" 
d="M504 0h-125l575 1500h116zM131 720v80h172v483l29 113l-68 -93l-106 -94l-54 61l229 210l75 -10v-670h173v-80h-450z" />
    <glyph glyph-name="romannumeralone" unicode="&#x2160;" 
d="M206 1500h900v-160h-358v-1180h378l-20 -160h-900v160h356v1180h-376z" />
    <glyph glyph-name="romannumeraltwo" unicode="&#x2161;" horiz-adv-x="2600" 
d="M586 1500h1420v-140h-358v-1200h378l-20 -160h-1420l20 160h346v1200h-346zM1162 160h300v1200h-300v-1200z" />
    <glyph glyph-name="romannumeralthree" unicode="&#x2162;" horiz-adv-x="2600" 
d="M862 160h283v1200h-283v-1200zM286 1500h1896v-140h-358v-1200h378l-20 -160h-1896l20 160h346v1200h-346zM1355 160h283v1200h-283v-1200z" />
    <glyph glyph-name="romannumeralfour" unicode="&#x2163;" horiz-adv-x="2600" 
d="M1605 500l58 -360l38 314l310 1046h184l-387 -1320l-26 -200l-228 20l-401 1360h-291v-1200h344v-160h-920l20 160h346v1200h-346l-20 140h1021z" />
    <glyph glyph-name="romannumeralfive" unicode="&#x2164;" 
d="M605 500l58 -360l38 314l310 1046h184l-387 -1320l-26 -200l-228 20l-442 1500l190 20z" />
    <glyph glyph-name="romannumeralsix" unicode="&#x2165;" horiz-adv-x="2600" 
d="M605 500l58 -360l38 314l310 1046h895v-140h-344v-1200h344v-160h-920l20 160h346v1200h-198l-346 -1180l-26 -200l-228 20l-442 1500l190 20z" />
    <glyph glyph-name="romannumeralseven" unicode="&#x2166;" horiz-adv-x="2600" 
d="M605 500l58 -360l38 314l310 1046h1395v-140h-358v-1200h378l-20 -160h-1420l20 160h346v1200h-198l-346 -1180l-26 -200l-228 20l-442 1500l190 20zM1562 160h300v1200h-300v-1200z" />
    <glyph glyph-name="romannumeraleight" unicode="&#x2167;" horiz-adv-x="2600" 
d="M405 500l58 -360l38 314l310 1046h1871v-140h-358v-1200h378l-20 -160h-1896l20 160h346v1200h-198l-346 -1180l-26 -200l-228 20l-442 1500l190 20zM1855 160h283v1200h-283v-1200zM1362 160h283v1200h-283v-1200z" />
    <glyph glyph-name="romannumeralnine" unicode="&#x2168;" horiz-adv-x="2600" 
d="M1978 0l-277 519l-77 181l-48 -160l-308 -540h-882l20 160h346v1200h-346l-20 140h965l249 -444l80 -196l35 160l252 480h200l-399 -724l430 -776h-220zM962 160h200l371 639l-325 561h-246v-1200z" />
    <glyph glyph-name="romannumeralten" unicode="&#x2169;" 
d="M978 0l-277 519l-77 181l-48 -160l-308 -540h-198l463 799l-406 701l212 20l261 -464l80 -196l35 160l252 480h200l-399 -724l430 -776h-220z" />
    <glyph glyph-name="romannumeraleleven" unicode="&#x216a;" horiz-adv-x="2600" 
d="M967 1500h939v-160h-358v-1180h378l-20 -160h-928l-277 519l-77 181l-48 -160l-308 -540h-198l463 799l-406 701l212 20l261 -464l80 -196l35 160zM1362 160v1180h-283l-311 -564l341 -616h253z" />
    <glyph glyph-name="romannumeraltwelve" unicode="&#x216b;" horiz-adv-x="2600" 
d="M978 0l-277 519l-77 181l-48 -160l-308 -540h-198l463 799l-406 701l212 20l261 -464l80 -196l35 160l252 480h1449v-140h-358v-1200h378l-20 -160h-1438zM1362 160v1200h-272l-322 -584l341 -616h253zM1572 160h300v1200h-300v-1200z" />
    <glyph glyph-name="smallromannumeralone" unicode="&#x2170;" 
d="M690 0h-190v1100l190 20v-1120z" />
    <glyph glyph-name="smallromannumeraltwo" unicode="&#x2171;" 
d="M490 0h-190v1100l190 20v-1120zM990 0h-190v1100l190 20v-1120z" />
    <glyph glyph-name="smallromannumeralthree" unicode="&#x2172;" 
d="M190 0h-190v1100l190 20v-1120zM690 0h-190v1100l190 20v-1120zM1190 0h-190v1100l190 20v-1120z" />
    <glyph glyph-name="smallromannumeralfour" unicode="&#x2173;" 
d="M1208 1120l-371 -1140l-206 20l-357 1100l183 20l239 -739l53 -232l50 232l234 719zM190 0h-190v1100l190 20v-1120z" />
    <glyph glyph-name="smallromannumeralfive" unicode="&#x2174;" 
d="M1108 1120l-371 -1140l-206 20l-357 1100l183 20l239 -739l53 -232l50 232l234 719z" />
    <glyph glyph-name="smallromannumeralsix" unicode="&#x2175;" 
d="M908 1120l-371 -1140l-206 20l-357 1100l183 20l239 -739l53 -232l50 232l234 719zM1190 0h-190v1100l190 20v-1120z" />
    <glyph glyph-name="smallromannumeralseven" unicode="&#x2176;" horiz-adv-x="2600" 
d="M1108 1120l-371 -1140l-206 20l-357 1100l183 20l239 -739l53 -232l50 232l234 719zM1390 0h-190v1100l190 20v-1120zM1790 0h-190v1100l190 20v-1120z" />
    <glyph glyph-name="smallromannumeraleight" unicode="&#x2177;" horiz-adv-x="2600" 
d="M1108 1120l-371 -1140l-206 20l-357 1100l183 20l239 -739l53 -232l50 232l234 719zM1390 0h-190v1100l190 20v-1120zM1790 0h-190v1100l190 20v-1120zM2190 0h-190v1100l190 20v-1120z" />
    <glyph glyph-name="smallromannumeralnine" unicode="&#x2178;" 
d="M1062 0l-279 392l-45 118l-45 -118l-288 -392h-199l422 588l-368 512l211 20l255 -349l39 -111l38 111l236 329l211 20l-375 -537l412 -583h-225zM190 0h-190v1100l190 20v-1120z" />
    <glyph glyph-name="smallromannumeralten" unicode="&#x2179;" 
d="M962 0l-279 392l-45 118l-45 -118l-288 -392h-199l422 588l-368 512l211 20l255 -349l39 -111l38 111l236 329l211 20l-375 -537l412 -583h-225z" />
    <glyph glyph-name="smallromannumeraleleven" unicode="&#x217a;" 
d="M762 0l-279 392l-45 118l-45 -118l-288 -392h-199l422 588l-368 512l211 20l255 -349l39 -111l38 111l236 329l211 20l-375 -537l412 -583h-225zM1190 0h-190v1100l190 20v-1120z" />
    <glyph glyph-name="smallromannumeraltwelve" unicode="&#x217b;" horiz-adv-x="2600" 
d="M1162 0l-279 392l-45 118l-45 -118l-288 -392h-199l422 588l-368 512l211 20l255 -349l39 -111l38 111l236 329l211 20l-375 -537l412 -583h-225zM1590 0h-190v1100l190 20v-1120zM1990 0h-190v1100l190 20v-1120z" />
    <glyph glyph-name="arrowleft" unicode="&#x2190;" 
d="M447 500l-104 12l57 -75v-237l-301 300l-119 100l120 100l300 300v-235l-57 -75l104 10h853v-200h-853z" />
    <glyph glyph-name="arrowup" unicode="&#x2191;" 
d="M500 1053l12 104l-75 -57h-237l300 301l100 119l100 -120l300 -300h-235l-75 57l10 -104v-1053h-200v1053z" />
    <glyph glyph-name="arrowright" unicode="&#x2192;" 
d="M0 500v200h853l104 -10l-57 75v235l300 -300l120 -100l-119 -100l-301 -300v237l57 75l-104 -12h-853z" />
    <glyph glyph-name="arrowdown" unicode="&#x2193;" 
d="M500 1500h200v-1053l-10 -104l75 57h235l-300 -300l-100 -120l-100 119l-300 301h237l75 -57l-12 104v1053z" />
    <glyph glyph-name="arrowboth" unicode="&#x2194;" 
d="M447 500l-104 12l57 -75v-237l-301 300l-119 100l120 100l300 300v-235l-57 -75l104 10h406l104 -10l-57 75v235l300 -300l120 -100l-119 -100l-301 -300v237l57 75l-104 -12h-406z" />
    <glyph glyph-name="arrowupdn" unicode="&#x2195;" 
d="M700 467l-12 -104l75 57h237l-300 -301l-100 -119l-100 120l-300 300h235l75 -57l-10 104v386l10 104l-75 -57h-235l300 300l100 120l100 -119l300 -301h-237l-75 57l12 -104v-386z" />
    <glyph glyph-name="arrowupleft" unicode="&#x2196;" 
d="M1090 151l-141 -141l-603 603l-67 79l-11 -93l-168 -165v404l-20 182l182 -20h404l-166 -169l-94 -12l81 -65z" />
    <glyph glyph-name="arrowupright" unicode="&#x2197;" 
d="M713 754l81 65l-94 12l-166 169h404l182 20l-20 -182v-404l-168 165l-11 93l-67 -79l-603 -603l-141 141z" />
    <glyph glyph-name="arrowdownright" unicode="&#x2198;" 
d="M110 849l141 141l603 -603l67 -79l11 93l168 165v-404l20 -182l-182 20h-404l166 169l94 12l-81 65z" />
    <glyph glyph-name="arrowdownleft" unicode="&#x2199;" 
d="M487 246l-81 -65l94 -12l166 -169h-404l-182 -20l20 182v404l168 -165l11 -93l67 79l603 603l141 -141z" />
    <glyph glyph-name="leftwardsarrowwithhook" unicode="&#x21a9;" 
d="M447 400l-104 12l57 -75v-237l-301 300l-119 100l120 100l300 300v-235l-57 -75l104 10h453q27 0 50.5 7.5t41.5 21t28 32t10 39.5t-10 39t-28 31.5t-41.5 21.5t-50.5 8v200q56 0 110 -19t96 -56.5t68 -93.5t26 -131t-26 -131.5t-68 -94t-96 -56t-110 -18.5h-453z" />
    <glyph glyph-name="rightwardsarrowwithhook" unicode="&#x21aa;" 
d="M300 400q-56 0 -110 18.5t-96 56t-68 94t-26 131.5t26 131t68 93.5t96 56.5t110 19v-200q-27 0 -50.5 -8t-41.5 -21.5t-28 -31.5t-10 -39t10 -39.5t28 -32t41.5 -21t50.5 -7.5h453l104 -10l-57 75v235l300 -300l120 -100l-119 -100l-301 -300v237l57 75l-104 -12h-453z
" />
    <glyph glyph-name="downwardsarrowwithtiprightwards" unicode="&#x21b3;" 
d="M359 500h294l104 -10l-57 75v235l300 -300l120 -100l-119 -100l-301 -300v237l57 75l-104 -12h-453v1000h159v-800z" />
    <glyph glyph-name="carriagereturn" unicode="&#x21b5;" 
d="M941 1300h159v-1000h-453l-104 12l57 -75v-237l-301 300l-119 100l120 100l300 300v-235l-57 -75l104 10h294v800z" />
    <glyph glyph-name="undo" unicode="&#x21b6;" 
d="M400 369l166 -169h-404l-182 -20l20 182v404l168 -165l11 -93l67 79l41 43l130 131t125 101.5t135.5 65.5t162.5 23q97 0 180.5 -26t145 -81t97 -140.5t37.5 -203.5h-200q0 120 -59 185.5t-188 65.5q-71 0 -127.5 -27.5t-109.5 -71t-107.5 -98t-121.5 -108.5l-81 -65z
" />
    <glyph glyph-name="redo" unicode="&#x21b7;" 
d="M994 381l-81 65q-67 54 -121.5 108.5t-107.5 98t-109.5 71t-127.5 27.5q-129 0 -188 -65.5t-59 -185.5h-200q1 118 36.5 203.5t97 140.5t145 81t181.5 26q91 0 162.5 -23t135.5 -65.5t125 -101.5l130 -131l41 -43l67 -79l11 93l168 165v-404l20 -182l-182 20h-404
l166 169z" />
    <glyph glyph-name="arrowdblleft" unicode="&#x21d0;" 
d="M7 691l366 366h170l-245 -244l100 -13h902v-116h-752l-350 28l-131 -112l131 -112l350 28h752v-116h-902l-100 -12l245 -245h-170l-366 366l-107 91z" />
    <glyph glyph-name="arrowdblup" unicode="&#x21d1;" 
d="M691 1393l366 -366v-170l-244 245l-13 -100v-1002h-116v852l28 350l-112 131l-112 -131l28 -350v-852h-116v1002l-12 100l-245 -245v170l366 366l91 107z" />
    <glyph glyph-name="arrowdblright" unicode="&#x21d2;" 
d="M1400 600l-107 -91l-366 -366h-170l245 245l-100 12h-902v116h752l350 -28l131 112l-131 112l-350 -28h-752v116h902l100 13l-245 244h170l366 -366z" />
    <glyph glyph-name="arrowdbldown" unicode="&#x21d3;" 
d="M600 0l-91 107l-366 366v170l245 -245l12 100v1002h116v-852l-28 -350l112 -131l112 131l-28 350v852h116v-1002l13 -100l244 245v-170l-366 -366z" />
    <glyph glyph-name="arrowdblleftright" unicode="&#x21d4;" 
d="M1400 600l-107 -91l-366 -366h-170l245 245l-100 12h-504l-100 -12l245 -245h-170l-366 366l-107 91l107 91l366 366h170l-245 -244l100 -13h504l100 13l-245 244h170l366 -366zM548 516h204l350 -28l131 112l-131 112l-350 -28h-204l-350 28l-131 -112l131 -112z" />
    <glyph glyph-name="arrowdblupdown" unicode="&#x21d5;" 
d="M600 0l-91 107l-366 366v170l245 -245l12 100v504l-12 100l-245 -245v170l366 366l91 107l91 -107l366 -366v-170l-244 245l-13 -100v-504l13 -100l244 245v-170l-366 -366zM516 852v-204l-28 -350l112 -131l112 131l-28 350v204l28 350l-112 131l-112 -131z" />
    <glyph glyph-name="arrowdblnorthwest" unicode="&#x21d6;" 
d="M229 1100h518l120 -121h-346l62 -79l637 -638l-82 -82l-531 532l-228 267l-172 14l14 -172l267 -228l532 -531l-82 -82l-638 637l-79 63v-347l-121 120v518l-11 140z" />
    <glyph glyph-name="arrowdblnortheast" unicode="&#x21d7;" 
d="M1211 1111l-11 -140v-518l-121 -120v347l-79 -63l-638 -637l-82 82l532 531l267 228l14 172l-172 -14l-228 -267l-531 -532l-82 82l637 638l62 79h-346l120 121h518z" />
    <glyph glyph-name="arrowdblsoutheast" unicode="&#x21d8;" 
d="M1071 0h-518l-120 121h346l-62 79l-637 638l82 82l531 -532l228 -267l172 -14l-14 172l-267 228l-532 531l82 82l638 -637l79 -63v347l121 -120v-518l11 -140z" />
    <glyph glyph-name="arrowdblsouthwest" unicode="&#x21d9;" 
d="M89 -11l11 140v518l121 120v-347l79 63l638 637l82 -82l-532 -531l-267 -228l-14 -172l172 14l228 267l531 532l82 -82l-637 -638l-62 -79h346l-120 -121h-518z" />
    <glyph glyph-name="pageup" unicode="&#x21de;" 
d="M300 500h200v160h-200v140h200v253l12 104l-75 -57h-237l300 301l100 119l100 -120l300 -300h-235l-75 57l10 -104v-253h200v-140h-200v-160h200v-140h-200v-360h-200v360h-200v140z" />
    <glyph glyph-name="pagedown" unicode="&#x21df;" 
d="M300 1140h200v360h200v-360h200v-140h-200v-160h200v-140h-200v-253l-10 -104l75 57h235l-300 -300l-100 -120l-100 119l-300 301h237l75 -57l-12 104v253h-200v140h200v160h-200v140z" />
    <glyph glyph-name="leftwardsdashedarrow" unicode="&#x21e0;" 
d="M447 500l-104 12l57 -75v-237l-301 300l-119 100l120 100l300 300v-235l-57 -75l104 10h103v-200h-103zM700 700h250v-200h-250v200zM1100 700h250v-200h-250v200z" />
    <glyph glyph-name="upwardsdashedarrow" unicode="&#x21e1;" 
d="M500 1053l12 104l-75 -57h-237l300 301l100 119l100 -120l300 -300h-235l-75 57l10 -104v-103h-200v103zM700 800v-250h-200v250h200zM700 400v-250h-200v250h200z" />
    <glyph glyph-name="rightwardsdashedarrow" unicode="&#x21e2;" 
d="M750 500v200h103l104 -10l-57 75v235l300 -300l120 -100l-119 -100l-301 -300v237l57 75l-104 -12h-103zM600 500h-250v200h250v-200zM200 500h-250v200h250v-200z" />
    <glyph glyph-name="downwardsdashedarrow" unicode="&#x21e3;" 
d="M500 550h200v-103l-10 -104l75 57h235l-300 -300l-100 -120l-100 119l-300 301h237l75 -57l-12 104v103zM500 700v250h200v-250h-200zM500 1100v250h200v-250h-200z" />
    <glyph glyph-name="shift" unicode="&#x21e7;" 
d="M600 1430l91 -107l382 -366v-102h-155l-8 -100v-755h-620v755l-9 100h-154v102l382 366zM400 662v-562h400v562l21 275h112l-333 336l-333 -336h113z" />
    <glyph glyph-name="capslock" unicode="&#x21ea;" 
d="M600 1430l91 -107l382 -366v-102h-155l-8 -100v-355h-620v355l-9 100h-154v102l382 366zM400 662v-162h400v162l21 275h112l-333 336l-333 -336h113zM910 300v-100l11 -200h-642l11 200v100h620zM400 94h400v106h-400v-106z" />
    <glyph glyph-name="universal" unicode="&#x2200;" 
d="M997 1300h190l-539 -1320l-143 20l-38 160l-439 1140h177l130 -300h531zM546 400l54 -288l54 288l156 450h-420z" />
    <glyph glyph-name="complement" unicode="&#x2201;" 
d="M670 143q105 0 167.5 66t62.5 207l174 -16q0 -92 -23.5 -168.5t-72.5 -131.5t-125.5 -86t-182.5 -31q-100 0 -173.5 25t-126 70t-85.5 107t-52 136.5t-26 158t-7 170.5t7 170.5t26 158t52 136.5t85.5 107t126 70t173.5 25q101 0 176.5 -30.5t126 -86t76 -132t25.5 -168.5
l-174 -15q0 131 -60.5 201.5t-169.5 70.5q-68 0 -114.5 -20t-78 -55.5t-49 -84t-26 -105t-10.5 -118.5t-2 -124q0 -63 2 -124.5t10.5 -118t26 -105t49 -84t78.5 -55.5t114 -20z" />
    <glyph glyph-name="existential" unicode="&#x2203;" 
d="M1015 160l-15 190v300h-752l-18 150h770v150l20 200h-845v150h1017l-22 -200v-900l17 -200h-1012v160h840z" />
    <glyph glyph-name="theredoesnotexist" unicode="&#x2204;" 
d="M320 -200h-155l71 200h-161v160h219l175 490h-321l-18 150h393l125 350h-573v150h627l72 200h146l-71 -200h243l-22 -200v-900l17 -200h-697zM915 160l-15 190v300h-280l-173 -490h468zM900 800v150l20 200h-124l-123 -350h227z" />
    <glyph glyph-name="emptyset" unicode="&#x2205;" 
d="M375 -200h-155l91 254q-72 40 -128 100.5t-94.5 137t-58.5 167t-20 191.5q0 144 39.5 266t114.5 211.5t185 139.5t251 50q42 0 81 -5t75 -14l73 202h146l-89 -253q72 -40 128.5 -100t95.5 -137t59.5 -168t20.5 -192q0 -144 -39.5 -266t-114.5 -211.5t-185 -139.5
t-251 -50q-42 0 -80 5t-74 13zM595 1169q-108 0 -184 -41t-125 -109.5t-71.5 -156.5t-22.5 -182q0 -71 10 -139.5t31 -129.5t54 -113t79 -89l339 946q-51 14 -110 14zM1008 623q0 70 -10 138.5t-31.5 130t-55 113t-80.5 88.5l-335 -949q25 -6 52 -9.5t57 -3.5
q106 0 182.5 42t125.5 111t72 157.5t23 181.5z" />
    <glyph glyph-name="gradient" unicode="&#x2207;" 
d="M49 1500h1172l-473 -1500h-227zM336 1340l-123 52l82 -92l311 -1058l30 -167l30 167l311 1058l85 92l-126 -52h-600z" />
    <glyph glyph-name="element" unicode="&#x2208;" 
d="M1220 0h-377q-171 0 -308.5 40.5t-234 122t-148.5 203.5t-52 284t52 284t148.5 203.5t234 122t308.5 40.5h377l-20 -154h-353q-198 0 -333 -66.5t-195 -208.5q-28 -66 -35 -146h916v-150h-916q7 -81 35 -147q60 -142 195 -208.5t333 -66.5h353z" />
    <glyph glyph-name="notelement" unicode="&#x2209;" 
d="M1220 0h-377q-133 0 -244 24l-79 -224h-155l95 266q-171 71 -265.5 217t-94.5 367q0 162 52 284t148.5 203.5t234 122t308.5 40.5h59l72 200h146l-71 -200h171l-20 -154h-205l-149 -421h354v-150h-407l-142 -403q45 -10 93.5 -14.5t102.5 -4.5h353zM319 871
q-28 -66 -35 -146h412l151 421q-198 0 -333 -66.5t-195 -208.5zM319 428q29 -72 78.5 -123.5t117.5 -85.5l127 356h-358q7 -81 35 -147z" />
    <glyph glyph-name="suchthat" unicode="&#x220b;" 
d="M100 153h353q198 0 333 66.5t195 208.5q28 66 35 147h-916v150h916q-7 80 -35 146q-60 142 -195 208.5t-333 66.5h-353l-20 154h377q171 0 308.5 -40.5t234 -122t148.5 -203.5t52 -284t-52 -284t-148.5 -203.5t-234 -122t-308.5 -40.5h-377z" />
    <glyph glyph-name="doesnotcontainasmember" unicode="&#x220c;" 
d="M100 153h191l151 422h-342v150h396l145 403q-86 18 -188 18h-353l-20 154h377q125 0 237 -23l80 223h146l-93 -262q177 -70 275 -217t98 -371q0 -162 -52 -284t-148.5 -203.5t-234 -122t-308.5 -40.5h-67l-70 -200h-155l71 200h-156zM453 153q198 0 333 66.5t195 208.5
q28 66 35 147h-423l-149 -422h9zM1016 725q-7 80 -35 146q-62 146 -208 214l-127 -360h370z" />
    <glyph glyph-name="minus" unicode="&#x2212;" 
d="M200 700h900v-155h-900v155z" />
    <glyph glyph-name="minusplus" unicode="&#x2213;" 
d="M200 612h373v337h155v-337h372v-124h-372v-338h-155v338h-373v124zM200 1200h900v-140h-900v140z" />
    <glyph glyph-name="ringoperator" unicode="&#x2218;" 
d="M600 917q56 0 105 -21t85.5 -58t57.5 -86t21 -105t-21 -105t-57.5 -85.5t-85.5 -58t-105 -21.5t-105 21.5t-85.5 58t-57.5 85.5t-21 105t21 105t57.5 86t85.5 58t105 21zM600 488q33 0 62 12.5t50.5 34t34 50.5t12.5 62t-12.5 62t-34 50.5t-50.5 34t-62 12.5t-62 -12.5
t-50.5 -34t-34 -50.5t-12.5 -62t12.5 -62t34 -50.5t50.5 -34t62 -12.5z" />
    <glyph glyph-name="proportional" unicode="&#x221d;" 
d="M477 330q57 0 103 33t81 82t59.5 104.5t39.5 100.5q-23 49 -51.5 103.5t-65.5 100.5t-83 76t-103 30q-47 0 -82.5 -27.5t-59 -71.5t-35 -99.5t-11.5 -111.5t15 -113t42.5 -103t66 -75t84.5 -29zM1234 189q-68 0 -121.5 23t-101.5 68t-94 113t-97 158l4 -95
q-26 -51 -58.5 -100t-75.5 -87.5t-98.5 -62t-125.5 -23.5q-97 0 -166.5 42t-113.5 109t-65 150t-21 166q0 55 8 111t25.5 108t45.5 97t68.5 78.5t94.5 53t124 19.5q67 0 121 -23.5t102 -69t94 -114t97 -158.5l-4 95q26 51 58.5 99.5t75.5 86.5t98 61t126 23l-11 -147
q-57 0 -103 -32.5t-81 -81t-59.5 -103.5t-39.5 -100q22 -49 51 -103t66 -99.5t83 -75t103 -29.5z" />
    <glyph glyph-name="sphericalangle" unicode="&#x2222;" 
d="M100 600l1015 587l122 -91l-272 -157q56 -93 84 -192.5t28 -202.5q0 -101 -27 -201.5t-84 -197.5l242 -140l-108 -86l-1000 564v117zM862 205q46 79 68 164t22 171q0 90 -23 175.5t-68 163.5l-593 -337z" />
    <glyph glyph-name="parallelto" unicode="&#x2225;" 
d="M455 1500v-1500h-155v1500h155zM855 1500v-1500h-155v1500h155z" />
    <glyph glyph-name="logicaland" unicode="&#x2227;" 
d="M780 1320l442 -1320h-164l-336 980l-65 240l-65 -240l-337 -980h-162l429 1300z" />
    <glyph glyph-name="logicalor" unicode="&#x2228;" 
d="M522 0l-429 1300l155 20l344 -1000l65 -240l65 240l336 980l171 20l-442 -1320h-265z" />
    <glyph glyph-name="intersection" unicode="&#x2229;" 
d="M650 1140q-88 0 -149.5 -24t-103 -65.5t-65 -97.5t-35.5 -119t-15 -130t-3 -131v-573h-179v538q0 114 8.5 215t31 185.5t62 151.5t100.5 113.5t146.5 71.5t201.5 25q115 0 201 -25t147 -71.5t100 -113.5t61.5 -151.5t31 -185.5t8.5 -215v-538h-179v573q0 64 -3 131
t-15 130t-35.5 119t-64.5 97.5t-102.5 65.5t-149.5 24z" />
    <glyph glyph-name="union" unicode="&#x222a;" 
d="M649 143q88 0 149.5 24t103 65.5t65 97.5t35.5 119t15 130t3 131v570l179 20v-555q0 -114 -8.5 -215t-31 -185.5t-62 -151.5t-100.5 -113.5t-146.5 -71.5t-201.5 -25t-201.5 25t-146.5 71.5t-100 113.5t-61.5 151.5t-31 185.5t-8.5 215v535l179 20v-590q0 -64 3 -131
t15 -130t35.5 -119t64.5 -97.5t102.5 -65.5t149.5 -24z" />
    <glyph glyph-name="contourintegral" unicode="&#x222e;" 
d="M500 1117q0 85 15.5 158t53.5 127t101.5 84.5t159.5 30.5q46 0 78.5 -3.5t58 -10t46 -15t41.5 -18.5l-63 -123q-19 11 -51.5 19t-57.5 8q-24 0 -52.5 -4.5t-58.5 -24.5q-44 -31 -57.5 -87.5t-13.5 -140.5v-243q59 -15 109 -46t86.5 -74.5t57 -96.5t20.5 -111
q0 -59 -20.5 -111.5t-57 -96t-86.5 -75t-109 -46.5v-238q0 -85 -15.5 -158t-53.5 -127t-101.5 -84.5t-159.5 -30.5q-45 0 -81 3.5t-65 10t-53 15t-45 18.5l83 123q19 -11 51.5 -19t57.5 -8q4 0 15 1.5t29 3.5q37 4 66 24q46 31 59 87t13 141v238q-60 15 -110 46.5t-87 74.5
t-57.5 96t-20.5 112t20.5 112t57.5 96.5t87 74.5t110 46v242zM357 546q0 -38 10.5 -72t29 -62.5t45 -51t58.5 -36.5v444q-64 -29 -103.5 -88t-39.5 -134zM841 546q0 37 -10.5 70.5t-29 62.5t-44.5 51.5t-57 36.5v-442q63 29 102 87.5t39 133.5z" />
    <glyph glyph-name="therefore" unicode="&#x2234;" 
d="M-364 150q0 34 13 64t35.5 52.5t52 35.5t63.5 13t64 -13t52.5 -35.5t35.5 -52.5t13 -64t-13 -64.5t-35 -53t-51.5 -36t-63.5 -13.5t-64.5 13.5t-53 36t-35.5 53t-13 64.5zM436 150q0 34 13 64t35.5 52.5t52 35.5t63.5 13t64 -13t52.5 -35.5t35.5 -52.5t13 -64t-13 -64.5
t-35 -53t-51.5 -36t-63.5 -13.5t-64.5 13.5t-53 36t-35.5 53t-13 64.5zM36 1040q0 34 13 64t35.5 52.5t52 35.5t63.5 13t64 -13t52.5 -35.5t35.5 -52.5t13 -64t-13 -64.5t-35 -53t-51.5 -36t-63.5 -13.5t-64.5 13.5t-53 36t-35.5 53t-13 64.5z" />
    <glyph glyph-name="because" unicode="&#x2235;" 
d="M-364 1040q0 34 13 64t35.5 52.5t52 35.5t63.5 13t64 -13t52.5 -35.5t35.5 -52.5t13 -64t-13 -64.5t-35 -53t-51.5 -36t-63.5 -13.5t-64.5 13.5t-53 36t-35.5 53t-13 64.5zM436 1040q0 34 13 64t35.5 52.5t52 35.5t63.5 13t64 -13t52.5 -35.5t35.5 -52.5t13 -64
t-13 -64.5t-35 -53t-51.5 -36t-63.5 -13.5t-64.5 13.5t-53 36t-35.5 53t-13 64.5zM36 150q0 34 13 64t35.5 52.5t52 35.5t63.5 13t64 -13t52.5 -35.5t35.5 -52.5t13 -64t-13 -64.5t-35 -53t-51.5 -36t-63.5 -13.5t-64.5 13.5t-53 36t-35.5 53t-13 64.5z" />
    <glyph glyph-name="similar" unicode="&#x223c;" 
d="M760 400q-35 0 -66 12.5t-59.5 31.5t-55 41t-52 41t-51 31.5t-51.5 12.5q-31 0 -58.5 -7.5t-54.5 -21.5t-54.5 -34.5t-57.5 -46.5v100q20 28 43 53t52 44.5t64.5 31t80.5 11.5q52 0 96.5 -26.5t84.5 -58.5t77.5 -58.5t76.5 -26.5q61 0 113 28.5t112 81.5v-100
q-20 -28 -43 -53t-52 -44.5t-64.5 -31t-80.5 -11.5z" />
    <glyph glyph-name="asymptoticallyequal" unicode="&#x2243;" 
d="M200 400h800v-140h-800v140zM760 500q-35 0 -66 12.5t-59.5 31.5t-55 41t-52 41t-51 31.5t-51.5 12.5q-31 0 -58.5 -7.5t-54.5 -21.5t-54.5 -34.5t-57.5 -46.5v100q20 28 43 53t52 44.5t64.5 31t80.5 11.5q52 0 96.5 -26.5t84.5 -58.5t77.5 -58.5t76.5 -26.5
q61 0 113 28.5t112 81.5v-100q-20 -28 -43 -53t-52 -44.5t-64.5 -31t-80.5 -11.5z" />
    <glyph glyph-name="congruent" unicode="&#x2245;" 
d="M200 600h800v-140h-800v140zM200 300h800v-140h-800v140zM760 700q-35 0 -66 12.5t-59.5 31.5t-55 41t-52 41t-51 31.5t-51.5 12.5q-31 0 -58.5 -7.5t-54.5 -21.5t-54.5 -34.5t-57.5 -46.5v100q20 28 43 53t52 44.5t64.5 31t80.5 11.5q52 0 96.5 -26.5t84.5 -58.5
t77.5 -58.5t76.5 -26.5q61 0 113 28.5t112 81.5v-100q-20 -28 -43 -53t-52 -44.5t-64.5 -31t-80.5 -11.5z" />
    <glyph glyph-name="estimate" unicode="&#x2259;" 
d="M200 600h800v-140h-800v140zM200 300h800v-140h-800v140zM917 754h-120l-169 196l-27 67l-26 -65l-162 -197h-130l275 352l77 10z" />
    <glyph glyph-name="equivalence" unicode="&#x2261;" 
d="M200 600h800v-140h-800v140zM200 300h800v-140h-800v140zM200 900h800v-140h-800v140z" />
    <glyph glyph-name="propersubset" unicode="&#x2282;" 
d="M1220 0h-377q-171 0 -308.5 40.5t-234 122t-148.5 203.5t-52 284t52 284t148.5 203.5t234 122t308.5 40.5h377l-20 -154h-353q-198 0 -333 -66.5t-195 -208.5q-27 -65 -27 -222t27 -221q60 -142 195 -208.5t333 -66.5h353z" />
    <glyph glyph-name="propersuperset" unicode="&#x2283;" 
d="M100 153h353q198 0 333 66.5t195 208.5q27 64 27 221t-27 222q-60 142 -195 208.5t-333 66.5h-353l-20 154h377q171 0 308.5 -40.5t234 -122t148.5 -203.5t52 -284t-52 -284t-148.5 -203.5t-234 -122t-308.5 -40.5h-377z" />
    <glyph glyph-name="reflexsubset" unicode="&#x2286;" 
d="M200 155h1000l20 -154h-1020v154zM1220 300h-377q-172 0 -309 40.5t-234 122.5q-95 80 -148 203q-52 120 -52 234t52 234q53 123 148 203q97 82 234 122.5t309 40.5h377l-20 -154h-353q-198 0 -333 -66.5t-195 -208.5q-27 -65 -27 -172t27 -171q60 -142 195 -208.5
t333 -66.5h353z" />
    <glyph glyph-name="reflexsuperset" unicode="&#x2287;" 
d="M1100 1h-1020l20 154h1000v-154zM100 453h353q198 0 333 66.5t195 208.5q27 64 27 171t-27 172q-60 142 -195 208.5t-333 66.5h-353l-20 154h377q172 0 308.5 -40.5t233.5 -122.5q96 -79 149 -203q52 -120 52 -234t-52 -234q-53 -123 -149 -204q-97 -81 -233.5 -121.5
t-308.5 -40.5h-377z" />
    <glyph glyph-name="circleplus" unicode="&#x2295;" 
d="M-17 750q0 159 44.5 298.5t130 243.5t209.5 164.5t283 60.5t283 -60.5t209.5 -164.5t130 -243.5t44.5 -298.5t-44.5 -298.5t-130 -243.5t-209.5 -164.5t-283 -60.5t-283 60.5t-209.5 164.5t-130 243.5t-44.5 298.5zM136 675q13 -105 43.5 -198t83.5 -164.5t130 -117.5
t182 -59v539h-439zM575 1362q-105 -13 -182 -59t-130 -117t-83.5 -163.5t-43.5 -197.5h439v537zM725 136q105 13 182 59t129.5 117.5t82.5 164.5t43 198h-437v-539zM1162 825q-13 105 -43 197.5t-82.5 163.5t-129.5 117t-182 59v-537h437z" />
    <glyph glyph-name="circleminus" unicode="&#x2296;" 
d="M-17 750q0 159 44.5 298.5t130 243.5t209.5 164.5t283 60.5t283 -60.5t209.5 -164.5t130 -243.5t44.5 -298.5t-44.5 -298.5t-130 -243.5t-209.5 -164.5t-283 -60.5t-283 60.5t-209.5 164.5t-130 243.5t-44.5 298.5zM650 132q118 0 207.5 42t152.5 115t100.5 172t51.5 214
h-1026q14 -115 51.5 -214t101 -172t153 -115t208.5 -42zM650 1367q-119 0 -208.5 -42t-153 -115t-101 -172t-51.5 -213h1026q-14 114 -51.5 213t-100.5 172t-152.5 115t-207.5 42z" />
    <glyph glyph-name="circlemultiply" unicode="&#x2297;" 
d="M-17 750q0 159 44.5 298.5t130 243.5t209.5 164.5t283 60.5t283 -60.5t209.5 -164.5t130 -243.5t44.5 -298.5t-44.5 -298.5t-130 -243.5t-209.5 -164.5t-283 -60.5t-283 60.5t-209.5 164.5t-130 243.5t-44.5 298.5zM132 750q0 -54 7.5 -110t22.5 -110t37.5 -103t53.5 -88
l291 411l-291 410q-31 -39 -53.5 -88t-37.5 -102.5t-22.5 -109.5t-7.5 -110zM650 122q93 0 164.5 24.5t135.5 86.5l-300 411l-301 -411q32 -31 65.5 -52t70.5 -34t77.5 -19t87.5 -6zM650 1377q-93 0 -164.5 -25t-135.5 -86l300 -410l300 410q-64 62 -135.5 86.5t-164.5 24.5
zM1167 750q0 54 -7.5 110t-22.5 109.5t-37.5 102.5t-53.5 88l-290 -410l290 -410q31 39 53.5 88t37.5 102.5t22.5 109.5t7.5 110z" />
    <glyph glyph-name="circledivide" unicode="&#x2298;" 
d="M-17 750q0 159 44.5 298.5t130 243.5t209.5 164.5t283 60.5t283 -60.5t209.5 -164.5t130 -243.5t44.5 -298.5t-44.5 -298.5t-130 -243.5t-209.5 -164.5t-283 -60.5t-283 60.5t-209.5 164.5t-130 243.5t-44.5 298.5zM152 750q0 -54 4 -110t15.5 -110t31 -103t50.5 -88
l677 937q-28 23 -55 40t-59.5 28.5t-72 17t-93.5 5.5q-128 0 -221.5 -48.5t-155 -132t-91.5 -196t-30 -240.5zM1147 750q0 54 -4.5 110t-15.5 109.5t-30.5 102.5t-50.5 88l-677 -937q28 -23 55 -40.5t59.5 -28.5t72.5 -16.5t94 -5.5q128 0 221.5 48.5t155 132.5t91 196.5
t29.5 240.5z" />
    <glyph glyph-name="perpendicular" unicode="&#x22a5;" 
d="M700 1300v-1150h400l-20 -150h-985l20 150h385v1150h200z" />
    <glyph glyph-name="staroperator" unicode="&#x22c6;" 
d="M795 652l94 -292l-200 138l-59 58l-59 -58l-202 -138l93 292l-224 177h287l105 265l103 -265h287z" />
    <glyph glyph-name="verticalellipsis" unicode="&#x22ee;" 
d="M36 150q0 34 13 64t35.5 52.5t52 35.5t63.5 13t64 -13t52.5 -35.5t35.5 -52.5t13 -64t-13 -64.5t-35 -53t-51.5 -36t-63.5 -13.5t-64.5 13.5t-53 36t-35.5 53t-13 64.5zM36 750q0 34 13 64t35.5 52.5t52 35.5t63.5 13t64 -13t52.5 -35.5t35.5 -52.5t13 -64t-13 -64.5
t-35 -53t-51.5 -36t-63.5 -13.5t-64.5 13.5t-53 36t-35.5 53t-13 64.5zM36 1350q0 34 13 64t35.5 52.5t52 35.5t63.5 13t64 -13t52.5 -35.5t35.5 -52.5t13 -64t-13 -64.5t-35 -53t-51.5 -36t-63.5 -13.5t-64.5 13.5t-53 36t-35.5 53t-13 64.5z" />
    <glyph glyph-name="house" unicode="&#x2302;" 
d="M1250 700l-50 100v-800h-1100v800l-49 -100h-51v185l100 50v265h200v-159l329 159l21 16l21 -16l629 -315v-185h-50zM1100 765l-450 235l-450 -185v-715h100v500h300v-500h500v665zM700 600h300v-300h-300v300zM500 100v400h-100v-400h100zM800 400h100v100h-100v-100z
" />
    <glyph glyph-name="leftceiling" unicode="&#x2308;" 
d="M500 0h-200v1500h600v-150h-400v-1350z" />
    <glyph glyph-name="rightceiling" unicode="&#x2309;" 
d="M800 1350h-400v150h600v-1500h-200v1350z" />
    <glyph glyph-name="leftfloor" unicode="&#x230a;" 
d="M500 150h400v-150h-600v1500h200v-1350z" />
    <glyph glyph-name="rightfloor" unicode="&#x230b;" 
d="M800 1500h200v-1500h-600v150h400v1350z" />
    <glyph glyph-name="topleftcorner" unicode="&#x231c;" 
d="M400 750h-200v750h750v-150h-550v-600z" />
    <glyph glyph-name="toprightcorner" unicode="&#x231d;" 
d="M900 1350h-550v150h750v-750h-200v600z" />
    <glyph glyph-name="bottomleftcorner" unicode="&#x231e;" 
d="M400 150h550v-150h-750v750h200v-600z" />
    <glyph glyph-name="bottomrightcorner" unicode="&#x231f;" 
d="M900 750h200v-750h-750v150h550v600z" />
    <glyph glyph-name="blackrightpointingtriangle" unicode="&#x25b6;" 
d="M251 1135l749 -435l-749 -434l25 434z" />
    <glyph glyph-name="whiterightpointingtriangle" unicode="&#x25b7;" 
d="M251 266l25 434l-25 435l749 -435zM340 991l16 -291l-16 -290l501 290z" />
    <glyph glyph-name="blackrightpointingsmall" unicode="&#x25b8;" 
d="M399 991l501 -291l-501 -290l17 290z" />
    <glyph glyph-name="whiterightpointingsmall" unicode="&#x25b9;" 
d="M399 410l17 290l-17 291l501 -291zM487 847l9 -142v-10l-9 -141l253 146z" />
    <glyph glyph-name="blackdownpointingtriangle" unicode="&#x25bc;" 
d="M100 1100h1100l-550 -900z" />
    <glyph glyph-name="whitedownpointingtriangle" unicode="&#x25bd;" 
d="M650 410l330 570h-660zM100 1100h1100l-550 -900z" />
    <glyph glyph-name="blackdownpointingsmalltriangle" unicode="&#x25be;" 
d="M265 1100h770l-385 -630z" />
    <glyph glyph-name="whitedownpointingsmalltriangle" unicode="&#x25bf;" 
d="M650 617l231 399h-462zM265 1100h770l-385 -630z" />
    <glyph glyph-name="fisheye" unicode="&#x25c9;" 
d="M600 851q31 0 58 -12t47.5 -32.5t32.5 -47.5t12 -58t-12 -58.5t-32.5 -47.5t-47.5 -32t-58 -12t-58.5 12t-47.5 32t-32 47.5t-12 58.5t12 58t32 47.5t47.5 32.5t58.5 12zM184 701q0 86 32.5 162t89 132.5t132.5 89t162 32.5t162 -32.5t132.5 -89t89 -132.5t32.5 -162
t-32.5 -162t-89 -132.5t-132.5 -89t-162 -32.5t-162 32.5t-132.5 89t-89 132.5t-32.5 162zM300 701q0 -62 23.5 -117t64 -95.5t95.5 -64t117 -23.5t117 23.5t95.5 64t64 95.5t23.5 117t-23.5 117t-64 95.5t-95.5 64t-117 23.5t-117 -23.5t-95.5 -64t-64 -95.5t-23.5 -117z
" />
    <glyph glyph-name="bullseye" unicode="&#x25ce;" 
d="M600 821q-25 0 -46.5 -9.5t-38 -26t-26 -38t-9.5 -46.5t9.5 -46.5t26 -38t38 -26t46.5 -9.5t46.5 9.5t38 26t26 38t9.5 46.5t-9.5 46.5t-26 38t-38 26t-46.5 9.5zM184 701q0 86 32.5 162t89 132.5t132.5 89t162 32.5t162 -32.5t132.5 -89t89 -132.5t32.5 -162t-32.5 -162
t-89 -132.5t-132.5 -89t-162 -32.5t-162 32.5t-132.5 89t-89 132.5t-32.5 162zM300 701q0 -62 23.5 -117t64 -95.5t95.5 -64t117 -23.5t117 23.5t95.5 64t64 95.5t23.5 117t-23.5 117t-64 95.5t-95.5 64t-117 23.5t-117 -23.5t-95.5 -64t-64 -95.5t-23.5 -117zM400 701
q0 41 16 77.5t43 63.5t63.5 43t77.5 16t77.5 -16t63.5 -43t43 -63.5t16 -77.5t-16 -77.5t-43 -63.5t-63.5 -43t-77.5 -16t-77.5 16t-63.5 43t-43 63.5t-16 77.5z" />
    <glyph glyph-name="blackcircle" unicode="&#x25cf;" 
d="M184 701q0 86 32.5 162t89 132.5t132.5 89t162 32.5t162 -32.5t132.5 -89t89 -132.5t32.5 -162t-32.5 -162t-89 -132.5t-132.5 -89t-162 -32.5t-162 32.5t-132.5 89t-89 132.5t-32.5 162z" />
    <glyph glyph-name="circlewithlefthalfblack" unicode="&#x25d0;" 
d="M184 701q0 86 32.5 162t89 132.5t132.5 89t162 32.5t162 -32.5t132.5 -89t89 -132.5t32.5 -162t-32.5 -162t-89 -132.5t-132.5 -89t-162 -32.5t-162 32.5t-132.5 89t-89 132.5t-32.5 162zM900 701q0 62 -23.5 117t-64 95.5t-95.5 64t-117 23.5v-600q62 0 117 23.5
t95.5 64t64 95.5t23.5 117z" />
    <glyph glyph-name="circlewithrighthalfblack" unicode="&#x25d1;" 
d="M184 701q0 86 32.5 162t89 132.5t132.5 89t162 32.5t162 -32.5t132.5 -89t89 -132.5t32.5 -162t-32.5 -162t-89 -132.5t-132.5 -89t-162 -32.5t-162 32.5t-132.5 89t-89 132.5t-32.5 162zM300 701q0 -62 23.5 -117t64 -95.5t95.5 -64t117 -23.5v600q-62 0 -117 -23.5
t-95.5 -64t-64 -95.5t-23.5 -117z" />
    <glyph glyph-name="circlewithlowerhalfblack" unicode="&#x25d2;" 
d="M600 1117q86 0 162 -32.5t132.5 -89t89 -132.5t32.5 -162t-32.5 -162t-89 -132.5t-132.5 -89t-162 -32.5t-162 32.5t-132.5 89t-89 132.5t-32.5 162t32.5 162t89 132.5t132.5 89t162 32.5zM600 1001q-62 0 -117 -23.5t-95.5 -64t-64 -95.5t-23.5 -117h600q0 62 -23.5 117
t-64 95.5t-95.5 64t-117 23.5z" />
    <glyph glyph-name="circlewithupperhalfblack" unicode="&#x25d3;" 
d="M600 285q-86 0 -162 32.5t-132.5 89t-89 132.5t-32.5 162t32.5 162t89 132.5t132.5 89t162 32.5t162 -32.5t132.5 -89t89 -132.5t32.5 -162t-32.5 -162t-89 -132.5t-132.5 -89t-162 -32.5zM600 401q62 0 117 23.5t95.5 64t64 95.5t23.5 117h-600q0 -62 23.5 -117
t64 -95.5t95.5 -64t117 -23.5z" />
    <glyph glyph-name="day" unicode="&#x2600;" horiz-adv-x="2600" 
d="M1829 456q-5 -28 -12 -55t-17 -54l128 -102l-18 -39l-160 38q-46 -72 -111 -130l90 -189l-31 -21l-151 143q-24 -14 -49.5 -26.5t-52.5 -21.5l22 -246l-31 -7l-95 227q-22 -3 -44 -5t-45 -2h-11.5t-11.5 1l-59 -155l-43 6l-14 164q-83 23 -157 65l-151 -143l-30 21
l89 189q-21 19 -41 39.5t-37 43.5l-226 -97l-17 27l187 160q-13 26 -23 52t-18 54l-165 7l-7 42l152 65q0 11 -0.5 21.5t-0.5 22.5q0 67 13 125l-182 100l11 35l206 -27q23 53 56 100l-162 185l21 25l210 -128q20 20 42 37.5t45 33.5l-44 160l38 19l108 -124q76 31 165 40
l38 205h38l38 -205q29 -3 57 -8.5t55 -13.5l125 212l30 -12l-56 -240q50 -26 94 -61l139 91l30 -30l-86 -141q28 -33 51 -69t40 -76l206 27l11 -35l-182 -100q5 -27 8.5 -55t4.5 -57l239 -55v-32z" />
    <glyph glyph-name="cloud" unicode="&#x2601;" horiz-adv-x="2600" 
d="M1102 1101q136 0 232.5 -67.5t140.5 -196.5q24 9 51 13.5t54 4.5q50 0 98 -17.5t85.5 -48.5t60.5 -74.5t23 -95.5q0 -21 -3 -43q55 -24 98 -63q18 -17 36 -38t31.5 -48t22 -59t8.5 -70q0 -56 -16.5 -102.5t-44.5 -82.5t-65.5 -59.5t-80.5 -33.5q-51 -15 -111.5 -17.5
t-131.5 -2.5h-749q-79 0 -158 23.5t-142 69t-102 114t-39 158.5q0 57 18 107t51.5 92t81 75.5t106.5 57.5q0 91 37.5 166t99.5 127.5t142 81.5t166 29zM727 557q-75 -29 -120.5 -80.5t-45.5 -111.5q0 -51 23.5 -90.5t62.5 -66.5t89.5 -41.5t104.5 -14.5h749q78 0 132.5 6
t89 22t50 44t15.5 73q0 34 -15 60.5t-41 49.5t-62 44.5l-78 44.5q10 14 16.5 36t6.5 48t-10 49.5t-27.5 41.5t-41 28.5t-51.5 10.5q-18 0 -35.5 -4.5t-32 -12t-26 -16t-18.5 -17.5l-134 107q-53 172 -226 172q-62 0 -114.5 -18t-90 -51.5t-58.5 -81.5t-21 -108l31 -123h-122
z" />
    <glyph glyph-name="umbrella" unicode="&#x2602;" 
d="M785 90q31 0 52.5 21.5t21.5 52.5l108 -28q0 -29 -14 -56.5t-38.5 -49t-58 -34.5t-71.5 -13q-41 0 -75 13.5t-58.5 37.5t-38 57t-13.5 73v636q-151 0 -247 -5.5t-153 -12.5q-66 -8 -100 -18q0 59 23.5 114t63.5 103.5t94 89t115 69t126 44.5t128 16q62 0 127.5 -16
t126.5 -44.5t115 -69t94 -89t63.5 -103.5t23.5 -114q-34 10 -100 18q-57 7 -153 12.5t-247 5.5v-626q0 -23 7.5 -39t19.5 -26t27 -14.5t31 -4.5z" />
    <glyph glyph-name="snowman" unicode="&#x2603;" 
d="M600 749q0 -21 15 -36t36 -15t36 15t15 36t-15 36t-36 15t-36 -15t-15 -36zM600 349q0 -21 15 -36t36 -15t36 15t15 36t-15 36t-36 15t-36 -15t-15 -36zM400 1250q0 -21 14.5 -35.5t35.5 -14.5t35.5 14.5t14.5 35.5t-14.5 35.5t-35.5 14.5t-35.5 -14.5t-14.5 -35.5z
M700 1260q0 -3 7.5 -9.5t18.5 -13t24 -11.5t24 -5t18.5 6t7.5 23q0 21 -14.5 35.5t-35.5 14.5t-35.5 -9.5t-14.5 -30.5zM1032 783q20 -31 36 -85t27 -114.5t16.5 -118.5t5.5 -97q0 -107 -40.5 -180.5t-111 -119t-164.5 -65.5t-201 -20t-201 20t-164.5 65.5t-111 119
t-40.5 180.5q0 65 15.5 139t44 147t68.5 138.5t89 113.5q54 52 113 76q-26 21 -47 40.5t-35.5 42t-22.5 49.5t-8 63q0 62 23.5 123t64 109t95.5 78t117 30t117 -30t95.5 -78t64 -109t23.5 -123q0 -36 -8 -63t-22.5 -49.5t-35.5 -42t-47 -40.5q20 -8 45 -20.5t52 -30.5
t54.5 -41t51.5 -51l-17 123l142 245l122 -70zM600 549q0 -21 15 -36t36 -15t36 15t15 36t-15 36t-36 15t-36 -15t-15 -36zM577 1208q-7 -11 -7 -25q0 -13 6.5 -24.5t18.5 -18.5q7 -5 30.5 -15t52 -20.5t56 -18.5t44.5 -8q12 0 15 5q1 1 1 4q0 12 -20 33.5t-46 43.5t-50 40
t-33 23q-11 7 -25 7q-13 0 -24.5 -6.5t-18.5 -19.5z" />
    <glyph glyph-name="blackstar" unicode="&#x2605;" 
d="M927 487l157 -487l-334 230l-98 96l-98 -96l-338 -230l156 487l-373 294h477l176 443l172 -443h477z" />
    <glyph glyph-name="phone" unicode="&#x260e;" 
d="M730 629l53.5 77.5l58.5 83t47 70t19 39.5q0 12 -23 28t-50.5 32.5t-50.5 33t-23 30.5q0 21 11.5 53.5t30.5 69.5t42 73.5t46.5 66.5t44 48.5t34.5 18.5q15 0 44 -20.5t58 -52.5t50.5 -70t21.5 -74q0 -55 -15.5 -129t-45 -157t-71.5 -171.5t-96 -172.5t-116 -160
t-125 -138t-123.5 -107.5t-110.5 -68.5q-13 -6 -28.5 -8.5t-32.5 -2.5q-33 0 -67.5 8t-64.5 20t-51 25.5t-26 24.5q-2 6 -2 12q0 17 11 45t28.5 60.5t40.5 66.5t46.5 63.5t46 51.5t40.5 30q4 2 8 2q14 0 36 -13t45.5 -28.5l44.5 -28.5t34 -13q5 0 7 1q8 3 26 33l42 72
l51.5 89.5t53.5 86.5z" />
    <glyph glyph-name="emptybox" unicode="&#x2610;" 
d="M1200 0h-1100v1100h1100v-1100zM265 165h770v770h-770v-770z" />
    <glyph glyph-name="boxwithacheck" unicode="&#x2611;" 
d="M680 400l10 200q30 85 69 165.5t82 153t88 135.5t87 114.5t78.5 89t62.5 59.5l131 -17q-45 -50 -97.5 -120.5t-105.5 -155.5t-103 -179.5t-91 -193.5t-68.5 -197.5t-35.5 -190.5l-222 17l-205 520l168 20zM265 165h770v389q25 99 66 200t99 196v-950h-1100v1100h703
q-15 -15 -32 -34.5t-33.5 -41t-32 -44.5t-25.5 -45h-415v-770z" />
    <glyph glyph-name="boxwithaX" unicode="&#x2612;" 
d="M1200 0h-1100v1100h1100v-1100zM265 165h770v770h-770v-770zM801 230l-131 170l-8 68l-157 -238h-179l222 328l-221 286l195 25l93 -136l13 -102l140 222l191 17l-204 -301l241 -339h-195z" />
    <glyph glyph-name="frowningface" unicode="&#x2639;" 
d="M83 550q0 117 44.5 220.5t121.5 180.5t180.5 121.5t220.5 44.5t220.5 -44.5t180.5 -121.5t121.5 -180.5t44.5 -220.5t-44.5 -220.5t-121.5 -180.5t-180.5 -121.5t-220.5 -44.5t-220.5 44.5t-180.5 121.5t-121.5 180.5t-44.5 220.5zM200 550q0 -93 35.5 -175t96.5 -143
t143 -96.5t175 -35.5t175 35.5t143 96.5t96.5 143t35.5 175t-35.5 175t-96.5 143t-143 96.5t-175 35.5t-175 -35.5t-143 -96.5t-96.5 -143t-35.5 -175zM650 500q56 0 110 -18t96 -50.5t68 -77.5t26 -99q-2 3 -19.5 25.5t-54 49t-92.5 48t-134 21.5t-134.5 -21.5t-92.5 -48
t-54 -49t-19 -25.5q0 54 26 99t68 77.5t96 50.5t110 18zM750 600q-21 0 -35.5 14t-14.5 35v101q0 21 14.5 35.5t35.5 14.5t35.5 -14.5t14.5 -35.5v-101q0 -21 -14.5 -35t-35.5 -14zM550 600q-21 0 -35.5 14t-14.5 35v101q0 21 14.5 35.5t35.5 14.5t35.5 -14.5t14.5 -35.5
v-101q0 -21 -14.5 -35t-35.5 -14z" />
    <glyph glyph-name="smilingface" unicode="&#x263a;" 
d="M83 550q0 117 44.5 220.5t121.5 180.5t180.5 121.5t220.5 44.5t220.5 -44.5t180.5 -121.5t121.5 -180.5t44.5 -220.5t-44.5 -220.5t-121.5 -180.5t-180.5 -121.5t-220.5 -44.5t-220.5 44.5t-180.5 121.5t-121.5 180.5t-44.5 220.5zM200 550q0 -93 35.5 -175t96.5 -143
t143 -96.5t175 -35.5t175 35.5t143 96.5t96.5 143t35.5 175t-35.5 175t-96.5 143t-143 96.5t-175 35.5t-175 -35.5t-143 -96.5t-96.5 -143t-35.5 -175zM650 400q78 0 134 21.5t92.5 47.5t54 48.5t19.5 25.5q0 -54 -26 -98.5t-68 -77t-96 -50.5t-110 -18t-110 18t-96 50.5
t-68 77t-26 98.5q1 -3 19 -25.5t54 -48.5t92.5 -47.5t134.5 -21.5zM750 600q-21 0 -35.5 14t-14.5 35v101q0 21 14.5 35.5t35.5 14.5t35.5 -14.5t14.5 -35.5v-101q0 -21 -14.5 -35t-35.5 -14zM550 600q-21 0 -35.5 14t-14.5 35v101q0 21 14.5 35.5t35.5 14.5t35.5 -14.5
t14.5 -35.5v-101q0 -21 -14.5 -35t-35.5 -14z" />
    <glyph glyph-name="sun" unicode="&#x263c;" 
d="M1087 434q-8 -44 -23 -87l102 -83l-13 -31l-129 30q-20 -29 -42 -55t-48 -49l73 -152l-25 -17l-122 115q-20 -12 -40.5 -22t-41.5 -17l18 -199l-26 -5l-77 183q-17 -2 -35 -3.5t-35 -1.5h-10t-9 1l-48 -126l-35 5l-11 132q-33 10 -65 23t-61 30l-123 -115l-23 17l72 152
q-35 30 -63 66l-182 -78l-14 22l150 129q-10 21 -18 42t-14 44l-133 5l-6 34l123 53q0 8 -0.5 16.5t-0.5 17.5q0 55 10 102l-147 80l9 28l167 -22q8 22 19.5 42t24.5 39l-130 148l17 22l169 -104q16 16 33.5 30t36.5 27l-35 129l31 16l86 -101q63 25 133 33l31 165h30
l31 -165q23 -3 45.5 -7t45.5 -11l100 171l24 -10l-45 -194q20 -10 39 -22t37 -26l112 73l24 -25l-70 -113q46 -54 74 -117l166 22l9 -28l-147 -80q5 -23 7 -45.5t3 -45.5l194 -44v-26zM623 146q74 0 140 29t115.5 79t78.5 116t29 140t-28.5 140.5t-78 116t-115.5 78.5
t-141 29t-141.5 -29t-116 -78.5t-78.5 -116t-29 -140.5q0 -75 29 -141t79 -115.5t116 -78.5t141 -29z" />
    <glyph glyph-name="night" unicode="&#x263e;" 
d="M1152 288q-31 -68 -80 -124t-110.5 -96t-134 -62.5t-151.5 -22.5q-109 0 -205 41.5t-167 112.5t-112.5 167t-41.5 205t41.5 204.5t112.5 166.5t167 112.5t205 41.5q63 0 122.5 -14.5t113.5 -41.5l-4 -21q-41 9 -83 9q-84 0 -157.5 -32t-128.5 -87t-87 -128.5t-32 -157.5
t32 -158t87 -129t128.5 -87t157.5 -32q94 0 174 39t136 106l8 -6q4 -3 9 -6z" />
    <glyph glyph-name="spade" unicode="&#x2660;" 
d="M66 591q0 64 34 127.5t84.5 125.5t109.5 122.5t109.5 118t84.5 111.5t34 104h157q0 -50 33.5 -104t84.5 -111.5l109.5 -118t109.5 -122.5t84.5 -125.5t33.5 -127.5q0 -73 -15.5 -132t-48.5 -101t-84 -64.5t-122 -22.5l-201 170q0 -40 2.5 -80.5t13.5 -78t32.5 -69.5
t59 -56t93.5 -37.5t136 -13.5v-106h-800v106q80 0 136 13.5t93.5 37.5t58.5 56t32 69.5t13.5 78t2.5 80.5l-200 -170q-71 0 -122 22.5t-84 64.5t-48.5 101t-15.5 132z" />
    <glyph glyph-name="heartsweetwhite" unicode="&#x2661;" 
d="M180 700q-36 54 -64.5 117.5t-28.5 133.5q0 81 24.5 146.5t65.5 111.5t95.5 71t114.5 25h14q35 -3 61.5 -11t49.5 -22.5t46 -37t52 -54.5l40 -158l40 158q29 32 52.5 54.5t46.5 37t49.5 22t61.5 9.5q5 0 8.5 0.5t8.5 0.5q60 0 113.5 -25t94.5 -71t65 -111t24 -146
q0 -70 -28 -133.5t-66 -117.5l-470 -700zM650 150l40 150l311 491q24 38 38 75t16 73v13q0 46 -9.5 85.5t-27 68t-42.5 44.5t-56 16q-35 0 -58.5 -11t-41.5 -31.5t-33.5 -50.5l-33.5 -67l-53 -126h-100l-54 127q-20 47 -38.5 78.5t-38 50t-41.5 26t-48 7.5q-32 0 -57 -17
t-42 -46.5t-26 -69.5t-9 -86v-11q2 -36 16 -73t38 -75l310 -491z" />
    <glyph glyph-name="diamondsweetwhite" unicode="&#x2662;" 
d="M1090 701l-490 -701l-492 699l492 701zM994 700l-120 30l-244 398l-30 110l-30 -110l-245 -398l-120 -30l120 -30l244 -397l30 -110l30 110l245 397z" />
    <glyph glyph-name="club" unicode="&#x2663;" 
d="M713 441q0 -40 2.5 -80.5t13.5 -78t32.5 -69.5t59 -56t93.5 -37.5t136 -13.5v-106h-800v106q80 0 136 13.5t93.5 37.5t58.5 56t32 69.5t13.5 78t2.5 80.5l-199 -168q-56 1 -111.5 18t-100 54t-72 94.5t-27.5 140.5q0 59 20 108.5t50 85.5t64 56.5t63 20.5l277 -151
q-75 75 -115.5 124.5t-59.5 81t-22 47t-3 23.5q0 55 23 105t63 87.5t95 59.5t119 22t119 -22t95.5 -60t63 -88t22.5 -105q0 -7 -3 -23t-22 -47t-59.5 -80.5t-115.5 -124.5l277 151q22 0 56 -19.5t65.5 -55.5t54 -86t22.5 -110q0 -83 -27.5 -141t-71.5 -95t-99.5 -54
t-111.5 -17z" />
    <glyph glyph-name="flag1" unicode="&#x2690;" 
d="M1000 1100v-559q-24 -29 -77.5 -50.5t-122.5 -21.5q-23 0 -46.5 2.5t-48 9.5t-50.5 20t-55 34l-78 58t-65.5 46t-59 30t-58.5 11q-19 0 -39 -7v-673l-100 -20v1060l-18 235q1 0 5 2l26 9t39.5 11t50 9t59.5 4t67.5 -5.5t72 -19t73.5 -36.5t73 -58q57 -56 105 -79t88 -23
q26 0 48.5 9t42.5 23zM900 1000q-35 -11 -67 -11q-59 0 -117 29.5t-116 81.5q-34 30 -64 51t-57.5 33.5t-54 18t-52.5 5.5q-32 0 -72 -8l15 -300l-15 -100q48 0 90.5 -11.5t80 -30t69.5 -42t60 -48.5q64 -57 112 -80.5t88 -23.5q32 0 59 11t41 25v400z" />
    <glyph glyph-name="flag2" unicode="&#x2691;" 
d="M1000 1100v-559q-24 -29 -77.5 -50.5t-122.5 -21.5q-23 0 -46.5 2.5t-48 9.5t-50.5 20t-55 34l-78 58t-65.5 46t-59 30t-58.5 11q-19 0 -39 -7v-673l-100 -20v1060l-18 235q1 0 5 2l26 9t39.5 11t50 9t59.5 4t67.5 -5.5t72 -19t73.5 -36.5t73 -58q57 -56 105 -79t88 -23
q26 0 48.5 9t42.5 23z" />
    <glyph glyph-name="warning" unicode="&#x26a0;" horiz-adv-x="2600" 
d="M2074 261q35 -60 35 -115q0 -65 -49 -105.5t-137 -40.5h-1347q-88 0 -136 40t-48 105q0 26 8.5 55.5t26.5 60.5l674 1149q31 54 69.5 80.5t80.5 26.5q39 0 79 -27t71 -80zM2003 123l-752 1286l-747 -1286h1499zM1326 1100v-527l-150 -13v540h150zM1164 351q0 17 7 33
t18.5 28t27 19t33.5 7t34 -7t27.5 -19t18.5 -28t7 -33q0 -18 -7 -34t-18.5 -28t-27 -19t-33.5 -7t-34 7t-27.5 19t-18.5 28t-7 34z" />
    <glyph glyph-name="highvoltage" unicode="&#x26a1;" 
d="M700 1500h100l-260 -600l-40 -36l53 8l447 28l-500 -900h-100l260 600l40 34l-52 -10l-448 -24z" />
    <glyph glyph-name="plane" unicode="&#x2708;" horiz-adv-x="2600" 
d="M1096 -20l92 451l25 211h-213q-75 0 -132.5 4.5t-96.5 10.5q-46 7 -78 16l-153 -216l-63 -4l32 252l-79 36v18l79 36l-32 252l63 -4l153 -216q32 8 78 15q39 6 96.5 11t132.5 5h213l-25 211l-92 451l99 -20l345 -647l400 -15q22 -1 50 -6.5t52.5 -16.5t41 -27t16.5 -38
t-16.5 -38t-41 -27t-52.5 -16.5t-50 -6.5l-400 -15l-345 -647z" />
    <glyph glyph-name="mail" unicode="&#x2709;" 
d="M1200 0h-1200v900h1200v-900zM1041 800h-881l384 -301l56 -99l58 101zM82 766l32 -118v-348l-32 -138l296 338zM1071 100l-284 274l-26 74l-82 -73l-78 -110l-77 107l-85 76l-25 -73l-283 -275h940zM1118 161l-32 139v348l32 118l-297 -266z" />
    <glyph glyph-name="checkmark" unicode="&#x2713;" 
d="M480 400l10 200q30 85 69 165.5t82 153t88 135.5t87 114.5t78.5 89t62.5 59.5l131 -17q-45 -50 -97.5 -120.5t-105.5 -155.5t-103 -179.5t-91 -193.5t-68.5 -197.5t-35.5 -190.5l-222 17l-205 520l168 20z" />
    <glyph glyph-name="whitecircledone" unicode="&#x2780;" 
d="M10 750q0 95 21 187t60.5 174t96 151.5t127.5 120t155.5 79t179.5 28.5t179.5 -28.5t155.5 -79t127.5 -120t96 -151.5t60.5 -174t21 -187t-21 -187t-60.5 -174t-96 -151.5t-127.5 -120t-155.5 -79t-179.5 -28.5t-179.5 28.5t-155.5 79t-127.5 120t-96 151.5t-60.5 174
t-21 187zM116 750q0 -80 17 -158.5t49.5 -149t79.5 -130.5t106.5 -103.5t130 -68t151.5 -24.5q80 0 151 24.5t130.5 68t106 103.5t79 130.5t49.5 148.5t17 159q0 80 -17 158.5t-49.5 149t-79 130t-106 103t-130.5 68t-151 24.5t-151 -24.5t-130.5 -68t-106.5 -103
t-79.5 -130t-49.5 -149t-17 -158.5zM400 330v96h207v580l35 136l-82 -112l-127 -113l-65 73l275 252l90 -12v-804h207v-96h-540z" />
    <glyph glyph-name="whitecircledtwo" unicode="&#x2781;" 
d="M10 750q0 95 21 187t60.5 174t96 151.5t127.5 120t155.5 79t179.5 28.5t179.5 -28.5t155.5 -79t127.5 -120t96 -151.5t60.5 -174t21 -187t-21 -187t-60.5 -174t-96 -151.5t-127.5 -120t-155.5 -79t-179.5 -28.5t-179.5 28.5t-155.5 79t-127.5 120t-96 151.5t-60.5 174
t-21 187zM116 750q0 -80 17 -158.5t49.5 -149t79.5 -130.5t106.5 -103.5t130 -68t151.5 -24.5q80 0 151 24.5t130.5 68t106 103.5t79 130.5t49.5 148.5t17 159q0 80 -17 158.5t-49.5 149t-79 130t-106 103t-130.5 68t-151 24.5t-151 -24.5t-130.5 -68t-106.5 -103
t-79.5 -130t-49.5 -149t-17 -158.5zM384 330v101q27 44 59.5 86.5l66 82.5l65 76l58.5 67l61 66t51 59.5t35.5 61t13.5 69.5q0 29 -11 54.5t-30.5 44.5t-46.5 30t-59 11q-37 0 -63.5 -10t-47 -26t-35 -36.5l-27.5 -40.5l-84 36q15 39 39.5 71.5t57.5 56.5t75 37t94 13
q60 0 107.5 -21.5t80 -56.5t50 -79.5t17.5 -90.5t-17.5 -87.5t-43 -79t-54.5 -70.5l-54 -62l-62.5 -72l-60 -69l-53 -65.5t-42.5 -60.5h420v-96h-560z" />
    <glyph glyph-name="whitecircledthree" unicode="&#x2782;" 
d="M10 750q0 95 21 187t60.5 174t96 151.5t127.5 120t155.5 79t179.5 28.5t179.5 -28.5t155.5 -79t127.5 -120t96 -151.5t60.5 -174t21 -187t-21 -187t-60.5 -174t-96 -151.5t-127.5 -120t-155.5 -79t-179.5 -28.5t-179.5 28.5t-155.5 79t-127.5 120t-96 151.5t-60.5 174
t-21 187zM116 750q0 -80 17 -158.5t49.5 -149t79.5 -130.5t106.5 -103.5t130 -68t151.5 -24.5q80 0 151 24.5t130.5 68t106 103.5t79 130.5t49.5 148.5t17 159q0 80 -17 158.5t-49.5 149t-79 130t-106 103t-130.5 68t-151 24.5t-151 -24.5t-130.5 -68t-106.5 -103
t-79.5 -130t-49.5 -149t-17 -158.5zM420 1104l9 96h468v-84q-7 -24 -24 -50t-40 -53t-50.5 -52.5l-55.5 -49.5l-79 -44q6 1 15.5 1.5t17.5 0.5q58 0 108.5 -14.5t87 -43.5t58 -74t21.5 -105q0 -58 -21.5 -105.5t-59 -84.5t-88 -63.5t-108 -44t-118.5 -26t-120 -8.5v96
q50 2 98 9t91 20t80 31.5t63.5 43.5t41.5 56.5t15 69.5q0 43 -18.5 72t-50 45.5t-74.5 23.5t-92 7q-19 0 -41.5 -1t-40.5 -2v93l53 41l58.5 47.5t57 50t50.5 49t38.5 43.5t20.5 33l-91 -24h-280z" />
    <glyph glyph-name="whitecircledfour" unicode="&#x2783;" 
d="M10 750q0 95 21 187t60.5 174t96 151.5t127.5 120t155.5 79t179.5 28.5t179.5 -28.5t155.5 -79t127.5 -120t96 -151.5t60.5 -174t21 -187t-21 -187t-60.5 -174t-96 -151.5t-127.5 -120t-155.5 -79t-179.5 -28.5t-179.5 28.5t-155.5 79t-127.5 120t-96 151.5t-60.5 174
t-21 187zM116 750q0 -80 17 -158.5t49.5 -149t79.5 -130.5t106.5 -103.5t130 -68t151.5 -24.5q80 0 151 24.5t130.5 68t106 103.5t79 130.5t49.5 148.5t17 159q0 80 -17 158.5t-49.5 149t-79 130t-106 103t-130.5 68t-151 24.5t-151 -24.5t-130.5 -68t-106.5 -103
t-79.5 -130t-49.5 -149t-17 -158.5zM926 480h-108v-180h-126v180h-357v103l290 629l113 -12l-249 -540l-55 -84h258v244l126 -10v-234h117z" />
    <glyph glyph-name="whitecircledfive" unicode="&#x2784;" 
d="M10 750q0 95 21 187t60.5 174t96 151.5t127.5 120t155.5 79t179.5 28.5t179.5 -28.5t155.5 -79t127.5 -120t96 -151.5t60.5 -174t21 -187t-21 -187t-60.5 -174t-96 -151.5t-127.5 -120t-155.5 -79t-179.5 -28.5t-179.5 28.5t-155.5 79t-127.5 120t-96 151.5t-60.5 174
t-21 187zM116 750q0 -80 17 -158.5t49.5 -149t79.5 -130.5t106.5 -103.5t130 -68t151.5 -24.5q80 0 151 24.5t130.5 68t106 103.5t79 130.5t49.5 148.5t17 159q0 80 -17 158.5t-49.5 149t-79 130t-106 103t-130.5 68t-151 24.5t-151 -24.5t-130.5 -68t-106.5 -103
t-79.5 -130t-49.5 -149t-17 -158.5zM567 889q4 3 14.5 8t26 10.5t35.5 9.5t45 4q62 0 111 -19.5t83 -53.5t51.5 -79.5t17.5 -97.5q0 -60 -21.5 -111.5t-59 -92.5t-87.5 -72t-107 -52.5t-117 -32t-117 -10.5v96q45 1 91 10.5t89 26.5t80.5 40.5t65.5 52t44 62.5t16 71
q0 30 -10 59t-29.5 51.5t-48.5 36.5t-68 14q-31 0 -55.5 -4t-44 -10t-33.5 -13t-23 -13h-74v420h452v-96h-327v-215z" />
    <glyph glyph-name="whitecircledsix" unicode="&#x2785;" 
d="M10 750q0 95 21 187t60.5 174t96 151.5t127.5 120t155.5 79t179.5 28.5t179.5 -28.5t155.5 -79t127.5 -120t96 -151.5t60.5 -174t21 -187t-21 -187t-60.5 -174t-96 -151.5t-127.5 -120t-155.5 -79t-179.5 -28.5t-179.5 28.5t-155.5 79t-127.5 120t-96 151.5t-60.5 174
t-21 187zM116 750q0 -80 17 -158.5t49.5 -149t79.5 -130.5t106.5 -103.5t130 -68t151.5 -24.5q80 0 151 24.5t130.5 68t106 103.5t79 130.5t49.5 148.5t17 159q0 80 -17 158.5t-49.5 149t-79 130t-106 103t-130.5 68t-151 24.5t-151 -24.5t-130.5 -68t-106.5 -103
t-79.5 -130t-49.5 -149t-17 -158.5zM810 1106q-4 2 -12 2h-15q-43 0 -83.5 -13.5t-76.5 -38t-66.5 -58.5t-53.5 -75.5t-38 -88t-20 -96.5l50 70q15 10 35 18.5t42 15t45 10.5t43 4q53 0 101 -14.5t85.5 -44.5t60 -77t22.5 -112t-22 -123t-61.5 -101.5t-94.5 -68.5t-122 -25
q-59 0 -104.5 19t-79 50t-56 71t-36.5 82.5t-20 84t-6 75.5q0 71 14.5 139t42.5 127.5t68 110t91.5 86t113 55.5t132.5 20h19q11 0 17 -2zM450 658q0 -17 0.5 -30.5t1.5 -27t3.5 -27t6.5 -29.5q9 -34 23.5 -62t35.5 -48t48 -31t61 -11q48 0 81 18t54 47.5t31 67.5t10 77
q0 38 -11 66.5t-31.5 47.5t-49 28.5t-63.5 9.5q-32 0 -62.5 -7.5t-57.5 -21t-47.5 -31t-33.5 -36.5z" />
    <glyph glyph-name="whitecircledseven" unicode="&#x2786;" 
d="M10 750q0 95 21 187t60.5 174t96 151.5t127.5 120t155.5 79t179.5 28.5t179.5 -28.5t155.5 -79t127.5 -120t96 -151.5t60.5 -174t21 -187t-21 -187t-60.5 -174t-96 -151.5t-127.5 -120t-155.5 -79t-179.5 -28.5t-179.5 28.5t-155.5 79t-127.5 120t-96 151.5t-60.5 174
t-21 187zM116 750q0 -80 17 -158.5t49.5 -149t79.5 -130.5t106.5 -103.5t130 -68t151.5 -24.5q80 0 151 24.5t130.5 68t106 103.5t79 130.5t49.5 148.5t17 159q0 80 -17 158.5t-49.5 149t-79 130t-106 103t-130.5 68t-151 24.5t-151 -24.5t-130.5 -68t-106.5 -103
t-79.5 -130t-49.5 -149t-17 -158.5zM376 1170h566v-78q0 -26 -19.5 -66.5t-49.5 -91l-65.5 -108t-68 -118.5t-56.5 -122.5t-30 -118.5q-3 -24 -4.5 -50t-2.5 -52t-1 -51v-44h-123q0 18 0.5 48.5t1.5 64t4 66.5t8 56q14 64 39.5 126.5t55.5 119.5t62 108l57.5 93t42 73
t16.5 49h-433v96z" />
    <glyph glyph-name="whitecircledeight" unicode="&#x2787;" 
d="M10 750q0 95 21 187t60.5 174t96 151.5t127.5 120t155.5 79t179.5 28.5t179.5 -28.5t155.5 -79t127.5 -120t96 -151.5t60.5 -174t21 -187t-21 -187t-60.5 -174t-96 -151.5t-127.5 -120t-155.5 -79t-179.5 -28.5t-179.5 28.5t-155.5 79t-127.5 120t-96 151.5t-60.5 174
t-21 187zM116 750q0 -80 17 -158.5t49.5 -149t79.5 -130.5t106.5 -103.5t130 -68t151.5 -24.5q80 0 151 24.5t130.5 68t106 103.5t79 130.5t49.5 148.5t17 159q0 80 -17 158.5t-49.5 149t-79 130t-106 103t-130.5 68t-151 24.5t-151 -24.5t-130.5 -68t-106.5 -103
t-79.5 -130t-49.5 -149t-17 -158.5zM649 1210q54 0 101 -15t81 -43t53 -68.5t19 -90.5q0 -35 -10.5 -63t-28.5 -49.5t-41.5 -39.5t-50.5 -33q45 -20 80 -45.5t59 -57.5t37 -72t13 -87q0 -67 -26.5 -115t-70 -79.5t-99 -46.5t-113.5 -15q-57 0 -109.5 17t-93 50.5t-65.5 83
t-25 113.5q0 48 14 87t38 70.5t57 55.5t71 43q-28 17 -52 36t-42.5 40t-29 45.5t-10.5 54.5q0 59 23 101t59 69.5t79 40.5t83 13zM642 756q-38 -16 -68 -35.5t-51.5 -44.5t-33 -56.5t-11.5 -71.5q0 -36 14.5 -65t39 -50.5t56 -33t65.5 -11.5q38 0 72.5 10.5t60.5 31t41 50.5
t15 69q0 40 -17.5 71.5t-46 56.5t-64 44t-72.5 35zM667 854q55 24 87.5 59t32.5 85q0 30 -12 51.5t-31 35.5t-41.5 20t-42.5 6q-27 0 -52 -8t-44.5 -23t-31 -35.5t-11.5 -44.5q0 -27 11.5 -48.5t31.5 -38.5t46.5 -31.5t56.5 -27.5z" />
    <glyph glyph-name="whitecirclednine" unicode="&#x2788;" 
d="M10 750q0 95 21 187t60.5 174t96 151.5t127.5 120t155.5 79t179.5 28.5t179.5 -28.5t155.5 -79t127.5 -120t96 -151.5t60.5 -174t21 -187t-21 -187t-60.5 -174t-96 -151.5t-127.5 -120t-155.5 -79t-179.5 -28.5t-179.5 28.5t-155.5 79t-127.5 120t-96 151.5t-60.5 174
t-21 187zM116 750q0 -80 17 -158.5t49.5 -149t79.5 -130.5t106.5 -103.5t130 -68t151.5 -24.5q80 0 151 24.5t130.5 68t106 103.5t79 130.5t49.5 148.5t17 159q0 80 -17 158.5t-49.5 149t-79 130t-106 103t-130.5 68t-151 24.5t-151 -24.5t-130.5 -68t-106.5 -103
t-79.5 -130t-49.5 -149t-17 -158.5zM800 688q-35 -28 -70.5 -41t-80.5 -13q-59 0 -110 19.5t-89 55.5t-59.5 86.5t-21.5 113.5q0 64 20.5 117.5t59 92.5t92.5 60t121 21q60 0 106 -18.5t79.5 -49t56 -70t36 -82.5t19.5 -85t6 -77q0 -70 -14 -136t-41.5 -125t-67 -108.5
t-90.5 -86t-112 -58t-132 -24.5l-18 100q72 4 135 34.5t111.5 81t78 118t33.5 144.5zM841 862q-2 45 -13 87t-32.5 75.5t-53.5 53.5t-75 20q-41 0 -73 -13t-55 -36.5t-35.5 -56.5t-12.5 -73q0 -39 10 -72.5t30 -58t51 -38.5t73 -14q31 0 60.5 10t53.5 27t42.5 40t29.5 49z
" />
    <glyph glyph-name="whitecircledzero" unicode="&#x2789;" 
d="M10 750q0 95 21 187t60.5 174t96 151.5t127.5 120t155.5 79t179.5 28.5t179.5 -28.5t155.5 -79t127.5 -120t96 -151.5t60.5 -174t21 -187t-21 -187t-60.5 -174t-96 -151.5t-127.5 -120t-155.5 -79t-179.5 -28.5t-179.5 28.5t-155.5 79t-127.5 120t-96 151.5t-60.5 174
t-21 187zM116 750q0 -80 17 -158.5t49.5 -149t79.5 -130.5t106.5 -103.5t130 -68t151.5 -24.5q80 0 151 24.5t130.5 68t106 103.5t79 130.5t49.5 148.5t17 159q0 80 -17 158.5t-49.5 149t-79 130t-106 103t-130.5 68t-151 24.5t-151 -24.5t-130.5 -68t-106.5 -103
t-79.5 -130t-49.5 -149t-17 -158.5zM666 290q-51 0 -94 19.5t-76.5 53t-59 78.5t-43 96.5t-25.5 106t-8 106.5q0 54 7 109t22.5 106t40 96t58.5 78t78 52t100 19q51 0 93.5 -19.5t76.5 -53t59.5 -78.5t42.5 -96.5t25.5 -106t8.5 -106.5q0 -54 -7.5 -109t-23 -106t-40 -96
t-58 -78t-78 -52t-99.5 -19zM484 776q0 -35 2.5 -76.5t9.5 -84t20 -82t33.5 -70.5t50.5 -49.5t70 -18.5q37 0 64.5 14t47 38.5t32 56.5t20 68.5t10.5 75.5t3 76q0 35 -2 76.5t-9.5 83.5t-20.5 82t-33.5 70.5t-50 49.5t-70.5 19q-37 0 -64 -14.5t-47 -38.5t-32.5 -56t-20 -69
t-10.5 -75.5t-3 -75.5z" />
    <glyph glyph-name="blackcircledone" unicode="&#x278a;" 
d="M50 750q0 135 43 261.5t122 224.5t189.5 157t245.5 59t245.5 -59t189.5 -157t122 -224.5t43 -261.5t-43 -261.5t-122 -224.5t-189.5 -157t-245.5 -59t-245.5 59t-189.5 157t-122 224.5t-43 261.5zM937 320v96h-207v804l-90 12l-275 -252l65 -73l127 113l82 112l-35 -136
v-580h-207v-96h540z" />
    <glyph glyph-name="blackcircledtwo" unicode="&#x278b;" 
d="M50 750q0 135 43 261.5t122 224.5t189.5 157t245.5 59t245.5 -59t189.5 -157t122 -224.5t43 -261.5t-43 -261.5t-122 -224.5t-189.5 -157t-245.5 -59t-245.5 59t-189.5 157t-122 224.5t-43 261.5zM944 330v96h-420q18 29 42.5 60.5l53 65.5l60 69l62.5 72l54 62
t54.5 70.5t43 79t17.5 87.5t-17.5 90.5t-50 79.5t-80 56.5t-107.5 21.5q-52 0 -94 -13t-75 -37t-57.5 -56.5t-39.5 -71.5l84 -36l27.5 40.5t35 36.5t47 26t63.5 10q32 0 59 -11t46.5 -30t30.5 -44.5t11 -54.5q0 -38 -13.5 -69.5t-35.5 -61t-51 -59.5l-61 -66l-58.5 -67
l-65 -76l-66 -82.5t-59.5 -86.5v-101h560z" />
    <glyph glyph-name="blackcircledthree" unicode="&#x278c;" 
d="M50 740q0 90 19.5 177.5t56 167t89.5 146.5t119.5 116.5t146 77t169.5 27.5q135 0 244 -59t186 -157t118.5 -224.5t41.5 -261.5q0 -90 -18.5 -177.5t-54.5 -167t-87 -146.5t-117 -116.5t-144.5 -77t-168.5 -27.5q-135 0 -245.5 59t-189.5 157t-122 224.5t-43 261.5z
M700 1094l91 24q-5 -13 -20.5 -33t-38.5 -43.5t-50.5 -49t-57 -50l-58.5 -47.5l-53 -41v-93q18 1 40.5 2t41.5 1q49 0 92 -7t74.5 -23.5t50 -45.5t18.5 -72q0 -38 -15 -69.5t-41.5 -56.5t-63.5 -43.5t-80 -31.5t-91 -20t-98 -9v-96q59 0 120 8.5t118.5 26t108 44t88 63.5
t59 84.5t21.5 105.5q0 60 -21.5 105t-58 74t-87 43.5t-108.5 14.5q-8 0 -17.5 -0.5t-15.5 -1.5l79 44l55.5 49.5t50.5 52.5t40 53t24 50v84h-468l-9 -96h280z" />
    <glyph glyph-name="blackcircledfour" unicode="&#x278d;" 
d="M50 750q0 135 43 261.5t122 224.5t189.5 157t245.5 59t245.5 -59t189.5 -157t122 -224.5t43 -261.5t-43 -261.5t-122 -224.5t-189.5 -157t-245.5 -59t-245.5 59t-189.5 157t-122 224.5t-43 261.5zM945 576h-117v234l-126 10v-244h-258l55 84l249 540l-113 12l-290 -629
v-103h357v-180h126v180h108z" />
    <glyph glyph-name="blackcircledfive" unicode="&#x278e;" 
d="M50 750q0 135 43 261.5t122 224.5t189.5 157t245.5 59t245.5 -59t189.5 -157t122 -224.5t43 -261.5t-43 -261.5t-122 -224.5t-189.5 -157t-245.5 -59t-245.5 59t-189.5 157t-122 224.5t-43 261.5zM573 1094h327v96h-452v-420h74q9 6 23 13t33.5 13t44 10t55.5 4
q39 0 68 -14t48.5 -36.5t29.5 -51.5t10 -59q0 -37 -16 -71t-44 -62.5t-65.5 -52t-80.5 -40.5t-89 -26.5t-91 -10.5v-96q57 0 117 10.5t117 32t107 52.5t87.5 72t59 92.5t21.5 111.5q0 52 -17.5 97.5t-51.5 79.5t-83 53.5t-111 19.5q-25 0 -45 -4t-35.5 -9.5t-26 -10.5
t-14.5 -8v215z" />
    <glyph glyph-name="blackcircledsix" unicode="&#x278f;" 
d="M50 750q0 90 19.5 177.5t56 167t89.5 146.5t119.5 116.5t146 77t169.5 27.5t169.5 -27.5t146 -77t119.5 -116.5t89.5 -146.5t56 -167t19.5 -177.5q0 -135 -43 -261.5t-122 -224.5t-189.5 -157t-245.5 -59t-245.5 59t-189.5 157t-122 224.5t-43 261.5zM827 1208
q-6 2 -17 2h-19q-71 0 -132.5 -20t-113 -55.5t-91.5 -86t-68 -110t-42.5 -127.5t-14.5 -139q0 -34 6 -75.5t20 -84t36.5 -82.5t56 -71t79 -50t104.5 -19q67 0 122 25t94.5 68.5t61.5 101.5t22 123t-22.5 112t-60 77t-85.5 44.5t-101 14.5q-20 0 -43 -4t-45 -10.5t-42 -15
t-35 -18.5l-50 -70q5 50 20 96.5t38 88t53.5 75.5t66.5 58.5t76.5 38t83.5 13.5h15q8 0 12 -2zM452 658q13 19 33.5 36.5t47.5 31t57.5 21t62.5 7.5q35 0 63.5 -9.5t49 -28.5t31.5 -47.5t11 -66.5q0 -39 -10 -77t-31 -67.5t-54 -47.5t-81 -18q-34 0 -61 11t-48 31t-35.5 48
t-23.5 62q-4 16 -6.5 29.5t-3.5 27t-1.5 27t-0.5 30.5z" />
    <glyph glyph-name="blackcircledseven" unicode="&#x2790;" 
d="M50 750q0 135 43 261.5t122 224.5t189.5 157t245.5 59t245.5 -59t189.5 -157t122 -224.5t43 -261.5t-43 -261.5t-122 -224.5t-189.5 -157t-245.5 -59t-245.5 59t-189.5 157t-122 224.5t-43 261.5zM384 1074h433q0 -18 -16.5 -49t-42 -73l-57.5 -93t-62 -108t-55.5 -119.5
t-39.5 -126.5q-5 -23 -8 -56t-4 -66.5t-1.5 -64t-0.5 -48.5h123v44q0 25 1 51t2.5 52t4.5 50q6 57 30 118.5t56.5 122.5t68 118.5l65.5 108t49.5 91t19.5 66.5v78h-566v-96z" />
    <glyph glyph-name="blackcircledeight" unicode="&#x2791;" 
d="M50 750q0 135 43 261.5t122 224.5t189.5 157t245.5 59t245.5 -59t189.5 -157t122 -224.5t43 -261.5t-43 -261.5t-122 -224.5t-189.5 -157t-245.5 -59t-245.5 59t-189.5 157t-122 224.5t-43 261.5zM639 1210q-40 0 -83 -13t-79 -40.5t-59 -69.5t-23 -101q0 -30 10.5 -54.5
t29 -45.5t42.5 -40t52 -36q-38 -19 -71 -43t-57 -55.5t-38 -70.5t-14 -87q0 -64 25 -113.5t65.5 -83t93 -50.5t109.5 -17q58 0 113.5 15t99 46.5t70 79.5t26.5 115q0 47 -13 87t-37 72t-59 57.5t-80 45.5q27 15 50.5 33t41.5 39.5t28.5 49.5t10.5 63q0 50 -19 90.5t-53 68.5
t-81 43t-101 15zM632 756q37 -16 72.5 -35t64 -44t46 -56.5t17.5 -71.5q0 -39 -15 -69t-41 -50.5t-60.5 -31t-72.5 -10.5q-34 0 -65.5 11.5t-56 33t-39 50.5t-14.5 65q0 40 11.5 71.5t33 56.5t51.5 44.5t68 35.5zM657 854q-30 13 -56.5 27.5t-46.5 31.5t-31.5 38.5
t-11.5 48.5q0 24 11.5 44.5t31 35.5t44.5 23t52 8q20 0 42.5 -6t41.5 -20t31 -35.5t12 -51.5q0 -50 -32.5 -85t-87.5 -59z" />
    <glyph glyph-name="blackcirclednine" unicode="&#x2792;" 
d="M50 750q0 135 43 261.5t122 224.5t189.5 157t245.5 59t245.5 -59t189.5 -157t122 -224.5t43 -261.5t-43 -261.5t-122 -224.5t-189.5 -157t-245.5 -59t-245.5 59t-189.5 157t-122 224.5t-43 261.5zM856 768q-4 -77 -33.5 -144.5t-78 -118t-111.5 -81t-135 -34.5l18 -100
q71 3 132 24.5t112 58t90.5 86t67 108.5t41.5 125t14 136q0 35 -6 77t-19.5 85t-36 82.5t-56 70t-79.5 49t-106 18.5q-67 0 -121 -21t-92.5 -60t-59 -92.5t-20.5 -117.5q0 -63 21.5 -113.5t59.5 -86.5t89 -55.5t110 -19.5q45 0 80.5 13t70.5 41zM849 872q-11 -26 -29.5 -49
t-42.5 -40t-53.5 -27t-60.5 -10q-42 0 -73 14t-51 38.5t-30 58t-10 72.5q0 40 12.5 73t35.5 56.5t55 36.5t73 13q43 0 75 -20t53.5 -53.5t32.5 -75.5t13 -87z" />
    <glyph glyph-name="blackcircledzero" unicode="&#x2793;" 
d="M50 750q0 135 43 261.5t122 224.5t189.5 157t245.5 59t245.5 -59t189.5 -157t122 -224.5t43 -261.5t-43 -261.5t-122 -224.5t-189.5 -157t-245.5 -59t-245.5 59t-189.5 157t-122 224.5t-43 261.5zM650 290q55 0 99.5 19t78 52t58 78t40 96t23 106t7.5 109
q0 52 -8.5 106.5t-25.5 106t-42.5 96.5t-59.5 78.5t-76.5 53t-93.5 19.5q-56 0 -100 -19t-78 -52t-58.5 -78t-40 -96t-22.5 -106t-7 -109q0 -52 8 -106.5t25.5 -106t43 -96.5t59 -78.5t76.5 -53t94 -19.5zM468 776q0 37 3 75.5t10.5 75.5t20 69t32.5 56t47 38.5t64 14.5
q41 0 70.5 -19t50 -49.5t33.5 -70.5t20.5 -82t9.5 -83.5t2 -76.5q0 -37 -3 -76t-10.5 -75.5t-20 -68.5t-32 -56.5t-47 -38.5t-64.5 -14q-40 0 -70 18.5t-50.5 49.5t-33.5 70.5t-20 82t-9.5 84t-2.5 76.5z" />
    <glyph glyph-name="widerightwardsarrow" unicode="&#x2794;" 
d="M1300 600l-290 -220l-320 -281h-270l282 265l198 150l-218 -14h-682l30 200h652l218 -14l-198 146l-282 267h270l320 -279z" />
    <glyph glyph-name="ffligature" unicode="&#xfb00;" 
d="M664 1320q-10 13 -22.5 27.5t-30.5 26t-42 19t-57 7.5q-48 0 -73.5 -18.5t-37.5 -52t-14 -80.5t-2 -104v-45h179v-160h-174v-940h-190v940h-150v160h150v55q0 85 10.5 159t41 129t85.5 87t143 32q75 0 129.5 -19.5t104.5 -59.5q38 65 106.5 99.5t173.5 34.5
q45 0 82.5 -7.5t69 -19.5t58 -28t47.5 -33l-85 -118q-21 15 -58 30.5t-82 15.5q-86 0 -131.5 -48.5t-45.5 -163.5v-145h290l-20 -160h-265v-940h-190v1320z" />
    <glyph glyph-name="stligature" unicode="&#xfb06;" 
d="M979 376q0 -66 7.5 -110.5t22 -72t36 -39t49.5 -11.5q22 0 40 2.5t31 6.5l27 9l69 -121q-8 -8 -25 -18t-41.5 -18.5t-55.5 -14.5t-65 -6q-90 0 -146 33t-87 90t-41.5 132.5t-10.5 161.5v540h-390q-53 0 -82 -15.5t-43 -37t-16.5 -43.5t-2.5 -34q0 -23 9.5 -45.5t31 -46.5
t57 -49.5t88.5 -55.5q111 -63 162.5 -140t51.5 -173q0 -56 -18.5 -112.5t-58 -102t-102.5 -74t-152 -28.5q-34 0 -73.5 6.5t-79 18t-75.5 27.5t-62 34l66 142q24 -12 51 -24t55.5 -21.5t58.5 -16t61 -6.5t57.5 10.5t46 30.5t30.5 49t11 67q0 37 -22.5 68.5t-55.5 57.5
t-69.5 47.5t-63.5 40.5q-60 41 -95.5 76.5t-54.5 70.5t-24.5 71.5t-5.5 78.5q0 74 26.5 128.5t70.5 90t102.5 53t123.5 17.5h386v209l185 111v-320h246l-20 -160h-221v-564z" />
    <glyph glyph-name="takeoff" unicode="&#xe000;" horiz-adv-x="2600" 
d="M1495 1138l556 240q39 14 82.5 21.5t87.5 7.5q43 0 92.5 -10.5t91.5 -34t69.5 -60.5t27.5 -91q0 -44 -22 -87.5t-56.5 -81t-77.5 -67t-85 -47.5l-1048 -429q-5 0 -12 0.5t-15 0.5q-38 0 -98.5 -3.5t-131 -8.5t-144 -12t-136.5 -14t-109 -14t-61 -12l-48 132l-338 199
l224 82l334 -81l335 139l-451 359l335 122zM80 -200l20 200h1800v-200h-1820zM2000 -200v200h200v-200h-200zM2300 -200v200h100v-200h-100z" />
    <glyph glyph-name="climb" unicode="&#xe001;" horiz-adv-x="2600" 
d="M1495 1138l556 240q39 14 82.5 21.5t87.5 7.5q43 0 92.5 -10.5t91.5 -34t69.5 -60.5t27.5 -91q0 -44 -22 -87.5t-56.5 -81t-77.5 -67t-85 -47.5l-1048 -429q-5 0 -12 0.5t-15 0.5q-38 0 -98.5 -3.5t-131 -8.5t-144 -12t-136.5 -14t-109 -14t-61 -12l-48 132l-338 199
l224 82l334 -81l335 139l-451 359l335 122z" />
    <glyph glyph-name="cruise" unicode="&#xe002;" horiz-adv-x="2600" 
d="M1519 961l605 35q63 0 130 -18t121.5 -51.5t89.5 -81t35 -106.5q0 -53 -32 -96t-81.5 -73.5t-108 -48t-111.5 -19.5l-1131 -45q-25 11 -80.5 28.5t-126 37.5l-148 40.5l-145.5 37.5t-118.5 27.5t-67.5 10.5v141l-250 303h239l286 -190l363 16l-302 491h357z" />
    <glyph glyph-name="descent" unicode="&#xe003;" horiz-adv-x="2600" 
d="M1520 903l593 -123q55 -15 109.5 -44.5t97.5 -69t69.5 -87t26.5 -98.5q0 -53 -27.5 -91t-70 -62t-94.5 -35t-100 -11q-26 0 -50 2.5t-47 7.5l-1104 249q-21 17 -70.5 48.5l-112.5 69.5l-132 77.5l-130.5 73.5t-108 57t-62.5 28l37 136l-163 357l231 -62l227 -257l355 -79
l-165 553l345 -93z" />
    <glyph glyph-name="landing" unicode="&#xe004;" horiz-adv-x="2600" 
d="M1504 1021l593 -123q55 -15 109.5 -44.5t97.5 -69t69.5 -87t26.5 -98.5q0 -53 -27.5 -91t-70 -62t-94.5 -35t-100 -11q-26 0 -50 2.5t-47 7.5l-1104 249q-21 17 -70.5 48.5l-112.5 69.5l-132 77.5l-130.5 73.5t-108 57t-62.5 28l37 136l-163 357l231 -62l227 -257
l355 -79l-165 553l345 -93zM2400 -200h-1800v200h1800v-200zM500 -200h-200v200h200v-200zM200 -200h-120l20 200h100v-200z" />
    <glyph glyph-name="levelup" unicode="&#xe005;" horiz-adv-x="2600" 
d="M368 100h200q94 0 159 18.5t112.5 50t83.5 73.5t71 88q37 49 78 97t99 86q66 45 147 66t182 21h544l-244 200h146l184 -161l116 -88l-118 -92l-182 -159h-146l244 200h-544q-95 0 -160 -18.5t-112.5 -50t-83.5 -73.5t-71 -88q-37 -49 -78 -97t-99 -86q-66 -45 -146.5 -66
t-181.5 -21h-200v100zM1600 100h200v-100h-200v100zM1900 100h200v-100h-200v100zM1300 100h200v-100h-200v100zM1100 100h100v-100h-200z" />
    <glyph glyph-name="leveldown" unicode="&#xe006;" horiz-adv-x="2600" 
d="M368 800h200q101 0 181.5 -21t146.5 -66q58 -38 99 -86t78 -97q35 -46 71 -88t83.5 -73.5t112.5 -50t160 -18.5h544l-244 200h146l182 -159l118 -92l-116 -88l-184 -161h-146l244 200h-544q-101 0 -182 21t-147 66q-58 38 -99 86t-78 97q-35 46 -71 88t-83.5 73.5
t-112.5 50t-159 18.5h-200v100zM1600 800h200v-100h-200v100zM1900 800h200v-100h-200v100zM1300 800h200v-100h-200v100zM1000 800h200v-100h-100z" />
    <glyph glyph-name="slashedzero" unicode="&#xe007;" 
d="M600 -17q-85 0 -156 32.5t-127.5 88.5t-99 131t-71 160.5t-42.5 176.5t-14 178q0 90 12 182t38 177t66.5 159.5t97 129.5t130 87t166.5 32q85 0 156 -32.5t127.5 -88.5t99 -131t71 -160.5t42.5 -176.5t14 -178q0 -90 -12 -182t-38 -177t-66.5 -159.5t-97 -129.5
t-130.5 -87t-166 -32zM608 157q62 0 108 23.5t79 63.5t54.5 94t34 115t17.5 126t5 128q0 34 -1 64.5t-3 61.5t-5.5 63t-8.5 69l30 217l-521 -905q35 -57 86 -88.5t125 -31.5zM592 1341q-62 0 -108 -23t-79 -63t-54.5 -93.5t-34 -114.5t-17.5 -126t-5 -128q0 -68 4 -127.5
t15 -133.5l-30 -212l519 901q-35 57 -86.5 88.5t-123.5 31.5z" />
    </font>
</defs>
</svg>
