<svg xmlns="http://www.w3.org/2000/svg" viewBox="0 0 64 64" width="64" height="64"><rect width="64" height="64" rx="12" fill="#8B0000"/><g fill="#fff" transform="translate(4.99,49.12) scale(0.0228,-0.0228)"><g transform="translate(0.00,0)"><path d="M62 0 485 1300 520 1500 737 1520 1235 0H1035L887 450H392L246 0ZM639 1360 603 1100 441 600H838L675 1100Z"/></g><g transform="translate(1300.00,0)"><path d="M870 1274Q802 1314 739.5 1333.0Q677 1352 600 1352Q546 1352 494.5 1341.0Q443 1330 403.5 1305.5Q364 1281 339.5 1241.5Q315 1202 315 1145Q315 1089 345.0 1048.0Q375 1007 423.5 974.5Q472 942 534.5 914.5Q597 887 662.0 856.5Q727 826 789.5 789.5Q852 753 900.5 703.5Q949 654 979.0 588.0Q1009 522 1009 432Q1009 358 989.0 295.5Q969 233 933.5 183.0Q898 133 849.0 95.5Q800 58 742.0 33.0Q684 8 619.5 -4.5Q555 -17 488 -17Q255 -13 82 94L173 244Q193 231 225.5 214.5Q258 198 298.0 183.0Q338 168 383.0 158.0Q428 148 474 148Q536 148 595.5 163.5Q655 179 701.5 211.5Q748 244 776.5 294.0Q805 344 805 413Q805 478 775.0 526.5Q745 575 696.5 613.5Q648 652 585.5 683.0Q523 714 458.0 745.0Q393 776 330.5 810.0Q268 844 219.5 887.0Q171 930 141.0 985.5Q111 1041 111 1116Q111 1213 151.0 1287.5Q191 1362 256.5 1413.0Q322 1464 405.0 1490.5Q488 1517 574 1517Q787 1517 967 1397Z"/></g></g></svg>
